<svg width="16" height="16" viewBox="0 0 16 16" fill="none" xmlns="http://www.w3.org/2000/svg">
<g clip-path="url(#clip0_31_8)">
<path d="M6 0.277993C6.09761 0.396606 6.15741 0.541765 6.17168 0.694716C6.18594 0.847666 6.154 1.00138 6.08 1.13599C5.50186 2.19747 5.19993 3.38729 5.202 4.59599C5.202 8.61699 8.48 11.873 12.52 11.873C13.047 11.873 13.56 11.818 14.053 11.713C14.2041 11.6803 14.3615 11.6928 14.5056 11.749C14.6497 11.8052 14.774 11.9026 14.863 12.029C14.957 12.1604 15.0049 12.3193 14.9993 12.4808C14.9937 12.6423 14.9349 12.7974 14.832 12.922C14.0477 13.8854 13.0582 14.6617 11.9358 15.1942C10.8134 15.7267 9.58632 16.002 8.344 16C3.734 16 0 12.286 0 7.70999C0 4.26599 2.114 1.31199 5.124 0.0599933C5.27394 -0.00337482 5.44039 -0.0163808 5.59835 0.022929C5.75631 0.0622388 5.89725 0.151742 6 0.277993V0.277993Z" fill="#180D00"/>
<path d="M10.794 3.14803C10.8083 3.10472 10.836 3.06704 10.8729 3.04033C10.9099 3.01362 10.9544 2.99924 11 2.99924C11.0456 2.99924 11.0901 3.01362 11.1271 3.04033C11.164 3.06704 11.1917 3.10472 11.206 3.14803L11.593 4.31003C11.766 4.82803 12.172 5.23403 12.69 5.40703L13.852 5.79403C13.8953 5.80837 13.933 5.83599 13.9597 5.87297C13.9864 5.90995 14.0008 5.95441 14.0008 6.00003C14.0008 6.04565 13.9864 6.0901 13.9597 6.12709C13.933 6.16407 13.8953 6.19169 13.852 6.20603L12.69 6.59303C12.4345 6.67815 12.2024 6.82159 12.012 7.012C11.8216 7.20241 11.6781 7.43455 11.593 7.69003L11.206 8.85203C11.1917 8.89533 11.164 8.93302 11.1271 8.95973C11.0901 8.98644 11.0456 9.00082 11 9.00082C10.9544 9.00082 10.9099 8.98644 10.8729 8.95973C10.836 8.93302 10.8083 8.89533 10.794 8.85203L10.407 7.69003C10.3219 7.43455 10.1784 7.20241 9.98802 7.012C9.79761 6.82159 9.56547 6.67815 9.30999 6.59303L8.14799 6.20603C8.10469 6.19169 8.067 6.16407 8.04029 6.12709C8.01358 6.0901 7.99921 6.04565 7.99921 6.00003C7.99921 5.95441 8.01358 5.90995 8.04029 5.87297C8.067 5.83599 8.10469 5.80837 8.14799 5.79403L9.30999 5.40703C9.56547 5.32191 9.79761 5.17846 9.98802 4.98805C10.1784 4.79764 10.3219 4.5655 10.407 4.31003L10.794 3.14803V3.14803ZM13.863 0.0990285C13.8729 0.0705548 13.8914 0.0458644 13.9159 0.0283901C13.9405 0.0109158 13.9699 0.00152588 14 0.00152588C14.0301 0.00152588 14.0595 0.0109158 14.0841 0.0283901C14.1086 0.0458644 14.1271 0.0705548 14.137 0.0990285L14.395 0.873029C14.51 1.21903 14.781 1.49003 15.127 1.60503L15.901 1.86303C15.9295 1.8729 15.9542 1.8914 15.9716 1.91595C15.9891 1.9405 15.9985 1.96989 15.9985 2.00003C15.9985 2.03016 15.9891 2.05955 15.9716 2.08411C15.9542 2.10866 15.9295 2.12716 15.901 2.13703L15.127 2.39503C14.9565 2.45175 14.8015 2.54744 14.6745 2.67451C14.5474 2.80158 14.4517 2.95652 14.395 3.12703L14.137 3.90103C14.1271 3.9295 14.1086 3.95419 14.0841 3.97167C14.0595 3.98914 14.0301 3.99853 14 3.99853C13.9699 3.99853 13.9405 3.98914 13.9159 3.97167C13.8914 3.95419 13.8729 3.9295 13.863 3.90103L13.605 3.12703C13.5483 2.95652 13.4526 2.80158 13.3255 2.67451C13.1984 2.54744 13.0435 2.45175 12.873 2.39503L12.099 2.13703C12.0705 2.12716 12.0458 2.10866 12.0284 2.08411C12.0109 2.05955 12.0015 2.03016 12.0015 2.00003C12.0015 1.96989 12.0109 1.9405 12.0284 1.91595C12.0458 1.8914 12.0705 1.8729 12.099 1.86303L12.873 1.60503C13.219 1.49003 13.49 1.21903 13.605 0.873029L13.863 0.100029V0.0990285Z" fill="#D37815"/>
</g>
<defs>
<clipPath id="clip0_31_8">
<rect width="16" height="16" fill="white"/>
</clipPath>
</defs>
</svg>
