<svg width="500" height="500" fill="none" xmlns="http://www.w3.org/2000/svg"><path d="m372.31 144.73 87.61-.13s-4.37-5.67-9.17-6.37c0 0-9.38-27.79-25-28-14.54-.17-20.34 17.13-20.34 17.13s-6.75-7.74-13.18-4.19-10 13.71-10 13.71-7.3 3.95-9.92 7.85ZM179.68 164.53l-110.79.17s0-7.08 15.25-8.49c0 0 13.89-31 35.17-26.84 13.25 2.57 20.05 20.75 20.05 20.75s10-14.33 18-11.57 12.79 18 12.79 18 8.27 3.98 9.53 7.98ZM382 68.05l-75.33.12s7.1-6.63 10.26-6.63 12.34-22.24 24.13-21.31c11.79.93 18.06 17.46 18.06 17.46s14.31-4.51 22.88 10.36ZM174.08 90.14l-64.42.1s3.19-4.17 6.72-4.7c0 0 6.84-20.46 18.34-20.62 10.69-.15 15 12.55 15 12.55s4.95-5.71 9.68-3.11c4.73 2.6 7.43 10.06 7.43 10.06s5.31 2.86 7.25 5.72ZM93.43 427.96l-15.57-.07 4.22-118.48 2.82-78.91 3.35.01 2.08 78.93 3.1 118.52Z" fill="#EBEBEB"/><path d="m89.47 276.6-6.22-.03 1.65-46.07 3.35.01 1.22 46.09Z" fill="#DBDBDB"/><path d="M92.53 230.57a6.33 6.33 0 1 0-6.12 6.53 6.408 6.408 0 0 0 6.12-6.53Z" fill="#C7C7C7"/><path d="M90.49 230.63a4.291 4.291 0 0 0-7.421-2.777 4.287 4.287 0 0 0-.774 4.7 4.287 4.287 0 0 0 4.045 2.517 4.339 4.339 0 0 0 4.15-4.44Z" fill="#fff"/><path d="M92.35 228.68s66-3.94 70-1c2.62 1.94-58 9.07-60.94 8.9-2.94-.17-9.15-6-9.15-6l.09-1.9ZM81.64 226.37s-36.43-55.21-35.86-60.16c.37-3.21 36.84 45.68 38.22 48.33 1.38 2.65-.59 10.91-.59 10.91l-1.77.92ZM85 236.8S55.39 296 50.83 297.94c-3 1.3 21.14-54.74 22.77-57.23 1.63-2.49 9.74-4.94 9.74-4.94L85 236.8ZM396.25 427.96l-14.63-.06 3.97-111.35 2.65-74.16 3.14.02 1.95 74.17 2.92 111.38Z" fill="#EBEBEB"/><path d="m392.53 285.72-5.84-.03 1.54-43.3 3.15.02 1.15 43.31Z" fill="#DBDBDB"/><path d="M394.78 245.2a5.944 5.944 0 0 0-.924-6.547 5.949 5.949 0 0 0-9.191.388 5.943 5.943 0 0 0-.369 6.602 5.946 5.946 0 0 0 2.544 2.337 6.002 6.002 0 0 0 7.94-2.78Z" fill="#C7C7C7"/><path d="M393.06 244.37c.335-.713.451-1.509.335-2.289a3.998 3.998 0 0 0-5.28-3.184 3.998 3.998 0 0 0-.445 7.363 4.077 4.077 0 0 0 5.39-1.89Z" fill="#fff"/><path d="M395.46 243.55s56.7 25.47 58.74 29.68c1.34 2.76-52.23-17.69-54.62-19.13-2.39-1.44-5-8.95-5-8.95l.88-1.6ZM387.54 237s-6.29-61.85-3.67-65.72c1.72-2.53 10.79 54.08 10.75 56.87-.04 2.79-5.24 8.83-5.24 8.83l-1.84.02ZM385.8 247.11s-50.41 36.38-55.08 36c-3.06-.22 41.44-36.38 43.88-37.74 2.44-1.36 10.26.13 10.26.13l.94 1.61Z" fill="#EBEBEB"/><path d="M378.25 392.55h-6.05v35.4h6.05v-35.4ZM424.74 392.55h-6.05v35.4h6.05v-35.4ZM449.46 369.88h-6.07v58.09h6.07v-58.09Z" fill="#DBDBDB"/><path d="M378.25 392.55h-6.05v19.2h6.05v-19.2ZM424.74 392.55h-6.05v19.2h6.05v-19.2ZM449.46 369.88h-6.07v41.88h6.07v-41.88Z" fill="#C7C7C7"/><path d="m434.13 404.25-74.67-.01 26.21-38.16 74.68.01-26.22 38.16Z" fill="#DBDBDB"/><path d="m453.03 369.88-5.59 8.13-2.96 4.33-4.87 7.1-.74 1.08-6.81 9.94-65.28-.01 10.1-14.74.75-1.08 4.18-6.1 2.96-4.33 1.56-2.28.75-1.07.67-.98 65.28.01Z" fill="#455A64"/><path d="m408.586 367.318-24.039 34.964 1.079.742 24.039-34.964-1.079-.742ZM432.883 367.314l-24.039 34.964 1.079.742 24.039-34.963-1.079-.743Z" fill="#DBDBDB"/><path d="M443.39 384.48h-68.57v1.31h68.57v-1.31Z" fill="#DBDBDB"/><g opacity=".2" fill="#fff"><path opacity=".2" d="M399.9 400.45h-2.28l-20.74-14.74.75-1.08 22.27 15.82ZM439.61 389.44l-.74 1.08-29.06-20.65h2.26l27.54 19.57ZM428.74 400.46l-2.25-.01-40.16-28.53.75-1.07 41.66 29.61ZM421.72 400.45h-9.06l-30.85-21.92 2.96-4.33 36.95 26.25ZM447.44 378.01l-2.96 4.33-17.53-12.47h9.04l11.45 8.14Z"/></g><path d="M58.45 392.55H52.4v35.4h6.05v-35.4ZM104.94 392.55h-6.05v35.4h6.05v-35.4ZM129.66 369.88h-6.07v58.09h6.07v-58.09Z" fill="#DBDBDB"/><path d="M58.45 392.55H52.4v19.2h6.05v-19.2ZM104.94 392.55h-6.05v19.2h6.05v-19.2ZM129.66 369.88h-6.07v41.88h6.07v-41.88Z" fill="#C7C7C7"/><path d="m114.33 404.25-74.68-.01 26.22-38.16 74.67.01-26.21 38.16Z" fill="#DBDBDB"/><path d="m133.22 369.88-5.58 8.13-2.96 4.33-4.88 7.1-.73 1.08-6.82 9.94-65.28-.01 10.11-14.74.75-1.08 4.18-6.1 2.96-4.33 1.56-2.28.74-1.07.67-.98 65.28.01Z" fill="#455A64"/><path d="m88.763 367.302-24.039 34.964 1.08.742 24.038-34.964-1.08-.742ZM113.06 367.298l-24.039 34.964 1.08.742 24.039-34.963-1.08-.743Z" fill="#DBDBDB"/><path d="M123.59 384.48H55.02v1.31h68.57v-1.31Z" fill="#DBDBDB"/><g opacity=".2" fill="#fff"><path opacity=".2" d="M80.1 400.45h-2.28l-20.74-14.74.75-1.08 22.27 15.82ZM119.8 389.44l-.73 1.08-29.06-20.65h2.25l27.54 19.57ZM108.94 400.46l-2.26-.01-40.15-28.53.74-1.07 41.67 29.61ZM101.91 400.45h-9.05l-30.85-21.92 2.96-4.33 36.94 26.25ZM127.64 378.01l-2.96 4.33-17.53-12.47h9.04l11.45 8.14Z"/></g><path d="M138.6 392.55h-6.05v35.4h6.05v-35.4ZM185.08 392.55h-6.05v35.4h6.05v-35.4ZM209.81 369.88h-6.07v58.09h6.07v-58.09Z" fill="#DBDBDB"/><path d="M138.6 392.55h-6.05v19.2h6.05v-19.2ZM185.09 392.55h-6.05v19.2h6.05v-19.2ZM209.81 369.88h-6.07v41.88h6.07v-41.88Z" fill="#C7C7C7"/><path d="m194.48 404.25-74.68-.01 26.21-38.16 74.68.01-26.21 38.16Z" fill="#DBDBDB"/><path d="m213.37 369.88-5.58 8.13-2.97 4.33-4.87 7.1-.73 1.08-6.82 9.94-65.28-.01 10.11-14.74.74-1.08 4.18-6.1 2.97-4.33 1.56-2.28.74-1.07.67-.98 65.28.01Z" fill="#455A64"/><path d="m168.922 367.306-24.039 34.964 1.08.742 24.038-34.963-1.079-.743ZM193.213 367.311l-24.038 34.963 1.079.742 24.039-34.963-1.08-.742Z" fill="#DBDBDB"/><path d="M203.74 384.48h-68.57v1.31h68.57v-1.31Z" fill="#DBDBDB"/><g opacity=".2" fill="#fff"><path opacity=".2" d="M160.25 400.45h-2.28l-20.74-14.74.74-1.08 22.28 15.82ZM199.95 389.44l-.73 1.08-29.06-20.65h2.25l27.54 19.57ZM189.09 400.46l-2.26-.01-40.15-28.53.74-1.07 41.67 29.61ZM182.06 400.45h-9.05l-30.86-21.92 2.97-4.33 36.94 26.25ZM207.79 378.01l-2.97 4.33-17.53-12.47h9.05l11.45 8.14Z"/></g><path d="M297.92 392.55h-6.05v35.4h6.05v-35.4ZM344.41 392.55h-6.05v35.4h6.05v-35.4ZM369.13 369.88h-6.07v58.09h6.07v-58.09Z" fill="#DBDBDB"/><path d="M297.92 392.55h-6.05v19.2h6.05v-19.2ZM344.41 392.55h-6.05v19.2h6.05v-19.2ZM369.13 369.88h-6.07v41.88h6.07v-41.88Z" fill="#C7C7C7"/><path d="m353.8 404.25-74.68-.01 26.22-38.16 74.67.01-26.21 38.16Z" fill="#DBDBDB"/><path d="m372.69 369.88-5.58 8.13-2.96 4.33-4.88 7.1-.73 1.08-6.82 9.94-65.28-.01 10.11-14.74.75-1.08 4.18-6.1 2.96-4.33 1.56-2.28.74-1.07.67-.98 65.28.01Z" fill="#455A64"/><path d="m328.245 367.312-24.039 34.964 1.079.742 24.039-34.963-1.079-.743ZM352.542 367.289l-24.039 34.963 1.08.742 24.038-34.963-1.079-.742Z" fill="#DBDBDB"/><path d="M363.06 384.48h-68.57v1.31h68.57v-1.31Z" fill="#DBDBDB"/><g opacity=".2" fill="#fff"><path opacity=".2" d="M319.57 400.45h-2.28l-20.74-14.74.75-1.08 22.27 15.82ZM359.27 389.44l-.73 1.08-29.06-20.65h2.25l27.54 19.57ZM348.41 400.46l-2.26-.01L306 371.92l.74-1.07 41.67 29.61ZM341.38 400.45h-9.05l-30.85-21.92 2.96-4.33 36.94 26.25ZM367.11 378.01l-2.96 4.33-17.53-12.47h9.04l11.45 8.14Z"/></g><path d="m459.98 427.98-52.49.25-52.5.08-104.99.17-104.99-.16-52.49-.09-52.5-.25 52.5-.24 52.49-.09 104.99-.16 104.99.16 52.5.09 52.49.24Z" fill="#263238"/><path d="M250 458.88c41.736 0 75.57-4.132 75.57-9.23 0-5.098-33.834-9.23-75.57-9.23-41.736 0-75.57 4.132-75.57 9.23 0 5.098 33.834 9.23 75.57 9.23Z" fill="#EBEBEB"/><path d="M381.06 314.43a130.09 130.09 0 0 1-25 76.86 130.753 130.753 0 0 1-116.047 53.496 130.752 130.752 0 0 1-120.382-135.504A130.743 130.743 0 0 1 250.32 183.69a130.596 130.596 0 0 1 102.78 49.93 132.439 132.439 0 0 1 8.16 11.59 130.166 130.166 0 0 1 19.8 69.22Z" fill="#D37815"/><g opacity=".1" fill="#000"><path opacity=".1" d="M278.55 376.14c-1.65 4.4 1.1 4.58 1.28 6.41.18 1.83 0 5.31-5.31 10.62s-14.1 4.21-15.93 6.41-4.94 11.54-9.34 14.65c-4.4 3.11-5.12 1.28-11.35 2.56-6.23 1.28-11 9.34-12.82 13.19-1.82 3.85.37 10.25-4 10.44-4.37.19-6.4-9.34-10.43-14.47-4.03-5.13-5.31-9.71-6.59-15.75-1.28-6.04.73-18.68 0-23.62-.73-4.94-13.92-13.73-18.68-19.78-4.76-6.05-11.36-18.12-11-22.15a16.406 16.406 0 0 1 5.49-10.07c2.2-1.65 1.29-2.57 1.65-4 .36-1.43 2.2-1.83 2.57-3.66.37-1.83-1.1-7.33-2.93-8.24-1.83-.91-3.12 2.19-4.22 1.64-1.1-.55-4.39-4.39-5.67-4.76-1.28-.37-.92 2.38-2.75-1.1s-2.75-12.26-4.21-13.73c-1.46-1.47-2.56 2.56-6 0s-4.95-7.51-6.41-8.24c-1.46-.73-3.48.18-5-2.75s1.33-8.24 0-7.69c-1.33.55-4.17 4.76-4.9.74-.73-4.02 3.66-17.58 2.93-24.91-.73-7.33 1.83-15 7-21.24 0 0 .73-4 1.46-6.59s16.48-12.82 18.31-15.75c.77-1.22 1-3.14 1.3-5.21a130.13 130.13 0 0 1 77.41-25.37c3.587 0 7.137.143 10.65.43.12.17.25.33.37.49 1.59 2 3.3 3.29 7.94 5 4.64 1.71 5.73 3.91 4.76 5.74-.97 1.83-2.57 2.2-4.4 2.32-1.83.12-3.54-.86-5.49.37-1.95 1.23-3.91 7.81-6.47 8.17-2.56.36-7.08-5.86-8.06-7.69-.98-1.83 2.2-5.74.7-7.57-1.5-1.83-4.12-1.46-8.27-1.83-4.15-.37-13.79 1.23-13.43 2.81.36 1.58 14.16-.24 14.53 2.93.37 3.17-10.13 8.55-12 8.06-1.87-.49-4.28-3.66-7-4-2.72-.34-4.89 1.83-6.57 2.08-1.68.25-3.68-1.84-6.25-1.35s-3.17 2.69-4.52 3.54c-1.35.85-4.52.78-4.9 2.78-.38 2 4 3.05 5.13 4.27 1.13 1.22-1.35 5.37-.25 6.23 1.1.86 7.94-5.13 9.65-6.59s3.17-7.82 6.83-7.69c3.66.13 4.89 6.34 6.11 6.95 1.22.61 3.91-1.46 7.93-.61s6.84 9.65 7.57 12.33c.73 2.68 2.44 5.38 1 6.47-1.44 1.09-8.06-.73-8.91-2.44-.85-1.71 4.39-4.27 4-4.88-.39-.61-3.42-1.47-5-.51s-2.32 2.95-4 3.44c-1.68.49-6.22-4.64-7.44-3.18-1.22 1.46 1.22 6.11 2.44 7.21 1.22 1.1 5.73 1.7 6.1 2.93.37 1.23-3 3.9-7.2 3.66-4.2-.24-7.57-3.42-9.16-2.08-1.59 1.34-.73 4.89-1.83 6.11-1.1 1.22-7.08.36-10 3.54s-4.27 7.93-7.2 10.62c-2.93 2.69-4.27-.74-8.18 3.05S185 267 184.92 269.94c-.08 2.94 0 5.25-1 4.88-1-.37-2.33-2.93-2.69-4.52-.36-1.59.85-4.27.85-5.24 0-.97-5.61-6-8.91-6.48-3.3-.48-6.23 2.2-8.66 4.15-2.43 1.95-6.84 1.59-8.43 3.18-1.59 1.59-2.81 15.63-1.59 18.92 1.22 3.29 2.81 3.3 6.72 1.59 3.91-1.71 1.71-5 4-4.28a5.471 5.471 0 0 1 3.54 5.13c0 2-4.64 6.59-4 7.94.64 1.35 4.64-.25 6.59.36 1.95.61 2.93 1.83 2.32 6.84-.61 5.01-.24 8.91 2.69 10.56 2.93 1.65 4.57-2.38 5.86-1.83 1.29.55 3.11 3.48 4.94 3.29 1.83-.19.91-1.83 4.39-2.93 3.48-1.1 2.2-1.83 2.93-4s2.93-4 5.31-2.93c2.38 1.07.74 2.74.92 4.57.18 1.83 4.39 2 7.69 3.12 3.3 1.12 5.13 0 11.72 2.19 6.59 2.19 7 8.79 9.7 9.89 2.7 1.1 11.91-.73 18.5 4s4.76 13.55 8.06 16.11c3.3 2.56 15.56 6.05 20.32 7 4.76.95 5.49-2.38 9.34-1.46 3.85.92 6 2 7.32 7.32 1.16 4.69-13.15 14.44-14.8 18.83Z"/><path opacity=".1" d="M180.16 282.51c.12 1 3.17 1.47 6.84 3.54 3.67 2.07 5 8.18 6.95 8.06 1.95-.12 1.35-2.93 2.08-3.66s1.95-2.32 0-3.91c-1.95-1.59-3.85-5-7.42-5.49-3.57-.49-4.18-2-5.76-1.83a2.764 2.764 0 0 0-2.658 2.088c-.099.393-.11.804-.032 1.202ZM200.3 292.77c-.54 1.49 0 2.56 3.91 3.54s7.57-1 6.35-1.77c-1.22-.77-3.06-.43-2.32-1.77.74-1.34.48-3.3-2.69-2.93-3.17.37-4.76 1.58-5.25 2.93ZM214 293.18c-1.33.19-2.07 2.52-.73 4 1.34 1.48 1.35 1.22 2.93 0s4-1.83 3.42-3.05c-.58-1.22-4.3-1.13-5.62-.95ZM224.6 298.17c.59-1.83 3.66 0 5 1.92 1.34 1.92.73 4.76 0 6.84s-1.22 4.51-2.93 3.54c-1.71-.97.12-3.91-.12-5.62s-2.44-5.18-1.95-6.68ZM277.21 196.33c-.64 1.53 2.32 2.07 4 3 1.68.93 3.05 1.58 4 0 .95-1.58-.37-3.42-1.71-3.79-1.34-.37-5.68-.68-6.29.79ZM300.28 210.61c1.13 1.19 3.05 1 4.4 2.68 1.35 1.68.85 4.64 2.56 5.5 1.71.86 2.93 0 3.05-1.22.12-1.22-2.44-4.28-2.2-4.89.24-.61 3.54.86 4.28 2.69.74 1.83-.74 4.39 1 4.88 1.74.49 1.35-1.71 2.08-2.19s2.32-.25 2.2-1.71c-.12-1.46-2.08-4.64-3.67-5.74-1.59-1.1-2.8-2.32-5.49-2.93-2.69-.61-5.25-.12-6.59 1-1.34 1.12-2.31 1.2-1.62 1.93Z"/><path opacity=".1" d="M353.1 233.62a2.2 2.2 0 0 1-.69 1.28c-2.56 1.83-5.62-4.52-9.16-5.73-3.54-1.21-5.12-5.74-5.86-4.77-.74.97-.49 2.32-1.59 3.91-1.1 1.59-2.68 1.22-3.41 4.27s3.41 8.67 2.44 10.5c-.97 1.83-2.2 1.22-4.15 1.1-1.95-.12-1.59 1.59-4.15.85-2.56-.74-.37-3.9-4.4-7.69-4.03-3.79-5.37-4.51-4.51-6.22.86-1.71-.37-4.15 1.46-4.4s3.3 2.45 4.52 3.18c1.22.73 2.81-1.47 2.93-3.42.12-1.95-4.28-4.64-5.86-6.16-1.58-1.52-1.71-7-1.1-8.13.61-1.13 2.44-.73 2.93-3.41.29-1.58-2.21-4.22-4.32-6.12a131.184 131.184 0 0 1 34.92 30.96ZM371.33 343.06c.36-3.91-1.59-4.15.36-11.35 1.95-7.2-2.07-14.9-3.53-16.48s-4.64-1.1-7.21.49c-2.57 1.59-.73 2.8-2.44 3.41-1.71.61-3.42-.36-5-.24s-3.06 4.15-6.47 4c-3.41-.15-5.62-5-8.18-8.49-2.56-3.49-7.82-5.67-9.52-9.95-1.7-4.28 1.58-10.86.85-15.87-.73-5.01-4-3.9-4.64-6.71-.64-2.81.49-1.46 1.34-4.15.85-2.69-1-4.15.74-8.79 1.74-4.64 4.76-7 4-9-.76-2-3.06-5.5-3.18-7.93-.12-2.43 2.32-2.33 7-5.75s5.86-3.17 9.4-1.95a51.09 51.09 0 0 0 7.81 2.2c2.08.36 4.89 5.74 5.74 5.49.85-.25 1-1.83 1.34-4.15a5.245 5.245 0 0 1 1.53-2.63 130.828 130.828 0 0 1-5.17 146.08c12.45-19 14.9-44.29 15.23-48.23Z"/></g><path opacity=".1" d="M351.61 397.11a130.759 130.759 0 0 1-117.039 47.129A130.75 130.75 0 0 1 250.32 183.69c3.59 0 7.14.15 10.66.43.967.067 1.937.157 2.91.27a119.79 119.79 0 0 0-90.048 57.958A119.8 119.8 0 0 0 351.61 397.11Z" fill="#000"/><path opacity=".3" d="M381.06 314.43a130.09 130.09 0 0 1-25 76.86 131.377 131.377 0 0 1-47 39.93 132.141 132.141 0 0 0 41.24-36.95 131.476 131.476 0 0 0-30.886-185.006 131.48 131.48 0 0 0-75.424-23.804 131.485 131.485 0 0 0-31.58 3.82 130.355 130.355 0 0 1 37.91-5.59c3.59 0 7.14.15 10.66.43a129.92 129.92 0 0 1 57.2 18.54 131.353 131.353 0 0 1 34.92 31 127.259 127.259 0 0 1 8.15 11.6 130.004 130.004 0 0 1 19.81 69.17Z" fill="#fff"/><g opacity=".5" fill="#fff"><path opacity=".5" d="M137.85 268.35a2.87 2.87 0 0 0-3.92-1.13c-2.26 1-3.26 3.47-3.55 5.85a4.483 4.483 0 0 0 0 3.15 2.392 2.392 0 0 0 2.492 1.197c.324-.055.633-.177.908-.357 1.4-.84 2.34-2.7 3-4.11.66-1.41 1.76-3.14 1.07-4.6ZM141.79 258.19a2.145 2.145 0 0 0-2.41-.9 2.466 2.466 0 0 0-1.64 1.9c-.01.096-.01.194 0 .29a2.712 2.712 0 0 0-.57 2.22 2.164 2.164 0 0 0 1.626 1.6 2.16 2.16 0 0 0 2.154-.75c.93-1.03 1.59-3.07.84-4.36ZM143 265.11a2.01 2.01 0 0 0-1.45.59 1.395 1.395 0 0 0-.46 1.12c-.147.24-.252.504-.31.78a1.456 1.456 0 0 0 .64 1.57 1.772 1.772 0 0 0 1.98-.006c.194-.131.361-.299.49-.494a3.347 3.347 0 0 0 .7-2 1.62 1.62 0 0 0-1.59-1.56ZM147.87 250.32c-.43.33-1 .62-1.2 1.13a1.939 1.939 0 0 0-.17.69 2.766 2.766 0 0 0-.32 1.19 1.357 1.357 0 0 0 1.7 1.3 3.122 3.122 0 0 0 2.17-3.06c-.05-.99-1.26-1.93-2.18-1.25ZM176.05 219.05a4.62 4.62 0 0 0-3.36 1.28c-.255.218-.49.459-.7.72a4.277 4.277 0 0 0-.64.57c-.8.9-1.19 2.45-.23 3.4.96.95 2.42.17 3.4-.5a7.514 7.514 0 0 0 2.67-2.73c.59-1.16.31-2.52-1.14-2.74ZM188.47 212a10.733 10.733 0 0 0-5.17 1.87l-.75.55h-.07c-1 .71-2.7 1.9-2.48 3.37a2.085 2.085 0 0 0 1.845 1.556c.286.023.574-.013.845-.106a23.69 23.69 0 0 0 5.77-2.37c1.14-.64 2.59-1.7 2.56-3.15-.03-1.45-1.31-1.83-2.55-1.72ZM182.54 221.64a2.703 2.703 0 0 0-2.7.68 1.781 1.781 0 0 0-.91 1.14 1.552 1.552 0 0 0 1 1.73 2.148 2.148 0 0 0 2-.32c.55-.36 1.32-.78 1.51-1.45a1.5 1.5 0 0 0-.9-1.78ZM170.61 229.41a2.557 2.557 0 0 0-1.43-.21 2 2 0 0 0-1.8 2.83 1.792 1.792 0 0 0 2.05.87 3.13 3.13 0 0 0 1.68-1.58 1.398 1.398 0 0 0-.5-1.91ZM171.33 406.39a1.82 1.82 0 0 0-2.47.62 1.88 1.88 0 0 0 .45 2.31c.109.171.233.331.37.48a2.74 2.74 0 0 0 1.8 1 1.838 1.838 0 0 0 1.88-1.29c.41-1.44-.86-2.51-2.03-3.12ZM181 408.25c-1.2-1.31-3.93-2.67-5.15-.72v.07c-.069.087-.13.181-.18.28a1.505 1.505 0 0 0-.1.69 3.07 3.07 0 0 0 .75 2.06c.377.477.879.84 1.45 1.05.293.255.633.452 1 .58a2.2 2.2 0 0 0 2.73-1 2.578 2.578 0 0 0-.5-3.01ZM178.89 414.86a1.585 1.585 0 0 0-.803-1.346 1.59 1.59 0 0 0-1.567-.004 1.249 1.249 0 0 0-.45 1.72c.15.216.317.42.5.61a1.422 1.422 0 0 0 2.32-1v.02ZM184.23 416a.996.996 0 0 0-.72-.71h-.06.08a1 1 0 0 0-1.1.22 1.076 1.076 0 0 0-.213 1.152 1.085 1.085 0 0 0 .963.668 1.083 1.083 0 0 0 .847-.411 1.079 1.079 0 0 0 .203-.919ZM369.49 294.05c-.2-2.83-.68-7.41-3.38-9a1.582 1.582 0 0 0-1.72.2c-2.09 1.22-1.38 4.94-1.19 6.69.24 2.32.13 6.37 3.1 7 2.97.63 3.33-2.87 3.19-4.89ZM365.77 278.58a3.007 3.007 0 0 0-.91-2.2 1.761 1.761 0 0 0-2.37.08c-1.14 1.11-.86 3.22 0 4.42a1.542 1.542 0 0 0 1.017.699 1.521 1.521 0 0 0 1.453-.519c.099-.069.19-.15.27-.24a3.06 3.06 0 0 0 .54-2.24ZM368.17 301.8c-1.43-.34-2.25.65-2.58 1.92a8.323 8.323 0 0 0 .09 4.75c.38 1.09 1.07 2.21 2.38 2.18a2.54 2.54 0 0 0 2.28-2.26c.4-1.98.38-5.98-2.17-6.59ZM363.66 299.64a1.644 1.644 0 0 0-1.37-.42.725.725 0 0 0-.58.13c-2.07.52-1.65 4.38.26 5 2.59.87 3.18-3.35 1.69-4.71ZM362 362.24c-1.18.27-1.79 1.42-2.26 2.43a15.8 15.8 0 0 0-.63 1.48c-.53 1.09-.75 2.22 0 3.1a2.51 2.51 0 0 0 2.94.61 4.406 4.406 0 0 0 1.311-1.127 4.4 4.4 0 0 0 .779-1.543c.59-1.69.72-5.6-2.14-4.95ZM357.94 372.21a2.58 2.58 0 0 0-2.27 1.65c-.13.24-.25.48-.36.74a2.381 2.381 0 0 0-.47 1.89 1.483 1.483 0 0 0 .72 1.22c.395.335.902.51 1.42.49a2.586 2.586 0 0 0 2.1-1.59 5.85 5.85 0 0 0 .72-2.28 2 2 0 0 0-1.86-2.12ZM354.66 367.12a4.33 4.33 0 0 0-1.21 2.45 1.54 1.54 0 0 0 .71 1.85c2 1 3-1.78 3-3.25a1.505 1.505 0 0 0-.923-1.304 1.503 1.503 0 0 0-1.577.254ZM366.42 357a1.449 1.449 0 0 0-1.39 1.18 2.604 2.604 0 0 0-.34.51 1.56 1.56 0 0 0 .55 2.05 1.414 1.414 0 0 0 1.37 0 2.826 2.826 0 0 0 1.22-2.33 1.412 1.412 0 0 0-1.41-1.41Z"/></g><path opacity=".7" d="M276.84 284A282.71 282.71 0 0 0 338 271.53a9.35 9.35 0 0 0-6.28-1.48s-6.4-12.92-17.29-10.51c-10.13 2.18-14.25 12-14.24 12.08.01.08-4.73-3.33-9.27-.79-4.54 2.54-7.11 8.27-7.11 8.27s-5.11 2.67-6.97 4.9Z" fill="#fff"/><path d="M189.51 303.43a282.628 282.628 0 0 1-74.58-28.18c0-.05-.05-3.69 9.88.63 0-.05 9-11.89 23.33-4 8.92 4.85 13.57 16.06 13.57 16.08 0 .02 6.83-5.42 12.36-2.39 5.53 3.03 8.83 12 8.83 12s5.74 3.53 6.61 5.86ZM387.45 290.54a282.754 282.754 0 0 1-74.59 28.19c0-.05 0-3.69 10.6-7.14 0 0 9.7-19 24.12-21.94 9-1.89 13.46 5.87 13.47 5.9.01.03 6.67-10.55 11.95-11.55 5.28-1 8.32 5.53 8.33 5.54.01.01 5.32-.69 6.12 1ZM261 252a283.126 283.126 0 0 1-53.37-3.2s5-2.8 7.23-2.52c2.23.28 8.74-10.82 17.1-9.75 8.36 1.07 12.8 10 12.8 10s10.18-2.29 16.24 5.47ZM235.54 437.09a283.547 283.547 0 0 1-53-8s4.93-2.35 7.14-1.87 8.63-10 16.92-8.21c8.29 1.79 12.73 11.12 12.72 11.14-.01.02 10.15-1.33 16.22 6.94Z" fill="#fff"/><path opacity=".7" d="M181.84 368.24a281.67 281.67 0 0 1-43.81-15 5.997 5.997 0 0 1 4.48-.61s4.57-9 12.36-6.26c7.25 2.53 10.2 10.21 10.2 10.23a6.354 6.354 0 0 1 6.64.37c3.26 2.36 5.11 6.86 5.11 6.86s3.68 2.54 5.02 4.41ZM287.54 418a282.564 282.564 0 0 0 60.76-14.84 8.92 8.92 0 0 0-6.22-1.24s-6.34-12.67-17.14-9.83c-10.06 2.57-14.16 12.58-14.15 12.62.01.04-4.7-3.15-9.22-.44-4.52 2.71-7.08 8.55-7.08 8.55s-5.1 2.87-6.95 5.18Z" fill="#fff"/><path d="M335.16 243.45c-.55-2.4-36.63-60.88-39.35-62.2-.31-.17-20 11.21-20 11.21-.86.94-35.23-9.81-35.23-9.81l-4.38 42.28 64 4.73s8.15 5.89 15.65 10.78a95.637 95.637 0 0 0 9.9 6c3.16 1.15 9.98-.6 9.41-2.99Z" fill="#774442"/><path d="M325.79 246.47c-1.2-.43-5.29-3-9.9-6-7.49-4.89-15.64-10.79-15.64-10.79L286 228.6l-18.84-38c4.8 1.33 8.4 2.2 8.67 1.9 0 0 19.7-11.38 20-11.2 2.72 1.31 38.8 59.78 39.35 62.19.55 2.41-6.27 4.11-9.39 2.98Z" fill="#fff"/><path d="M335.53 243.56c-.58-2.47-36.86-60.93-39.65-62.28-1.05-.52-10.61 4.19-20.08 11.18l23.43 37.66s23.45 15.44 26.68 16.6c3.23 1.16 10.21-.72 9.62-3.16Z" fill="#A6A6A6"/><path d="M332.67 244.17c-6.32-9.65-30.9-49.17-36.42-59.19 0-.08 0-.11.06 0 6.48 9.43 30.74 49.15 36.52 59.13.17.17-.02.26-.16.06ZM321.47 244.26a9.23 9.23 0 0 1-1.24-7.35 8.917 8.917 0 0 1 3.87-5.43c.06 0 .13.07.07.12a10.693 10.693 0 0 0-2.58 12.58c.011.016.014.035.011.054a.073.073 0 0 1-.085.057.074.074 0 0 1-.046-.031ZM302.12 232.58c-2.49-3.88-3.93-9.29-2.23-13.72.06-.17.31-.07.32.08a63.704 63.704 0 0 0 2.43 13.41.296.296 0 0 1-.024.194.288.288 0 0 1-.496.036ZM305.18 234.88c-2.49-3.89-3.93-9.3-2.23-13.72.06-.17.31-.08.32.08a63.908 63.908 0 0 0 2.43 13.41.296.296 0 0 1-.024.194.288.288 0 0 1-.496.036ZM308.24 237.18c-2.49-3.89-3.93-9.3-2.23-13.73.06-.17.31-.07.32.08a63.704 63.704 0 0 0 2.43 13.41.288.288 0 0 1-.158.342.293.293 0 0 1-.2.016.293.293 0 0 1-.162-.118ZM311.3 239.47c-2.49-3.89-3.93-9.29-2.23-13.72.06-.17.3-.08.32.08a63.768 63.768 0 0 0 2.43 13.41.296.296 0 0 1-.024.194.288.288 0 0 1-.496.036ZM288.49 193.25c-2.71-4.41 4.13-8.64 6.85-4.22 2.72 4.42-4.12 8.64-6.85 4.22Z" fill="#263238"/><path d="M299.84 239.44c1.42-3.81 1.13-8.11 1.33-12.1a.564.564 0 0 0-.49-.539.56.56 0 0 0-.26.029c0-.06-.11-.11-.19-.05a24.223 24.223 0 0 0-7.82 9.79c-1 2.28-1 5.78 1.87 6.75 2.72.91 4.72-1.66 5.56-3.88Zm-3.14 2.19c-4.51 2.26-3.62-3.62-2.85-5.28a25.845 25.845 0 0 1 1.75-3.07c1.33-2.07 2.93-3.91 4.44-5.82-.21 2-.26 3.91-.41 5.87-.17 2.34-.44 7.06-2.93 8.3Z" fill="#263238"/><path d="M289.09 214.41c-2.37 1.89-1.12 5.16.56 7a24.294 24.294 0 0 0 10.71 6.49c.018.006.037.008.056.006a.115.115 0 0 0 .089-.062.129.129 0 0 0 .015-.054.57.57 0 0 0 .54-.74c-1.57-3.68-2.78-7.81-5.42-10.9-1.55-1.82-4.31-3.54-6.55-1.74Zm8.46 7.53c.81 1.79 1.53 3.61 2.41 5.37a72.324 72.324 0 0 1-6.18-3.94 25.43 25.43 0 0 1-2.7-2.28c-1.29-1.29-4.16-6.5.86-5.94 2.76.31 4.64 4.65 5.61 6.79Z" fill="#263238"/><path d="M251.54 174s-53.16-26.31-77.2-26.75c-28.62-.52-51.87 32.77-17.54 58.3 30.35 22.57 128.11 23.93 128.11 23.93l-21.6-41.69a208.54 208.54 0 0 0-62-13.45l49 11.5 1.23-11.84Z" fill="#37474F"/><path d="M250.3 182.11c-4.2-1.2-8.48-2.06-12.75-3s-8.62-1.73-13-2.51a263.21 263.21 0 0 0-26.09-3.44c-.82-.06-1.64-.1-2.46-.15a4.551 4.551 0 0 0-.52-.19c-.41-.14-.82-.28-1.23-.4-.78-.23-1.56-.42-2.34-.62-1.63-.41-3.27-.74-4.88-1.2-.1 0-.16.12-.06.15 1.62.52 3.2 1.15 4.82 1.67l1.4.44c-3.22-.14-6.44-.19-9.66-.21-.1 0-.12.16 0 .16 4.37.16 8.75.55 13.1 1 4.35.45 8.63 1 12.92 1.65 8.69 1.34 17.34 2.95 26 4.69 4.83 1 9.67 2.05 14.55 2.72.47.13.67-.63.2-.76ZM275 227.29c-1.32-2.65-2.4-5.44-3.58-8.16l-3.54-8.13c-2.38-5.43-11-23.73-11.94-25-.06-.09-.2 0-.18.08.36 1.39 5.7 13.47 6.94 16.17 2.47 5.4 5.11 10.71 7.69 16.06.74 1.52 1.51 3 2.26 4.55.75 1.55 1.57 3 2.24 4.57.04.02.19-.05.11-.14Z" fill="#263238"/><path d="M147.35 237.68c.77-2.34 42.24-57.13 45.07-58.18.33-.14 18.86 13.05 18.86 13.05.77 1 36-6.43 36-6.43l.35 42.51-64.18-1.37s-8.67 5.1-16.6 9.25a94.225 94.225 0 0 1-10.43 5.06c-3.24.83-9.86-1.57-9.07-3.89Z" fill="#774442"/><path d="M156.39 241.57c1.24-.31 5.55-2.48 10.43-5.06 7.93-4.15 16.6-9.25 16.6-9.25l14.28.31 22.36-36.09c-4.91.87-8.57 1.39-8.81 1.07 0 0-18.53-13.2-18.86-13.05-2.83 1.05-44.29 55.84-45.07 58.18-.78 2.34 5.86 4.72 9.07 3.89Z" fill="#fff"/><path d="M147 237.75c.82-2.4 42.47-57.15 45.38-58.24 1.1-.41 10.17 5.19 18.93 13l-26.89 35.27s-24.82 13.14-28.14 14c-3.32.86-10.12-1.63-9.28-4.03Z" fill="#A6A6A6"/><path d="M149.76 238.63c7.21-9 35.43-46 41.87-55.46.05-.08 0-.12-.06 0-7.34 8.77-35.26 46-42 55.4-.1.15.04.25.19.06ZM160.9 239.79a9.273 9.273 0 0 0 1.94-7.2 8.998 8.998 0 0 0-3.34-5.78c-.06 0-.14.06-.09.11a10.703 10.703 0 0 1 1.38 12.78.07.07 0 0 0 .01.1.07.07 0 0 0 .1-.01ZM181.28 230c2.84-3.64 4.78-8.88 3.52-13.45-.05-.18-.3-.11-.33 0a63.261 63.261 0 0 1-3.7 13.12.303.303 0 1 0 .51.33ZM178 232c2.85-3.63 4.79-8.88 3.52-13.45-.05-.17-.3-.1-.32.05a63.874 63.874 0 0 1-3.7 13.12.29.29 0 0 0 .5.28ZM174.75 234c2.84-3.64 4.79-8.88 3.52-13.45-.05-.18-.3-.11-.33.05a63.804 63.804 0 0 1-3.69 13.12.29.29 0 0 0 .5.28ZM171.49 236c2.84-3.63 4.78-8.88 3.52-13.45 0-.17-.3-.1-.33.05a63.805 63.805 0 0 1-3.68 13.1.29.29 0 0 0 .49.3ZM198.57 192.14c3.12-4.14-3.29-9-6.42-4.86s3.29 8.99 6.42 4.86Z" fill="#263238"/><path d="M188.06 241.42c2.95-.68 3.23-4.17 2.5-6.54a24.171 24.171 0 0 0-6.85-10.48.128.128 0 0 0-.1-.047.13.13 0 0 0-.1.047.571.571 0 0 0-.8.44c-.18 4-.86 8.24.19 12.17.61 2.32 2.36 5.06 5.16 4.41ZM183.68 231c0-2 .18-3.92.15-5.89a70.941 70.941 0 0 1 3.86 6.22 25.888 25.888 0 0 1 1.46 3.22c.61 1.72.94 7.67-3.34 5-2.36-1.5-2.18-6.23-2.13-8.55Z" fill="#263238"/><path d="M189.29 214.24c-2.93 2.82-4.53 6.81-6.43 10.33a.553.553 0 0 0 .031.507.557.557 0 0 0 .429.273.117.117 0 0 0 .041.105.108.108 0 0 0 .051.026.126.126 0 0 0 .058-.001 24.275 24.275 0 0 0 11.28-5.48c1.84-1.65 3.4-4.78 1.22-6.89-2.18-2.11-4.97-.52-6.68 1.13Zm3.78-.63c5-.09 1.69 4.83.29 6a28.95 28.95 0 0 1-2.91 2c-2.09 1.29-4.33 2.26-6.52 3.33 1-1.67 1.93-3.41 2.91-5.12 1.16-2.02 3.45-6.16 6.23-6.21Z" fill="#263238"/><path d="M249.22 173.09S304 158 332.88 162.16c28.33 4.06 39.14 40 11 58.61-30.75 20.36-144.47 10.29-144.47 10.29l25.35-43s39-8.21 74.36-7l-49.89 6.8-.01-14.77Z" fill="#37474F"/><path d="M223.07 190.87c.022-.072.039-.145.05-.22v-.18c0-.14.08-.28.11-.41.09-.29.19-.57.3-.85.11-.28.23-.54.35-.81.142-.264.303-.518.48-.76h.2c4.29-.8 33.43-5 37.76-5.47 4.33-.47 8.75-.9 13.13-1.27a259.39 259.39 0 0 1 26.3-.94c.82 0 1.64 0 2.46.07.177-.054.358-.097.54-.13.42-.1.84-.21 1.27-.29.79-.15 1.58-.27 2.38-.39 1.66-.25 3.32-.43 5-.74.021 0 .041.008.056.023a.082.082 0 0 1 .024.057.082.082 0 0 1-.024.057.079.079 0 0 1-.056.023c-1.66.37-3.29.85-4.95 1.21l-1.44.3c3.22.17 6.43.42 9.64.71.1 0 .1.17 0 .16-4.37-.26-8.77-.29-13.14-.21-4.37.08-8.69.17-13 .41-8.78.51-17.55 1.29-26.28 2.21-4.91.51-34.62 4.85-39.54 5h-.06a2.01 2.01 0 0 1-.14.34c-.14.27-.27.53-.42.79-.15.26-.28.5-.44.75l-.24.35-.12.18a.82.82 0 0 0-.13.19c.04.02-.14-.03-.07-.16Z" fill="#263238"/><path d="M208.55 228.45c1.57-2.51 2.91-5.19 4.34-7.78 1.43-2.59 2.88-5.19 4.33-7.78 2.89-5.18 13.24-22.59 14.26-23.8.07-.08.2 0 .17.1-.49 1.34-7 12.87-8.44 15.44-3 5.14-6.1 10.18-9.18 15.25-.88 1.45-1.79 2.88-2.69 4.32-.9 1.44-1.84 2.86-2.66 4.34-.05.09-.19 0-.13-.09ZM257.44 55.08a10.73 10.73 0 0 1 6.18 8.56c.223 2.439.747 4.84 1.56 7.15a25.387 25.387 0 0 0 4 6.17 19.11 19.11 0 0 1 4.7 10.21c.61 4.414.356 8.904-.75 13.22a36.34 36.34 0 0 0 0-13.75c-.87-4.56-3.38-7.34-6-10.72a19.658 19.658 0 0 1-3.94-9.22c-.31-2.08-.35-4.26-1.2-6.2-1-2.31-2.93-3.73-4.83-5-.16-.15.02-.5.28-.42ZM223.48 81c2.26-3.41 4.63-6.33 5.89-10.49 1.15-3.78 1.75-7.75 2.92-11.53 0-.06.11 0 .09 0-1.78 6.7-2 13.39-5.78 19.13-2.07 3.12-4.15 6-5.47 9.71a34.63 34.63 0 0 0-1.88 12c0 .15-.17.15-.19 0A28.44 28.44 0 0 1 223.48 81Z" fill="#263238"/><path d="M254.48 53.71c.52 1.29 8.11 2.29 11.46-2.82 3.35-5.11-1-11.22-7-8.3-3.83 1.84-5.64 8.32-4.46 11.12Z" fill="#263238"/><path d="M266.08 44a8.35 8.35 0 0 0-4.87-2.63 5.05 5.05 0 0 0-4.77 1.71 10.212 10.212 0 0 0-2.17 5 15.586 15.586 0 0 0-.23 2.82c-.029.962.12 1.922.44 2.83a7.008 7.008 0 0 1-1-2.78c-.148-.993-.175-2-.08-3a9.86 9.86 0 0 1 2.2-5.6 5.798 5.798 0 0 1 2.62-1.74 5.94 5.94 0 0 1 3.1-.08 7.392 7.392 0 0 1 4.76 3.47Z" fill="#263238"/><path d="M233.62 98.84c-15.85 10.06-44.51 31.93-47.9 46.26-1.94 8.2 10.18 13.41 11.6 13.19 15.05-2.3 33.88-36.51 42.73-51.78 8.85-15.27-1.28-10.93-6.43-7.67Z" fill="#774442"/><path d="m198.85 124.08 20.93 15.6s17.86-24.05 22.85-35.67c4.99-11.62.07-12-12-4.1s-31.78 24.17-31.78 24.17Z" fill="#D37815"/><path d="M244.18 95.5a.727.727 0 0 1-.46-.51c.19.132.348.307.46.51Zm-23.9 16.21a.714.714 0 0 0-.656.438.705.705 0 0 0 .154.774.709.709 0 1 0 .502-1.212Zm12.07 0a.708.708 0 0 0-.696.849.709.709 0 1 0 .696-.849Zm-5.91-8.92-.83.58a.482.482 0 0 0 0 .12.724.724 0 0 0 .41.66.724.724 0 0 0 .771-.097.716.716 0 0 0 .023-1.086.716.716 0 0 0-.364-.177h-.01Zm11.95 0a.724.724 0 0 0-.673.44.721.721 0 0 0 .525.987.721.721 0 0 0 .858-.717.721.721 0 0 0-.204-.509.703.703 0 0 0-.506-.211v.01Zm-30.18 26.51a.708.708 0 0 0-.696.849.709.709 0 1 0 .696-.849Zm12.07 0a.714.714 0 0 0-.656.438.705.705 0 0 0 .154.774.709.709 0 1 0 .502-1.212Zm-17.45-8.46-1 .85a.699.699 0 0 0 .654.055.703.703 0 0 0 .436-.665.52.52 0 0 0-.09-.24Zm11.41-.47a.724.724 0 0 0-.673.44.721.721 0 0 0 .525.987.721.721 0 0 0 .858-.717.71.71 0 0 0-.71-.71Zm12.08 0a.724.724 0 0 0-.673.44.721.721 0 0 0 .525.987.721.721 0 0 0 .858-.717.71.71 0 0 0-.71-.71Z" fill="#fff"/><path opacity=".1" d="M242.62 104c-5 11.62-22.84 35.67-22.84 35.67l-9.64-7.19 34.36-36c.24 1.52-.36 4-1.88 7.52Z" fill="#000"/><path d="M204 121.27a182.471 182.471 0 0 0 17.39 13.47c.08 0 .16-.07.09-.13-1.6-1.12-10.08-8.25-17.39-13.48-.09-.06-.15.07-.09.14Z" fill="#263238"/><path d="M225.08 139.39 217 171.84a224.698 224.698 0 0 0 71.07.91s-12-59.49-26.49-75.28c-7.27-7.89-15.81-7.3-21.25-1.78-1.33 1.39-15.72 21.06-17.45 29.31-1.51 7.36 2.2 14.39 2.2 14.39Z" fill="#D37815"/><path d="M245.14 94.83a.72.72 0 1 1-.72-.71.714.714 0 0 1 .665.436c.036.087.055.18.055.274Zm11.36-.71a.707.707 0 0 0-.656.438.708.708 0 0 0 1.246.666.71.71 0 0 0-.59-1.104Zm-24.15 17.59a.714.714 0 0 0-.656.438.705.705 0 0 0 .154.774.709.709 0 1 0 .502-1.212Zm12.07 0a.714.714 0 0 0-.649.445.709.709 0 1 0 .649-.445Zm12.08 0a.708.708 0 0 0-.696.849.709.709 0 1 0 .696-.849Zm12.07 0a.714.714 0 0 0-.656.438.705.705 0 0 0 .154.774.709.709 0 1 0 .502-1.212Zm-30.18-8.93a.724.724 0 0 0-.673.44.721.721 0 0 0 .525.987.721.721 0 0 0 .858-.717.71.71 0 0 0-.71-.71Zm12.07 0a.724.724 0 0 0-.673.44.721.721 0 0 0 .525.987.721.721 0 0 0 .858-.717.71.71 0 0 0-.71-.71Zm12.07 0a.725.725 0 0 0-.666.447.717.717 0 0 0 .16.786.717.717 0 0 0 .788.149.715.715 0 0 0 .438-.672.717.717 0 0 0-.212-.506.709.709 0 0 0-.508-.204Zm-30.18 26.52a.714.714 0 0 0-.656.438.705.705 0 0 0 .154.774.709.709 0 1 0 .502-1.212Zm12.07 0a.714.714 0 0 0-.649.445.709.709 0 1 0 .649-.445Zm12.08 0a.708.708 0 0 0-.696.849.709.709 0 1 0 .696-.849Zm12.07 0a.714.714 0 0 0-.656.438.705.705 0 0 0 .154.774.709.709 0 1 0 .502-1.212Zm-42.25-8.93a.724.724 0 0 0-.673.44.721.721 0 0 0 .525.987.721.721 0 0 0 .858-.717.71.71 0 0 0-.71-.71Zm12.07 0a.724.724 0 0 0-.673.44.721.721 0 0 0 .525.987.721.721 0 0 0 .858-.717.71.71 0 0 0-.71-.71Zm12.07 0a.724.724 0 0 0-.673.44.721.721 0 0 0 .525.987.721.721 0 0 0 .858-.717.71.71 0 0 0-.71-.71Zm12.07 0a.725.725 0 0 0-.666.447.717.717 0 0 0 .16.786.717.717 0 0 0 .788.149.715.715 0 0 0 .438-.672.717.717 0 0 0-.212-.506.709.709 0 0 0-.508-.204Zm11.37.75c.01.148.062.29.15.41l-.15-.41Zm-41.55 25.77a.714.714 0 0 0-.656.438.705.705 0 0 0 .154.774.709.709 0 1 0 .502-1.212Zm12.07 0a.714.714 0 0 0-.649.445.709.709 0 1 0 .649-.445Zm12.08 0a.708.708 0 0 0-.696.849.709.709 0 1 0 .696-.849Zm12.07 0a.714.714 0 0 0-.656.438.705.705 0 0 0 .154.774.709.709 0 1 0 .502-1.212Zm12.07 0a.714.714 0 0 0-.649.445.709.709 0 1 0 .649-.445ZM226.32 138a.724.724 0 0 0-.673.44.721.721 0 0 0 .525.987.721.721 0 0 0 .858-.717.71.71 0 0 0-.71-.71Zm12.07 0a.724.724 0 0 0-.673.44.721.721 0 0 0 .525.987.721.721 0 0 0 .858-.717.71.71 0 0 0-.71-.71Zm12.07 0a.724.724 0 0 0-.673.44.721.721 0 0 0 .525.987.721.721 0 0 0 .858-.717.71.71 0 0 0-.71-.71Zm12.07 0a.725.725 0 0 0-.666.447.717.717 0 0 0 .16.786.717.717 0 0 0 .788.149.715.715 0 0 0 .438-.672.717.717 0 0 0-.212-.506.709.709 0 0 0-.508-.204Zm12.08 0a.722.722 0 0 0-.454 1.193.722.722 0 0 0 .454.237.72.72 0 0 0 0-1.43Zm-54.33 26.52a.714.714 0 0 0-.656.438.705.705 0 0 0 .154.774.709.709 0 0 0 1.212-.502.721.721 0 0 0-.193-.528.716.716 0 0 0-.517-.222v.04Zm12.07 0a.714.714 0 0 0-.656.438.705.705 0 0 0 .154.774.709.709 0 0 0 1.212-.502.721.721 0 0 0-.193-.528.716.716 0 0 0-.517-.222v.04Zm12.07 0a.714.714 0 0 0-.649.445.709.709 0 1 0 1.369.265.714.714 0 0 0-.436-.695.695.695 0 0 0-.284-.055v.04Zm12.08 0a.708.708 0 0 0-.696.849.709.709 0 0 0 1.406-.139.721.721 0 0 0-.193-.528.716.716 0 0 0-.517-.222v.04Zm12.07 0a.714.714 0 0 0-.656.438.705.705 0 0 0 .154.774.709.709 0 0 0 1.212-.502.721.721 0 0 0-.193-.528.716.716 0 0 0-.517-.222v.04Zm12.07 0a.714.714 0 0 0-.649.445.709.709 0 1 0 1.369.265.714.714 0 0 0-.436-.695.695.695 0 0 0-.284-.055v.04Zm-54.32-8.93a.724.724 0 0 0-.673.44.721.721 0 0 0 .525.987.721.721 0 0 0 .858-.717.721.721 0 0 0-.193-.528.716.716 0 0 0-.517-.222v.04Zm12.07 0a.724.724 0 0 0-.673.44.721.721 0 0 0 .525.987.721.721 0 0 0 .858-.717.721.721 0 0 0-.193-.528.716.716 0 0 0-.517-.222v.04Zm12.07 0a.724.724 0 0 0-.673.44.721.721 0 0 0 .525.987.721.721 0 0 0 .858-.717.721.721 0 0 0-.193-.528.716.716 0 0 0-.517-.222v.04Zm12.07 0a.717.717 0 0 0-.705.864.717.717 0 0 0 .987.518.715.715 0 0 0 .438-.672.714.714 0 0 0-.436-.695.695.695 0 0 0-.284-.055v.04Zm12.08 0a.722.722 0 0 0-.454 1.193.722.722 0 0 0 .454.237.72.72 0 0 0 0-1.43Zm-48.29 17.59a.648.648 0 0 0-.37.11l.88.11a.688.688 0 0 0-.51-.26v.04Zm12.07 0a.72.72 0 0 0-.36 1.33l.61.05a.717.717 0 0 0 .421-.794.716.716 0 0 0-.681-.586h.01Zm12.07 0a.724.724 0 0 0-.673.44.721.721 0 0 0 .525.987.721.721 0 0 0 .858-.717.721.721 0 0 0-.193-.528.716.716 0 0 0-.517-.222v.04Zm12.07 0a.725.725 0 0 0-.666.447.717.717 0 0 0 .16.786.717.717 0 0 0 .788.149.715.715 0 0 0 .438-.672.714.714 0 0 0-.436-.695.695.695 0 0 0-.284-.055v.04Zm12.08 0a.71.71 0 0 0-.71.71.738.738 0 0 0 .21.52l1.06-.09a.713.713 0 0 0 .059-.742.71.71 0 0 0-.629-.398h.01Z" fill="#fff"/><path d="M250.27 137.42a71.769 71.769 0 0 0-10.53 1.36c-1.72.38-3.41.84-5.1 1.33-.85.25-1.69.47-2.54.68-.887.248-1.8.389-2.72.42a.056.056 0 0 0-.042.018.056.056 0 0 0-.018.042c0 .016.006.031.018.042a.056.056 0 0 0 .042.018c.865.065 1.734.065 2.6 0a19.217 19.217 0 0 0 2.49-.38c1.75-.37 3.48-.82 5.23-1.2 3.52-.78 7-1.56 10.61-2.08.16.01.13-.27-.04-.25ZM258.88 140.84a75.055 75.055 0 0 0-8.73-.72c-1.46 0-2.92 0-4.38.11-.7.05-1.39.1-2.09.17s-1.52.24-2.29.3c-.08 0-.08.13 0 .13.73 0 1.46 0 2.18.06H250.13c2.92 0 5.83 0 8.75.13.12.06.12-.16 0-.18Z" fill="#263238"/><path d="M265.5 98.84c20.12 13.23 44.51 31.93 47.9 46.26 1.94 8.2-10.18 13.41-11.6 13.19-15.05-2.3-33.87-36.51-42.73-51.78-8.86-15.27 1.33-11.02 6.43-7.67Z" fill="#774442"/><path d="m300.27 124.08-20.93 15.6S261.48 115.63 256.5 104c-4.98-11.63-.08-12 11.95-4.1s31.82 24.18 31.82 24.18Z" fill="#D37815"/><path d="M257.21 94.83a.71.71 0 0 1-1.42 0v-.07a2.901 2.901 0 0 1 1.37-.19.746.746 0 0 1 .05.26Zm11.36 16.88a.714.714 0 0 0-.656.438.705.705 0 0 0 .154.774.709.709 0 1 0 .502-1.212Zm12.07 0a.714.714 0 0 0-.649.445.709.709 0 1 0 .649-.445Zm-18.11-8.93a.725.725 0 0 0-.666.447.717.717 0 0 0 .16.786.717.717 0 0 0 .788.149.715.715 0 0 0 .438-.672.717.717 0 0 0-.212-.506.709.709 0 0 0-.508-.204Zm11.39.89a.712.712 0 0 0 .69.54h.05c-.25-.21-.49-.37-.74-.54Zm6.72 25.63a.714.714 0 0 0-.649.445.709.709 0 1 0 .649-.445Zm12.08 0a.706.706 0 0 0-.656.438.706.706 0 0 0-.054.272c-.01.07-.01.14 0 .21l1.07-.8a.665.665 0 0 0-.36-.12Zm-18.11-8.93a.722.722 0 0 0-.454 1.193.722.722 0 0 0 .454.237.72.72 0 0 0 0-1.43Zm12.07 0a.724.724 0 0 0-.673.44.721.721 0 0 0 .525.987.721.721 0 0 0 .858-.717.71.71 0 0 0-.71-.71Z" fill="#fff"/><path d="M295.1 121.27a181.199 181.199 0 0 1-17.39 13.47c-.08 0-.16-.07-.09-.13 1.6-1.12 10.08-8.25 17.39-13.48.09-.06.17.07.09.14ZM280.47 138.49c-.14 0-1.07.67-1.26.8-2.79-4-2.25-3-5.07-7l-4.14-5.82c-1.44-2-2.77-4.14-4.31-6.08a.061.061 0 0 0-.07.002.06.06 0 0 0-.021.031.059.059 0 0 0 .001.037 64.866 64.866 0 0 0 3.48 5.67c-.25-.28-.48-.56-.75-.83-.59-.59-1.18-1.19-1.72-1.83-.08-.1-.25 0-.17.12.52.61 1 1.24 1.47 1.89.47.65 1 1.26 1.49 1.88.49.62 1 1.15 1.57 1.7l.2.21c.77 1.16 1.52 2.33 2.32 3.47a59.003 59.003 0 0 0 5.58 7 11.603 11.603 0 0 0 1.49-1.19c.05 0-.03-.07-.09-.06Z" fill="#263238"/><path d="M311.52 147.43c-.48 4-5.75 12.53-23 24.46-3 2.05-22.25-18.15-18.85-19.95 4.28-2.27 12.77-9 14.1-9.42 11.23-3.52 28.86-4.26 27.75 4.91Z" fill="#774442"/><path d="M277.68 146.76a36.23 36.23 0 0 1 4.78-3.45 18.27 18.27 0 0 1 5.54-2.21 31.745 31.745 0 0 1 5.9-.58 22.192 22.192 0 0 1 5.86.62 39.13 39.13 0 0 0-5.83.12 49.424 49.424 0 0 0-5.72.81c-3.73.78-7.05 2.93-10.53 4.69Z" fill="#263238"/><path d="M288.06 164.86c-1.41 2.55-8.94 13.87-11.72 16.5-2.78 2.63-18.45-12-15.59-15.11.4-.45 3-8.11 6.67-12.33a22.494 22.494 0 0 1 5-4.13l15.64 15.07Z" fill="#774442"/><path d="M274.93 162.13c-2.49 3.71-7.89 9.47-13.07 11.65-4.06 1.7-13.45.85-14.36-1.73-1.2-3.36 2.44-3.54 6-3 1.3.18 6.3-1 7.24-2.77 1.26-2.36 5.44-8.91 5.44-8.91l8.75 4.76Z" fill="#774442"/><path d="M277.14 168.21c-2.33 3.81-7.49 9.79-12.58 12.17-4 1.87-15.71-1.4-16.73-3.94-1.34-3.31 2.29-3.63 5.87-3.27 1.31.13 7.82 0 9-1.47 1.65-2.11 6.07-7.56 6.07-7.56l8.37 4.07Z" fill="#774442"/><path d="M267.18 166.06a36.202 36.202 0 0 1-3.28 4.63 11.9 11.9 0 0 1-1 1.07c-.352.38-.769.694-1.23.93-.933.268-1.886.458-2.85.57-.94.13-1.88.23-2.84.28a15.86 15.86 0 0 1-2.87-.22 15.209 15.209 0 0 0-2.78-.15 3.33 3.33 0 0 0-2.5 1 3.25 3.25 0 0 1 2.47-1.33 15.187 15.187 0 0 1 2.86-.07c.923.099 1.852.129 2.78.09.92-.07 1.85-.17 2.78-.31a21.162 21.162 0 0 0 2.69-.49c.375-.19.713-.443 1-.75.34-.31.67-.64 1-1 1.35-1.31 2.59-2.82 3.77-4.25Z" fill="#263238"/><path d="M281.58 170.37c-2.19 3.89-7.14 10-12.15 12.6-3.92 2-15.75-.86-16.86-3.36-1.45-3.26 2.17-3.71 5.76-3.47 1.31.08 7.81-.27 8.91-1.78 1.57-2.16 5.8-7.76 5.8-7.76l8.54 3.77Z" fill="#774442"/><path d="M271.56 168.56c-1.28 1.6-2.51 3.24-3.88 4.73-.34.36-.68.73-1.05 1.05-.172.15-.36.281-.56.39-.212.074-.43.134-.65.18-1 .23-2 .4-3 .56a19.23 19.23 0 0 1-3 .31 26.336 26.336 0 0 0-3.09-.07 6.003 6.003 0 0 0-3 .84 2.4 2.4 0 0 0-1 1.19 2.228 2.228 0 0 0 .1 1.53 1.92 1.92 0 0 1 1.09-2.46 6.004 6.004 0 0 1 2.88-.58c1 0 2 .13 3 .22 1.046.014 2.09-.07 3.12-.25a29.12 29.12 0 0 0 3-.59c.28-.051.553-.138.81-.26a3.64 3.64 0 0 0 .68-.51c.382-.356.736-.741 1.06-1.15a36.9 36.9 0 0 0 3.49-5.13Z" fill="#263238"/><path d="M212.67 168.26c1.7 2.37 10.47 12.76 13.54 15.05 3.07 2.29 16.95-14 13.76-16.79-.46-.4-3.92-7.72-8.05-11.49a22.71 22.71 0 0 0-5.43-3.53l-13.82 16.76Z" fill="#774442"/><path d="M225.41 164.05c2.89 3.4 8.92 8.5 14.31 10.07 4.23 1.23 13.46-.69 14.07-3.36.8-3.48-2.83-3.23-6.31-2.32-1.27.33-6.38-.28-7.51-1.92-1.53-2.21-6.43-8.23-6.43-8.23l-8.13 5.76Z" fill="#774442"/><path d="M223.9 170.34c2.76 3.52 8.56 8.87 13.89 10.65 4.18 1.4 15.46-3.19 16.18-5.83.94-3.44-2.69-3.35-6.21-2.58-1.29.28-7.77.9-9.07-.43-1.89-1.9-6.9-6.81-6.9-6.81l-7.89 5Z" fill="#774442"/><path d="M233.55 167.06c1.38 1.29 2.74 2.6 4.17 3.8.36.3.73.59 1.1.85.334.268.709.481 1.11.63a21.48 21.48 0 0 0 2.73.18h2.8a17.711 17.711 0 0 0 2.74-.41 15.163 15.163 0 0 1 2.86-.26 3.28 3.28 0 0 1 2.6 1 3.308 3.308 0 0 0-2.6-.68 15.23 15.23 0 0 0-2.74.47c-.92.274-1.864.455-2.82.54-1 .07-1.91.07-2.86.06a18.285 18.285 0 0 1-2.89-.25 4.476 4.476 0 0 1-1.33-.78 13.988 13.988 0 0 1-1.08-1 37.997 37.997 0 0 1-3.79-4.15Z" fill="#263238"/><path d="M219.74 173c2.63 3.61 8.25 9.15 13.51 11.12 4.13 1.55 15.56-2.65 16.37-5.27 1.06-3.41-2.58-3.44-6.12-2.79-1.29.24-7.79.63-9.05-.74-1.82-2-6.65-7-6.65-7l-8.06 4.68Z" fill="#774442"/><path d="M229.49 170.05c1.45 1.45 2.87 2.93 4.39 4.25.39.32.77.65 1.17.92.186.134.387.245.6.33.221.05.445.086.67.11 1 .11 2 .16 3 .21.999.071 2.001.071 3 0a23.546 23.546 0 0 1 3.06-.42 5.88 5.88 0 0 1 3.09.48 2.46 2.46 0 0 1 1.17 1.06c.207.488.232 1.035.07 1.54a2.259 2.259 0 0 0-.22-1.46 2.217 2.217 0 0 0-1.15-.86 5.89 5.89 0 0 0-2.92-.25c-1 .12-2 .36-3 .57a17.327 17.327 0 0 1-3.13.11c-1 0-2.05-.11-3.08-.24a3.67 3.67 0 0 1-.83-.16 3.528 3.528 0 0 1-.74-.43 11.836 11.836 0 0 1-1.19-1 37.101 37.101 0 0 1-3.96-4.76Z" fill="#263238"/><path d="M242.64 152.09c-4.23 4-14.11 4.32-14.11 4.32a8.225 8.225 0 0 0 3.28-3.95c1-2.7 2-7.61 3.87-9 4.25-3.28 8.77-.49 9.8.23l.22.16v.37a10.806 10.806 0 0 1-3.06 7.87Z" fill="#455A64"/><path d="M245.72 144.18a9 9 0 0 0-4.34.39 6.31 6.31 0 0 0-2.78 2.77c-1.29 2.21-2.09 4.71-4.3 6.2l-.06-.07c2.55-2.12 2.7-5.71 4.87-8.11a6.437 6.437 0 0 1 6.37-1.71l.22.16.02.37ZM244.6 146.93a.636.636 0 0 0-.76-.37c-.65.17-.75 1.19-.75 1.73a.529.529 0 0 0 .15.4c.58.63 1.19-.36 1.34-.84a1.27 1.27 0 0 0 .02-.92ZM242.79 148.55a.331.331 0 0 0-.37-.25.38.38 0 0 0-.156.059.357.357 0 0 0-.114.121.309.309 0 0 0-.048.124.317.317 0 0 0 .168.336.11.11 0 0 0 .08 0 .36.36 0 0 0 .19 0 .28.28 0 0 0 .22-.2.609.609 0 0 0 .03-.19ZM244.72 145.5a.431.431 0 0 0-.18.33.34.34 0 0 0 .52.31.312.312 0 0 0 .18-.19.805.805 0 0 0 0-.17c.09-.31-.31-.45-.52-.28Z" fill="#263238"/><path d="M270.63 136.69s-3.37 6.38-7.13 7.62c-4.28 1.42-6.72-1.61-8.41-1.33a5.004 5.004 0 0 0-3.48 2.93 6.904 6.904 0 0 0-.39 1 4.946 4.946 0 0 1-.15-.8 8.452 8.452 0 0 1 4.92-8.82c6.3-3.29 14.64-.6 14.64-.6Z" fill="#455A64"/><path d="M268.53 136.93c-3.75.44-7.57.52-11.07 2.12a9.996 9.996 0 0 0-4.37 3.36 11.932 11.932 0 0 0-1.48 3.5 6.904 6.904 0 0 0-.39 1 4.946 4.946 0 0 1-.15-.8 11.56 11.56 0 0 1 1.25-3.58 8.591 8.591 0 0 1 3.88-3.53c3.74-1.9 8.19-2.32 12.32-2.21a.073.073 0 0 1 .051.017.068.068 0 0 1 .024.048.072.072 0 0 1-.017.051.068.068 0 0 1-.048.024ZM266.08 140.66a.76.76 0 0 0-.95.21c-.29.29-.6.56-.87.86a.38.38 0 0 0-.11.23v.14a.583.583 0 0 0 .16.468.592.592 0 0 0 .46.182 1.85 1.85 0 0 0 .91-.47c.39-.28 1.07-1.16.4-1.62ZM267.49 139.64a.508.508 0 0 0-.718-.065.504.504 0 0 0-.152.215.344.344 0 0 0-.09.21.48.48 0 0 0 .71.48.56.56 0 0 0 .25-.84ZM265.89 139.57a.24.24 0 0 0-.27.21.24.24 0 0 0 .21.27.242.242 0 0 0 .06-.48ZM263.55 142.77a5.714 5.714 0 0 0-.6.29.421.421 0 0 0 .31.75c.06.01.12.01.18 0l.18-.07.15-.08a.638.638 0 0 0 .28-.47.366.366 0 0 0-.124-.36.365.365 0 0 0-.376-.06Z" fill="#263238"/><path d="M242.67 142.45a.081.081 0 0 0-.038-.004.078.078 0 0 0-.036.013.099.099 0 0 0-.025.029.078.078 0 0 0-.009.037c0 .013.003.026.009.037a.099.099 0 0 0 .025.029.078.078 0 0 0 .036.013c.013.002.026 0 .038-.004 3.85 1.74 6.07 5.66 7.09 9.61 1.15 4.49.61 8.7-.65 13.08-.07.27.3.5.46.23 4.21-7.21 2.24-20.58-6.9-23.07Z" fill="#455A64"/><path d="M260.1 136.19c-4.27 1-8.47 2.55-9.47 7.35a30.1 30.1 0 0 0-.35 7.7c.066 2.612.323 5.216.77 7.79a.201.201 0 0 0 .195.156.201.201 0 0 0 .195-.156c.48-4.42-.16-8.93.12-13.37.15-2.35.58-4.55 2.39-6.21a16.039 16.039 0 0 1 6.17-3.1c.09-.05.07-.19-.02-.16Z" fill="#455A64"/><path d="M229.8 173.61c2.54-2.7 10-6.06 11-6.7 1-.64 3.66-4.61 5.64-5 1.98-.39 4-1.51 5.88-.56s5.62 5.61 8 6.82 8.26 2.64 9.56 6.53c.34 1-11 6.26-21.61 6.35-4.73 0-9.17-2.54-12.65-2.78-3.62-.27-5.82-4.66-5.82-4.66Z" fill="#D37815"/><path opacity=".4" d="M229.8 173.61c2.54-2.7 10-6.06 11-6.7 1-.64 3.66-4.61 5.64-5 1.98-.39 4-1.51 5.88-.56s5.62 5.61 8 6.82 8.26 2.64 9.56 6.53c.34 1-11 6.26-21.61 6.35-4.73 0-9.17-2.54-12.65-2.78-3.62-.27-5.82-4.66-5.82-4.66Z" fill="#000"/><path opacity=".1" d="M259.13 179.48a44.777 44.777 0 0 1-10.82 1.57c-4.73 0-9.17-2.54-12.65-2.78-3.66-.24-5.86-4.66-5.86-4.66 2.54-2.7 10-6.06 11-6.7 1-.64 3.66-4.61 5.64-5 1.57-.32 3.14-1.07 4.66-.91-1.85 1.06-4.7 5.61-5.42 6.41-1.44 1.6-7.45 3.66-8.59 6-.36.74.4 3.63 4 4.51 3.38.83 5.22 2.7 12.66 2.15a43.555 43.555 0 0 0 5.38-.59Z" fill="#000"/><g opacity=".3" fill="#000"><path opacity=".3" d="M233.67 174.94a.664.664 0 0 0 .33-.78c-.21-.63-1.24-.68-1.78-.65h-.05a.543.543 0 0 0-.34.16c-.59.62.42 1.17.92 1.3.3.105.628.095.92-.03ZM234.17 173.15a.47.47 0 0 0 .41-.46.64.64 0 0 0-.6-.59.366.366 0 0 0-.18 0h-.12a.458.458 0 0 0-.22.35.675.675 0 0 0 .27.46.646.646 0 0 0 .44.24ZM256.51 171.55a.47.47 0 0 0 .41-.46.649.649 0 0 0-.6-.59.366.366 0 0 0-.18 0h-.12a.413.413 0 0 0-.22.35v.05a.635.635 0 0 0 .27.46.651.651 0 0 0 .44.19ZM246.18 164.33a.458.458 0 0 0 0-.61.643.643 0 0 0-.84-.1.298.298 0 0 0-.15.09.201.201 0 0 0 0 .06.43.43 0 0 0 0 .41.761.761 0 0 0 1 0l-.01.15ZM266.74 173.13a.467.467 0 0 0 .61 0 .639.639 0 0 0 .08-.84.307.307 0 0 0-.1-.15h-.11a.463.463 0 0 0-.41.05.759.759 0 0 0 0 1l-.07-.06ZM235.71 173.67a.323.323 0 0 0 .186-.146.324.324 0 0 0 .034-.234.342.342 0 0 0-.19-.26.315.315 0 0 0-.26-.029.324.324 0 0 0-.2.169v.08a.407.407 0 0 0 0 .19.3.3 0 0 0 .2.22.71.71 0 0 0 .23.01ZM247.23 163.5a.32.32 0 0 0 .23-.38.414.414 0 0 0-.19-.26.324.324 0 0 0-.263-.025.334.334 0 0 0-.197.175.206.206 0 0 0 0 .07.407.407 0 0 0 0 .19.289.289 0 0 0 .21.22.48.48 0 0 0 .21.01ZM267.84 174.06a.407.407 0 0 0-.33-.15.347.347 0 0 0-.178.045.345.345 0 0 0-.17.311.34.34 0 0 0 .058.174.316.316 0 0 0 .2.17h.17c.31.07.41-.35.25-.55ZM266 173.19a.45.45 0 0 0-.34-.15.347.347 0 0 0-.178.045.345.345 0 0 0-.17.311.34.34 0 0 0 .058.174.316.316 0 0 0 .2.17h.17c.26.07.41-.35.26-.55Z"/></g><path d="M249.74 178.32v.09a.18.18 0 0 0 0 .08c0 .12-.06.24-.1.37-.81 2.61-12.25 6.81-16.37 5.26a20.824 20.824 0 0 1-3.09-1.5l4.65-6.76.13-.19c2 1 7.39.61 8.56.39 2.36-.42 4.75-.56 5.78.42a.997.997 0 0 1 .31.4l.08.16c.029.068.053.138.07.21.079.353.072.72-.02 1.07Z" fill="#774442"/><path d="M249.73 178.41v-.09a2.14 2.14 0 0 0-.24-1.28 2.221 2.221 0 0 0-1.15-.86 5.89 5.89 0 0 0-2.92-.25c-1 .12-2 .36-3 .57a16.46 16.46 0 0 1-3.13.11c-1 0-2.05-.11-3.08-.23a4.414 4.414 0 0 1-.83-.17 2.121 2.121 0 0 1-.59-.35l.13-.19.26-.36c.139.096.29.173.45.23.219.06.443.097.67.11 1 .12 2 .17 3 .22.998.076 2.001.076 3 0a27.564 27.564 0 0 1 3-.43 6.002 6.002 0 0 1 3.1.49c.301.14.573.337.8.58a.997.997 0 0 1 .31.4.429.429 0 0 1 .06.08.268.268 0 0 1 0 .08c.029.068.053.138.07.21.134.361.165.752.09 1.13Z" fill="#263238"/><path d="M214 173.56c2.44 3.87 8.69 10.88 14.91 13.32 4.21 1.64 15.75-7.32 15.35-10.1-.4-2.78-4-3-7.91-1.68-1.28.44-5.56 3.41-6.76 1.92-1.72-2.14-5.91-7.46-5.91-7.46l-9.68 4Z" fill="#774442"/><path d="M226.11 172.85c.39.61.52.83.93 1.43.41.6.81 1.2 1.25 1.78.347.531.783.998 1.29 1.38a2.854 2.854 0 0 0 1.74.35 10.008 10.008 0 0 0 3.77-1.63c1.29-.73 4-1.92 6-1.69a3.926 3.926 0 0 1 1.62.45c.394.171.738.439 1 .78.88 1.52-.25 3.24-1.39 4.45a26.43 26.43 0 0 1-7.77 5.23c-.68.33-1.37.64-2.06 1a6.079 6.079 0 0 1-2.5.7c-1.43 0-3.75-1.47-4.48-1.91 0 0-.09 0 0 .09.87.55 3 2.34 5.34 2.24a7.002 7.002 0 0 0 2.4-.79c.8-.34 1.6-.71 2.38-1.09A32.314 32.314 0 0 0 240 183a13.752 13.752 0 0 0 3.61-3.36 4.006 4.006 0 0 0 .28-4.11 3.5 3.5 0 0 0-2.58-1.39 6.527 6.527 0 0 0-1.82 0c-1.36.275-2.697.653-4 1.13-1.25.49-2.38 1.32-3.67 1.7a2.397 2.397 0 0 1-1.86-.13 6.733 6.733 0 0 1-1.39-1.28 20.26 20.26 0 0 1-2.3-2.77c-.14-.28-.33-.2-.16.06Z" fill="#263238"/><path d="M207.92 168.18s2.52 7.18 4.32 10.09c1.8 2.91 12.5 11.28 14.44 9.08 2.51-2.86-2.72-8.91-5.67-11.54 0 0 5.8-6.59 3-11.74s-16.09 4.11-16.09 4.11Z" fill="#774442"/><path d="M227.11 186.34c.41-4.25-3.68-7.45-6.35-10.22a.365.365 0 0 1-.091-.141.355.355 0 0 1 .051-.322.345.345 0 0 1 .13-.107c2.25-2.93 4.56-7.71 3.39-11.42a.09.09 0 0 1 .004-.117.087.087 0 0 1 .076-.029.097.097 0 0 1 .04.015.073.073 0 0 1 .028.03.102.102 0 0 1 .012.041c1.8 3.8-.09 8.69-2.76 11.73 2.78 2.79 6.74 6.19 5.51 10.54 0 .03-.04.02-.04 0Z" fill="#263238"/><path d="M252.39 179.09v.09a.153.153 0 0 1 0 .09c0 .11.09.22.14.35 1.1 2.5 12.95 5.36 16.87 3.35a20.507 20.507 0 0 0 2.89-1.84l-5.35-6.13-.16-.19c-1.83 1.17-7.26 1.46-8.45 1.37-2.39-.15-4.78 0-5.69 1.08a1.166 1.166 0 0 0-.27.44l-.06.16c0 .08 0 .14-.05.23-.033.339.012.681.13 1Z" fill="#774442"/><path d="M252.4 179.18v-.09a2.172 2.172 0 0 1 .09-1.29 2.238 2.238 0 0 1 1.05-1 6 6 0 0 1 2.87-.58c1 0 2 .13 3 .22a16.82 16.82 0 0 0 3.12-.25c1-.14 2-.35 3-.58a3.59 3.59 0 0 0 .8-.27c.204-.103.389-.238.55-.4l-.16-.19-.29-.32a2.123 2.123 0 0 1-.42.29 5.363 5.363 0 0 1-.66.18c-1 .23-2 .4-3 .56-.991.177-1.994.28-3 .31a26.336 26.336 0 0 0-3.09-.07 6.003 6.003 0 0 0-3 .84 2.635 2.635 0 0 0-.72.66 1.166 1.166 0 0 0-.27.44.272.272 0 0 0 0 .09.206.206 0 0 0 0 .07c0 .08 0 .14-.05.23-.044.393.018.79.18 1.15Z" fill="#263238"/><path d="M287.33 170.27c-2 4.13-7.38 11.81-13.28 14.94-4 2.12-16.48-5.46-16.4-8.27.08-2.81 3.59-3.45 7.67-2.57 1.31.28 5.91 2.75 6.93 1.13 1.46-2.33 5-8.09 5-8.09l10.08 2.86Z" fill="#774442"/><path d="M275.24 171c-.32.65-.43.88-.76 1.53s-.67 1.28-1 1.9a5.287 5.287 0 0 1-1.13 1.52 2.785 2.785 0 0 1-1.68.55 9.854 9.854 0 0 1-3.93-1.19c-1.37-.58-4.18-1.45-6.19-1a3.797 3.797 0 0 0-1.56.63 2.536 2.536 0 0 0-.87.88c-.7 1.61.61 3.19 1.89 4.26a26.065 26.065 0 0 0 8.32 4.31c.72.25 1.44.48 2.16.71a6.175 6.175 0 0 0 2.56.4c1.41-.16 3.56-1.88 4.23-2.4.05 0 .1 0 .05.08-.81.65-2.75 2.68-5.05 2.84a7.095 7.095 0 0 1-2.47-.51c-.84-.25-1.67-.52-2.5-.81a32.323 32.323 0 0 1-4.67-2.05 13.513 13.513 0 0 1-4-2.93 4 4 0 0 1-.75-4 3.521 3.521 0 0 1 2.41-1.68 6.78 6.78 0 0 1 1.8-.2c1.367.126 2.724.35 4.06.67 1.3.34 2.51 1 3.84 1.27a2.361 2.361 0 0 0 1.83-.35 5.99 5.99 0 0 0 1.23-1.43 19.237 19.237 0 0 0 2-3c.11-.38.31-.32.18 0Z" fill="#263238"/><path d="M293 164.42s-1.83 7.38-3.35 10.45c-1.52 3.07-11.39 12.4-13.53 10.39-2.76-2.61 1.87-9.12 4.56-12 0 0-6.39-6-4.08-11.41 2.31-5.41 16.4 2.57 16.4 2.57Z" fill="#774442"/><path d="M275.54 184.29c-.8-4.19 3-7.76 5.37-10.76a.354.354 0 0 0-.14-.56c-2.51-2.71-5.27-7.25-4.44-11.05a.087.087 0 0 0-.004-.069.09.09 0 0 0-.12-.042.09.09 0 0 0-.046.051c-1.44 4 .9 8.65 3.84 11.43-2.5 3-6.13 6.79-4.5 11 .01.04.05.03.04 0Z" fill="#263238"/><path d="M185.56 147.43c.48 4 5.75 12.53 23 24.46 3 2.05 22.24-18.15 18.84-19.95-4.28-2.27-12.77-9-14.1-9.42-11.18-3.52-28.85-4.26-27.74 4.91Z" fill="#774442"/><path d="M219.4 146.76c-3.48-1.8-6.8-3.91-10.53-4.69a49.424 49.424 0 0 0-5.72-.81 39.13 39.13 0 0 0-5.83-.12 22.276 22.276 0 0 1 5.86-.62c1.98.009 3.956.203 5.9.58a18.148 18.148 0 0 1 5.54 2.21 36.23 36.23 0 0 1 4.78 3.45Z" fill="#263238"/><path d="M265.89 98.29s-14.14 10.12-22.31 9.21c-8.17-.91-11.46-8.5-11.46-8.5s10.73-9.18 20.91-7.14c6.06 1.24 12.86 6.43 12.86 6.43Z" fill="#774442"/><path d="M254.71 93.49c-.25 1.61-3.86 9-8.75 9-2.52 0-2.8-8.83-2.8-8.83L243 93l-2-9 12.16-7.63s1.62 16.63 1.55 17.12Z" fill="#774442"/><path d="M253.79 82.55A18.578 18.578 0 0 1 243 93l-2-9 12.17-7.63s.31 2.79.62 6.18Z" fill="#263238"/><path d="M229.07 71c.4 16.21 10.15 17.8 13.65 17.71 3.17-.09 14-.77 15.24-16.93 1.24-16.16-6.39-21.11-13.65-21.3-7.26-.19-15.64 4.32-15.24 20.52Z" fill="#774442"/><path d="M234.45 69.59c.38-.06.72-.18 1.09-.27a1.8 1.8 0 0 0 1.06-.49.569.569 0 0 0 0-.7 1.428 1.428 0 0 0-1.42-.29 2.088 2.088 0 0 0-1.29.79.615.615 0 0 0-.018.654.619.619 0 0 0 .578.306ZM245.41 69a8.406 8.406 0 0 1-1.11-.14 1.781 1.781 0 0 1-1.1-.35.59.59 0 0 1-.06-.71 1.446 1.446 0 0 1 1.38-.45 2.14 2.14 0 0 1 1.37.63.612.612 0 0 1-.137.933.606.606 0 0 1-.343.087ZM243.6 73.21s.09.05.09.09c0 1.11.26 2.37 1.28 2.67v.06c-1.24-.09-1.51-1.77-1.37-2.82Z" fill="#263238"/><path d="M244.52 72c1.76-.24 2.12 3.31.48 3.53-1.64.22-2-3.33-.48-3.53Z" fill="#263238"/><path d="M245.23 72.12c.33.17.67.49 1.05.49s.72-.4 1-.79h.07c.07.68-.12 1.4-.84 1.57-.72.17-1.19-.39-1.43-1.06-.08-.08.02-.28.15-.21ZM236.73 73.55s-.08.06-.08.1c.1 1.1 0 2.38-1 2.8v.07c1.27-.25 1.35-1.94 1.08-2.97Z" fill="#263238"/><path d="M235.68 72.46c-1.78 0-1.71 3.53-.06 3.56 1.65.03 1.55-3.54.06-3.56Z" fill="#263238"/><path d="M234.94 72.71c-.28.19-.55.54-.88.57-.33.03-.69-.35-.95-.71h-.05c0 .68.23 1.38.89 1.5.66.12 1-.49 1.18-1.17.02-.08-.08-.27-.19-.19ZM243.82 81.93c-.17.33-.31.75-.68.91a2.89 2.89 0 0 1-1.21.11s-.06 0 0 .07a1.491 1.491 0 0 0 1.52.12 1.154 1.154 0 0 0 .51-1.2c-.03-.07-.12-.06-.14-.01ZM239 78.49s-.09 1.66 0 2.43a4.172 4.172 0 0 0 4-1.6c.06-.08-.06-.16-.13-.1a5.561 5.561 0 0 1-3.27 1.26c-.08-.21.23-2.85.11-2.84a6.752 6.752 0 0 0-1.73.55c.08-3.47.71-6.9.73-10.35a.11.11 0 0 0-.17-.056.11.11 0 0 0-.04.056 56.648 56.648 0 0 0-1.25 11.12c-.13.41 1.42-.31 1.75-.47Z" fill="#263238"/><path d="M257.73 73.87c-3 .68-5.25-5.9-5.25-5.9s-13.11-.91-15.24-11.3c0 0-1.74 9-8.19 12.66 0 0-2.05-13.43 8.4-17.42 0 0 10.65-5.7 17.9 2.65 7.25 8.35 4.39 18.85 2.38 19.31Z" fill="#263238"/><path d="M237.13 55.9a11.362 11.362 0 0 0 1.05 4.74 11.994 11.994 0 0 0 2.85 4c.315.286.649.55 1 .79l.49.38.52.32c.36.2.71.42 1.08.61l1.13.47.57.23.59.16 1.18.32c.8.14 1.6.24 2.4.33-.77-.25-1.56-.42-2.31-.67l-1.12-.42L246 67c-.18-.08-.35-.18-.53-.27l-1.06-.52c-.34-.2-.66-.42-1-.63l-.5-.31-.46-.37a9.07 9.07 0 0 1-.89-.75 13.81 13.81 0 0 1-2.85-3.71 15.027 15.027 0 0 1-.94-2.17 13.877 13.877 0 0 1-.64-2.37Z" fill="#263238"/><path d="M255.42 73.1s3-5.43 5.37-4.43.6 8.59-2 9.88a2.742 2.742 0 0 1-3.82-1l.45-4.45Z" fill="#774442"/><path d="M260.21 70.83v.07c-1.8 1-2.59 2.83-3.08 4.71a1.504 1.504 0 0 1 .948-.837 1.508 1.508 0 0 1 1.252.177c.06 0 0 .11 0 .1a1.699 1.699 0 0 0-1.78.8 7.348 7.348 0 0 0-.71 1.59c-.07.17-.39.12-.34-.08-.32-2.44 1.17-6 3.71-6.53Z" fill="#263238"/><path d="M258.45 78a.698.698 0 0 1-.8.58.693.693 0 1 1 .21-1.37.7.7 0 0 1 .59.79Z" fill="#fff"/></svg>