<svg width="750" height="500" fill="none" xmlns="http://www.w3.org/2000/svg"><path d="M661.34 427.12c33.51-52.56 42.11-118.88 32.53-179.7a236.8 236.8 0 0 0-8-34.21C662.33 138.69 601.94 79 530.47 47.59c-68.19-30-154.39-44.82-219 1.35-42.54 30.4-66.63 79.12-105.58 113.22-19.36 17-40.55 22.45-63.59 32.59C86.17 219.46 39.18 267.11 35.32 330a167.49 167.49 0 0 0 23.26 97.15l602.76-.03Z" fill="#D37815"/><path opacity=".8" d="M661.34 427.12c33.51-52.56 42.11-118.88 32.53-179.7a236.8 236.8 0 0 0-8-34.21C662.33 138.69 601.94 79 530.47 47.59c-68.19-30-154.39-44.82-219 1.35-42.54 30.4-66.63 79.12-105.58 113.22-19.36 17-40.55 22.45-63.59 32.59C86.17 219.46 39.18 267.11 35.32 330a167.49 167.49 0 0 0 23.26 97.15l602.76-.03Z" fill="#fff"/><path d="M390.54 82.35c-.22-.71-.46-1.41-.72-2.12-9.41-26.18-53.2-28-53.2 4.19 0 6.19-14.87 0-20.44 8-5.57 8 .62 13-6.82 15.49s-8.05-3.72-17.35-3.1c-9.3.62-8.05 9.29-11.15 11.77-3.1 2.48-3.1 1.24-9.91 1.86-6.81.62-8.06 5.58-8.06 5.58h163s6.19-18.59-5-25.4c-11.19-6.81-11.15 2.47-19.83-1.24-7.17-3.02-8.51-8.85-10.52-15.03Z" stroke="#B2B2B2" stroke-linecap="round" stroke-linejoin="round"/><path d="M396.18 117.29s3.37-10.43-4.91-18.11c-8.28-7.68-16.88-3.37-19.33 0-2.45 3.37-2.46 9.82-6.45 10.44-3.99.62-3.06-6.75-11.66-4.91-8.6 1.84-5.21 10.43-9.2 12.27-3.99 1.84-4-4.91-9.52-2.76-5.52 2.15-5.21 6.14-5.21 6.14M352.11 96.44a15.56 15.56 0 0 0-15.72-1.36c-8.88 4.1-4.78 12.64-8.88 14.69-4.1 2.05-6.15-.35-11.28 2-5.13 2.35-4.78 5.8-4.78 5.8M273.06 140.48c-.1-.3-.21-.61-.32-.92-4.09-11.39-23.14-12.17-23.14 1.82 0 2.7-6.47 0-8.9 3.5-2.43 3.5.27 5.67-3 6.74-3.27 1.07-3.51-1.61-7.55-1.34s-3.51 4-4.85 5.12c-1.34 1.12-1.35.54-4.32.81s-3.5 2.42-3.5 2.42h70.89s2.7-8.08-2.16-11-4.85 1.08-8.62-.54c-3.08-1.39-3.66-3.92-4.53-6.61Z" stroke="#B2B2B2" stroke-linecap="round" stroke-linejoin="round"/><path d="M275.51 155.68a7.898 7.898 0 0 0-2.14-7.87c-3.6-3.34-7.34-1.47-8.41 0-1.07 1.47-1.07 4.27-2.8 4.54-1.73.27-1.34-2.94-5.08-2.14-3.74.8-2.27 4.54-4 5.34-1.73.8-1.74-2.14-4.14-1.2-2.4.94-2.27 2.67-2.27 2.67M256.33 146.61a6.746 6.746 0 0 0-6.83-.59c-3.87 1.78-2.09 5.5-3.87 6.39-1.78.89-2.67-.15-4.9.89-2.23 1.04-2.08 2.53-2.08 2.53M648.12 140.48c-.1-.3-.2-.61-.31-.92-4.1-11.39-23.15-12.17-23.15 1.82 0 2.7-6.47 0-8.89 3.5-2.42 3.5.27 5.67-3 6.74-3.27 1.07-3.5-1.61-7.54-1.34s-3.51 4-4.86 5.12c-1.35 1.12-1.34.54-4.31.81-2.97.27-3.5 2.42-3.5 2.42h70.89s2.69-8.08-2.16-11-4.85 1.08-8.62-.54c-3.09-1.39-3.67-3.92-4.55-6.61Z" stroke="#B2B2B2" stroke-linecap="round" stroke-linejoin="round"/><path d="M650.57 155.68a7.914 7.914 0 0 0-2.13-7.87c-3.61-3.34-7.34-1.47-8.41 0-1.07 1.47-1.07 4.27-2.81 4.54-1.74.27-1.33-2.94-5.07-2.14-3.74.8-2.27 4.54-4 5.34-1.73.8-1.74-2.14-4.14-1.2-2.4.94-2.27 2.67-2.27 2.67M631.4 146.61a6.753 6.753 0 0 0-6.84-.59c-3.86 1.78-2.08 5.5-3.86 6.39-1.78.89-2.68-.15-4.91.89s-2.08 2.53-2.08 2.53" stroke="#B2B2B2" stroke-linecap="round" stroke-linejoin="round"/><path d="M110.18 392.7c1.441.38 2.931.545 4.42.49 0 0-.67-2.05-.73-2.17-.69-1.44-2.86-3.82-4.63-3.58a2.115 2.115 0 0 0-1.443.944 2.107 2.107 0 0 0-.257 1.706 4.38 4.38 0 0 0 2.64 2.61ZM141 425.9a2.122 2.122 0 0 0-1.17-2.93c-1.69-.56-4.28 1.36-5.22 2.64 0 .06-.36.6-.65 1.1h6.45c.242-.234.442-.508.59-.81Z" fill="#263238"/><path d="M131.42 417.57a13.405 13.405 0 0 0 3.77 1.75c-.13.62-.26 1.23-.42 1.83-.11.4-.19.79-.33 1.19-.14.4-.25.78-.38 1.17-.27.74-.54 1.5-.82 2.21-.13.35-.26.67-.39 1h1.05c.08-.21.16-.42.24-.65.27-.74.52-1.48.79-2.28l.36-1.18c.12-.39.21-.82.31-1.24.23-1 .42-1.95.59-3 1.32.546 2.717.883 4.14 1a4.441 4.441 0 0 0 3.37-1.58 2.112 2.112 0 0 0 .328-1.693 2.125 2.125 0 0 0-1.038-1.377c-1.59-.81-4.44.69-5.57 1.82-.07.07-.79 1-1.17 1.47.09-.6.19-1.21.26-1.82.22-1.77.39-3.57.57-5.36 0-.55.11-1.1.17-1.65 1.368.547 2.811.885 4.28 1a4.441 4.441 0 0 0 3.37-1.58 2.112 2.112 0 0 0 .328-1.693 2.125 2.125 0 0 0-1.038-1.377c-1.59-.81-4.44.69-5.57 1.82-.08.08-1.12 1.38-1.36 1.72.12-1.21.26-2.41.45-3.59.231-1.59.565-3.163 1-4.71a14.76 14.76 0 0 0 4.31 1 4.41 4.41 0 0 0 3.36-1.58 2.107 2.107 0 0 0 .333-1.69 2.102 2.102 0 0 0-1.043-1.37c-1.59-.82-4.43.69-5.56 1.82-.09.08-1.2 1.48-1.39 1.74.028-.089.051-.179.07-.27a26.86 26.86 0 0 1 1.87-4.46c.41-.8.84-1.54 1.28-2.24a14.42 14.42 0 0 0 4.08 1.43 4.385 4.385 0 0 0 3.52-1.2 2.103 2.103 0 0 0 .511-1.643 2.118 2.118 0 0 0-.881-1.477c-1.49-1-4.48.2-5.73 1.19-.07.06-.7.68-1.15 1.14l.61-.94c.74-1.13 1.5-2.11 2.17-3 .39-.49.75-.92 1.09-1.33a14.002 14.002 0 0 0 4.26-.6 4.412 4.412 0 0 0 2.57-2.69 2.097 2.097 0 0 0-.3-1.692 2.108 2.108 0 0 0-1.46-.908c-1.78-.19-3.89 2.24-4.54 3.7-.06.13-.71 2.2-.67 2.2-.33.38-.69.79-1.07 1.25-.69.85-1.47 1.82-2.24 2.94a37.22 37.22 0 0 0-2.33 3.71 26.189 26.189 0 0 0-2 4.48v.05-2.1c-.2-1.58-1.53-4.51-3.29-4.84a2.108 2.108 0 0 0-2.211 1.146 2.114 2.114 0 0 0-.219.854 4.408 4.408 0 0 0 1.69 3.31 15.079 15.079 0 0 0 4 1.83 37.423 37.423 0 0 0-1.18 4.85c-.17 1-.31 1.92-.44 2.9v-.92c-.21-1.58-1.53-4.51-3.29-4.84a2.118 2.118 0 0 0-2.217 1.146c-.134.266-.21.557-.223.854a4.436 4.436 0 0 0 1.7 3.31 14.22 14.22 0 0 0 3.88 1.79c0 .37-.09.74-.14 1.12-.21 1.79-.42 3.58-.67 5.33-.09.62-.2 1.22-.31 1.82v-.79c-.2-1.58-1.53-4.51-3.28-4.84a2.118 2.118 0 0 0-2.217 1.146c-.134.266-.21.557-.223.854a4.445 4.445 0 0 0 1.68 3.31Z" fill="#263238"/><path d="M111.27 401.79a14.699 14.699 0 0 0 4.35-.69 37.868 37.868 0 0 0 1.69 4.7c.39.89.8 1.77 1.23 2.66-.25-.38-.48-.71-.52-.75-1-1.21-3.77-2.93-5.42-2.23a2.138 2.138 0 0 0-.702.527 2.119 2.119 0 0 0-.228 2.473 4.43 4.43 0 0 0 3.24 1.82 14.211 14.211 0 0 0 4.23-.65c.16.34.33.68.5 1 .81 1.61 1.62 3.22 2.37 4.82.27.57.51 1.13.75 1.69-.22-.33-.42-.6-.45-.64-1-1.21-3.77-2.93-5.42-2.23a2.107 2.107 0 0 0-1.214 2.168c.035.294.132.578.284.832.374.523.858.957 1.418 1.273a4.384 4.384 0 0 0 1.822.557c1.394.005 2.78-.204 4.11-.62.23.59.47 1.17.66 1.75.13.4.28.77.38 1.18l.33 1.19c.19.76.38 1.55.54 2.29.12.52.22 1 .32 1.52-.26-.56-.79-1.66-.84-1.74-.85-1.35-3.28-3.46-5-3a2.118 2.118 0 0 0-1.39 2.83 4.258 4.258 0 0 0 2.65 2.19h5.67c0-.12-.06-.24-.08-.37a21.97 21.97 0 0 0 2.44-1.15 9.815 9.815 0 0 0 2.1 1.52h1.66c.09-.62.19-1.38.19-1.46a8.118 8.118 0 0 0-1.1-4c.02-.156.02-.314 0-.47a2.109 2.109 0 0 0-2.58-1.8c-1.73.46-2.82 3.49-2.91 5.09 0 .09.06 1.12.11 1.76-.09-.37-.17-.74-.26-1.12-.18-.77-.39-1.52-.6-2.34l-.36-1.18c-.11-.4-.28-.8-.41-1.21-.35-.93-.74-1.86-1.15-2.79a13.793 13.793 0 0 0 4-1.49 4.426 4.426 0 0 0 1.94-3.17 2.126 2.126 0 0 0-.664-1.592 2.118 2.118 0 0 0-1.626-.578c-1.77.2-3.31 3-3.63 4.59 0 .1-.13 1.24-.18 1.87-.25-.55-.5-1.11-.77-1.66-.8-1.6-1.65-3.19-2.5-4.79l-.76-1.46a14.838 14.838 0 0 0 4.13-1.53 4.448 4.448 0 0 0 1.94-3.17 2.112 2.112 0 0 0-1.417-2.047 2.122 2.122 0 0 0-.873-.113c-1.77.19-3.31 3-3.64 4.58 0 .12-.17 1.77-.19 2.19-.56-1.08-1.1-2.16-1.6-3.24a36.246 36.246 0 0 1-1.74-4.5 15.27 15.27 0 0 0 4.15-1.53 4.457 4.457 0 0 0 1.94-3.18 2.112 2.112 0 0 0-1.417-2.047 2.122 2.122 0 0 0-.873-.113c-1.77.19-3.31 3-3.63 4.58 0 .12-.19 1.9-.2 2.22 0-.08-.06-.17-.09-.26A28.07 28.07 0 0 1 115 396c-.1-.88-.15-1.74-.17-2.57a14.313 14.313 0 0 0 4.19-1.05 4.442 4.442 0 0 0 2.28-2.94 2.135 2.135 0 0 0-1.156-2.187 2.121 2.121 0 0 0-.844-.223c-1.79 0-3.63 2.64-4.12 4.16 0 .08-.21.95-.33 1.59v-1.13c0-1.35.09-2.58.17-3.68.06-.62.12-1.18.18-1.71a14.047 14.047 0 0 0 3.22-2.85 4.444 4.444 0 0 0 .66-3.66 2.126 2.126 0 0 0-1.188-1.247 2.124 2.124 0 0 0-1.722.047c-1.59.82-2 4-1.74 5.59 0 .14.62 2.22.65 2.2a51.651 51.651 0 0 0-.46 5.33 38.8 38.8 0 0 0 .11 4.38 27.53 27.53 0 0 0 .81 4.83v.06c-.28-.44-1.11-1.65-1.18-1.74-1-1.2-3.77-2.92-5.42-2.22a2.107 2.107 0 0 0-1.214 2.168c.035.294.132.578.284.832a4.43 4.43 0 0 0 3.26 1.81ZM141.9 393.39s.57-2.08.59-2.22c.22-1.58-.29-4.76-1.9-5.54a2.11 2.11 0 0 0-2.87 1.28 4.415 4.415 0 0 0 .76 3.64 15.192 15.192 0 0 0 3.42 2.84ZM79 405.8a9.483 9.483 0 0 0 2.72.3s-.41-1.26-.45-1.34c-.42-.88-1.76-2.35-2.85-2.2a1.288 1.288 0 0 0-1 1.63A2.736 2.736 0 0 0 79 405.8ZM97.91 426.21a1.3 1.3 0 0 0-.71-1.8c-1-.35-2.64.84-3.22 1.63 0 0-.22.36-.39.67h4a1.5 1.5 0 0 0 .32-.5Z" fill="#263238"/><path d="M92 421.09a8.398 8.398 0 0 0 2.32 1.08c-.08.38-.16.76-.26 1.12-.1.36-.12.49-.2.73-.08.24-.16.49-.23.72-.17.46-.34.93-.51 1.36l-.24.61h.65l.15-.4c.16-.45.31-.91.48-1.4.07-.24.14-.48.22-.73.08-.25.13-.5.19-.76.15-.59.26-1.2.36-1.82a8.508 8.508 0 0 0 2.55.59 2.711 2.711 0 0 0 2.07-1 1.301 1.301 0 0 0-.44-1.89c-1-.5-2.72.43-3.42 1.12l-.72.9c.06-.37.12-.74.16-1.11.14-1.09.24-2.2.35-3.3 0-.34.07-.68.1-1a9.152 9.152 0 0 0 2.64.61 2.711 2.711 0 0 0 2.07-1 1.298 1.298 0 0 0 .203-1.039 1.282 1.282 0 0 0-.643-.841c-1-.5-2.72.42-3.42 1.12 0 .05-.69.84-.84 1.05.08-.74.16-1.48.28-2.2.144-.98.355-1.949.63-2.9a9.404 9.404 0 0 0 2.65.62 2.709 2.709 0 0 0 2.07-1 1.298 1.298 0 0 0 .203-1.039 1.282 1.282 0 0 0-.643-.841c-1-.51-2.72.42-3.42 1.11-.05.06-.74.91-.85 1.08a1.378 1.378 0 0 0 0-.17c.305-.948.69-1.868 1.15-2.75.25-.48.52-.94.79-1.37a8.847 8.847 0 0 0 2.51.88 2.718 2.718 0 0 0 2.16-.74 1.303 1.303 0 0 0 .138-1.523 1.292 1.292 0 0 0-.368-.397c-.91-.61-2.75.12-3.52.74 0 0-.43.41-.7.7.12-.2.24-.4.37-.58.46-.7.92-1.3 1.33-1.83l.67-.82a8.736 8.736 0 0 0 2.62-.37 2.73 2.73 0 0 0 1.59-1.65 1.286 1.286 0 0 0-.188-1.043 1.299 1.299 0 0 0-.902-.557c-1.09-.12-2.39 1.37-2.79 2.27 0 .08-.44 1.35-.41 1.35-.21.23-.43.49-.66.77-.43.53-.91 1.12-1.38 1.81-.523.73-1 1.491-1.43 2.28a16.822 16.822 0 0 0-1.23 2.75v-1.29c-.12-1-.94-2.78-2-3a1.307 1.307 0 0 0-1.5 1.22 2.732 2.732 0 0 0 1 2 8.813 8.813 0 0 0 2.46 1.12 23.673 23.673 0 0 0-.72 3c-.11.58-.19 1.18-.27 1.78v-.56c-.13-1-.94-2.78-2-3a1.287 1.287 0 0 0-1.365.695 1.286 1.286 0 0 0-.135.525 2.732 2.732 0 0 0 1 2 8.873 8.873 0 0 0 2.39 1.11c0 .23-.06.46-.08.69-.14 1.1-.26 2.2-.42 3.27-.06.38-.12.75-.19 1.13v-.49c-.13-1-.95-2.78-2-3a1.305 1.305 0 0 0-1.358.699 1.308 1.308 0 0 0-.142.521 2.73 2.73 0 0 0 1.07 2.28Z" fill="#263238"/><path d="M79.62 411.38a8.994 8.994 0 0 0 2.67-.42c.265.985.6 1.951 1 2.89.23.55.49 1.09.75 1.64l-.32-.46c-.64-.75-2.32-1.8-3.33-1.37a1.306 1.306 0 0 0-.699.791 1.304 1.304 0 0 0 .119 1.049 2.721 2.721 0 0 0 2 1.12 8.584 8.584 0 0 0 2.6-.39l.3.62c.5 1 1 2 1.47 3 .16.35.31.7.46 1l-.28-.4c-.64-.74-2.32-1.79-3.33-1.36a1.306 1.306 0 0 0-.699.791 1.304 1.304 0 0 0 .119 1.049 2.721 2.721 0 0 0 2 1.12 7.984 7.984 0 0 0 2.53-.38c.15.36.29.72.41 1.08.12.36.17.47.23.72l.21.74c.11.46.23 1 .33 1.41.1.41.13.62.19.93-.15-.34-.48-1-.51-1.07-.52-.83-2-2.13-3.09-1.86a1.297 1.297 0 0 0-.936 1.208c-.006.182.027.363.096.532a2.565 2.565 0 0 0 1.62 1.35h3.49a1.755 1.755 0 0 1 0-.22c.13-.06.85-.35 1.5-.71.385.368.82.681 1.29.93h1c.06-.38.12-.85.12-.9a4.997 4.997 0 0 0-.68-2.45c.01-.096.01-.194 0-.29a1.302 1.302 0 0 0-1.05-1.113 1.298 1.298 0 0 0-.54.013c-1.07.28-1.74 2.14-1.79 3.12 0 .06 0 .69.07 1.09-.06-.23-.11-.46-.16-.7l-.37-1.43c-.08-.24-.15-.48-.22-.73s-.17-.49-.26-.74c-.21-.57-.45-1.15-.71-1.72a8.076 8.076 0 0 0 2.45-.91 2.752 2.752 0 0 0 1.2-1.95 1.301 1.301 0 0 0-1.41-1.33c-1.09.11-2 1.85-2.24 2.81 0 .06-.07.77-.1 1.16-.16-.34-.31-.69-.48-1-.49-1-1-2-1.53-2.94-.16-.3-.32-.6-.47-.9a9.117 9.117 0 0 0 2.54-.94 2.718 2.718 0 0 0 1.19-1.95 1.3 1.3 0 0 0-1.37-1.36c-1.09.12-2 1.86-2.23 2.82 0 .07-.11 1.09-.12 1.34-.35-.66-.68-1.32-1-2a23.61 23.61 0 0 1-1.1-2.71 8.772 8.772 0 0 0 2.55-1 2.694 2.694 0 0 0 1.2-1.95 1.301 1.301 0 0 0-1.41-1.33c-1.09.12-2 1.86-2.24 2.82 0 .07-.11 1.17-.11 1.37l-.06-.17a17.645 17.645 0 0 1-.56-2.92c-.06-.55-.08-1.07-.1-1.58a9.237 9.237 0 0 0 2.58-.65 2.717 2.717 0 0 0 1.4-1.81 1.3 1.3 0 0 0-1.25-1.48c-1.1 0-2.23 1.62-2.54 2.56l-.2 1v-.69c0-.83.06-1.59.11-2.26 0-.38.07-.73.11-1.05a9.161 9.161 0 0 0 2-1.76 2.7 2.7 0 0 0 .4-2.25 1.29 1.29 0 0 0-1.79-.73c-1 .5-1.23 2.47-1.07 3.43 0 .09.39 1.37.4 1.36 0 .31-.08.65-.12 1-.07.67-.14 1.44-.16 2.27a22.59 22.59 0 0 0 .07 2.69c.073 1.013.24 2.018.5 3l-.73-1.07c-.64-.74-2.32-1.79-3.33-1.37a1.315 1.315 0 0 0-.7.797 1.31 1.31 0 0 0 .12 1.053 2.708 2.708 0 0 0 2 1.1ZM98.45 406.22s.35-1.28.37-1.36c.13-1-.18-2.93-1.17-3.41a1.317 1.317 0 0 0-1.496.315 1.31 1.31 0 0 0-.274.465 2.732 2.732 0 0 0 .47 2.24 9.43 9.43 0 0 0 2.1 1.75ZM601.88 405.8a9.448 9.448 0 0 0 2.72.3s-.42-1.26-.45-1.34c-.43-.88-1.77-2.35-2.85-2.2a1.309 1.309 0 0 0-1 1.63 2.772 2.772 0 0 0 1.58 1.61ZM620.84 426.21a1.313 1.313 0 0 0-.72-1.8c-1-.35-2.63.84-3.21 1.63 0 0-.22.36-.4.67h4c.14-.145.252-.314.33-.5Z" fill="#263238"/><path d="M614.94 421.09a8.264 8.264 0 0 0 2.32 1.08c-.09.38-.16.76-.26 1.12-.1.36-.12.49-.2.73-.08.24-.16.49-.24.72-.16.46-.33.93-.5 1.36l-.24.61h.64l.15-.4c.17-.45.32-.91.49-1.4.07-.24.14-.48.22-.73.08-.25.12-.5.19-.76.14-.59.26-1.2.36-1.82a8.39 8.39 0 0 0 2.55.59 2.713 2.713 0 0 0 2.07-1 1.308 1.308 0 0 0-.44-1.89c-1-.5-2.73.43-3.42 1.12 0 0-.49.6-.72.9.05-.37.11-.74.16-1.11.14-1.09.24-2.2.35-3.3 0-.34.07-.68.1-1a9.09 9.09 0 0 0 2.64.61 2.713 2.713 0 0 0 2.07-1 1.297 1.297 0 0 0-.031-1.527 1.309 1.309 0 0 0-.409-.353c-1-.5-2.73.42-3.42 1.12 0 .05-.69.84-.84 1.05.08-.74.16-1.48.27-2.2.152-.979.366-1.948.64-2.9a9.196 9.196 0 0 0 2.65.62 2.713 2.713 0 0 0 2.07-1 1.297 1.297 0 0 0-.031-1.527 1.309 1.309 0 0 0-.409-.353c-1-.51-2.73.42-3.42 1.11-.06.06-.74.91-.85 1.08a.805.805 0 0 1 0-.17c.301-.949.685-1.869 1.15-2.75.25-.48.52-.94.79-1.37a8.853 8.853 0 0 0 2.5.88 2.703 2.703 0 0 0 2.17-.74 1.303 1.303 0 0 0 .138-1.523 1.292 1.292 0 0 0-.368-.397c-.91-.61-2.75.12-3.52.74 0 0-.43.41-.71.7l.37-.58c.46-.7.93-1.3 1.34-1.83l.67-.82a8.736 8.736 0 0 0 2.62-.37c.367-.145.698-.368.97-.653.273-.284.481-.624.61-.997a1.283 1.283 0 0 0-.18-1.043 1.292 1.292 0 0 0-.9-.557c-1.1-.12-2.39 1.37-2.79 2.27 0 .08-.44 1.35-.42 1.35-.21.23-.43.49-.66.77-.43.53-.91 1.12-1.39 1.81a25.99 25.99 0 0 0-1.43 2.28c-.484.88-.892 1.8-1.22 2.75v-1.29c-.12-1-.94-2.78-2-3a1.312 1.312 0 0 0-1.022.276 1.295 1.295 0 0 0-.478.944 2.75 2.75 0 0 0 1 2 8.988 8.988 0 0 0 2.47 1.12 23.76 23.76 0 0 0-.73 3c-.1.58-.19 1.18-.27 1.78v-.56c-.13-1-.94-2.78-2-3a1.288 1.288 0 0 0-1.5 1.22 2.66 2.66 0 0 0 1 2c.735.49 1.541.865 2.39 1.11l-.09.69c-.13 1.1-.26 2.2-.41 3.27-.06.38-.13.75-.19 1.13v-.49c-.12-1-.94-2.78-2-3a1.312 1.312 0 0 0-1.022.276 1.295 1.295 0 0 0-.478.944 2.725 2.725 0 0 0 1.08 2.28Z" fill="#263238"/><path d="M602.54 411.38a9.06 9.06 0 0 0 2.68-.42c.27.984.604 1.95 1 2.89.24.55.49 1.09.76 1.64l-.32-.46c-.65-.75-2.32-1.8-3.33-1.37a1.305 1.305 0 0 0-.751 1.328c.021.181.079.355.171.512a2.696 2.696 0 0 0 2 1.12 8.518 8.518 0 0 0 2.6-.39c.11.2.21.41.31.62.5 1 1 2 1.46 3 .17.35.31.7.46 1l-.28-.4c-.64-.74-2.31-1.79-3.33-1.36a1.302 1.302 0 0 0-.57 1.84 2.696 2.696 0 0 0 2 1.12 7.983 7.983 0 0 0 2.53-.38c.14.36.29.72.41 1.08.12.36.17.47.23.72l.21.74c.11.46.23 1 .33 1.41.1.41.13.62.19.93-.16-.34-.48-1-.52-1.07-.52-.83-2-2.13-3.08-1.86a1.3 1.3 0 0 0-.85 1.74 2.601 2.601 0 0 0 1.63 1.35H612a1.842 1.842 0 0 0-.05-.22c.13-.06.86-.35 1.51-.71a5.77 5.77 0 0 0 1.29.93h1c0-.38.12-.85.12-.9a5.096 5.096 0 0 0-.68-2.45 1.285 1.285 0 0 0-1.048-1.406 1.287 1.287 0 0 0-.542.016c-1.06.28-1.73 2.14-1.78 3.12 0 .06 0 .69.06 1.09a38.212 38.212 0 0 0-.53-2.13c-.07-.24-.14-.48-.22-.73-.08-.25-.17-.49-.25-.74-.21-.57-.45-1.15-.71-1.72a8.175 8.175 0 0 0 2.45-.91 2.72 2.72 0 0 0 1.19-1.95 1.298 1.298 0 0 0-.401-.98 1.271 1.271 0 0 0-.462-.282 1.272 1.272 0 0 0-.537-.068c-1.09.11-2 1.85-2.24 2.81 0 .06-.08.77-.1 1.16-.16-.34-.31-.69-.48-1-.49-1-1-2-1.54-2.94-.15-.3-.31-.6-.47-.9a8.904 8.904 0 0 0 2.54-.94c.33-.217.608-.505.813-.842.206-.337.335-.715.377-1.108a1.298 1.298 0 0 0-.401-.98 1.271 1.271 0 0 0-.462-.282 1.272 1.272 0 0 0-.537-.068c-1.09.12-2 1.86-2.24 2.82 0 .07-.1 1.09-.11 1.34-.35-.66-.69-1.32-1-2a21.976 21.976 0 0 1-1.07-2.77A8.746 8.746 0 0 0 608 410c.33-.217.608-.505.813-.842.206-.337.335-.715.377-1.108a1.298 1.298 0 0 0-.401-.98 1.271 1.271 0 0 0-.462-.282 1.272 1.272 0 0 0-.537-.068c-1.09.12-2 1.86-2.24 2.82 0 .07-.11 1.17-.12 1.37 0-.06 0-.11-.05-.17a16.672 16.672 0 0 1-.56-2.92c-.06-.55-.09-1.07-.1-1.58a9.305 9.305 0 0 0 2.58-.65 2.748 2.748 0 0 0 1.4-1.81 1.297 1.297 0 0 0-.298-1.016 1.32 1.32 0 0 0-.427-.333 1.329 1.329 0 0 0-.525-.131c-1.1 0-2.24 1.62-2.54 2.56l-.2 1v-.69c0-.83 0-1.59.11-2.26 0-.38.07-.73.1-1.05a8.723 8.723 0 0 0 2-1.76 2.702 2.702 0 0 0 .41-2.25 1.307 1.307 0 0 0-.732-.764 1.295 1.295 0 0 0-1.058.034c-1 .5-1.23 2.47-1.07 3.43 0 .09.38 1.37.4 1.36 0 .31-.09.65-.13 1-.06.67-.13 1.44-.15 2.27-.029.897-.009 1.795.06 2.69a18.24 18.24 0 0 0 .5 3c-.17-.27-.68-1-.72-1.07-.65-.74-2.32-1.79-3.33-1.37a1.318 1.318 0 0 0-.699.797 1.312 1.312 0 0 0 .119 1.053 2.692 2.692 0 0 0 2.02 1.1ZM621.38 406.22s.35-1.28.36-1.36c.14-1-.17-2.93-1.16-3.41a1.312 1.312 0 0 0-1.77.78 2.741 2.741 0 0 0 .47 2.24 9.43 9.43 0 0 0 2.1 1.75Z" fill="#263238"/><path d="M69.38 161.26s44.73 4.42 67.39 32.15c0 0 23.95-32.12 67-31.46a86.94 86.94 0 1 0-134.37-.62l-.02-.07Z" fill="#D37815"/><path opacity=".4" d="M69.38 161.26s44.73 4.42 67.39 32.15c0 0 23.95-32.12 67-31.46a86.94 86.94 0 1 0-134.37-.62l-.02-.07Z" fill="#fff"/><path d="M179.84 111s-26.74 6.34-41.5 27.84l-.84-31.27.06.41s15.1-27.17 42.28-35.48c0 0-28 6.64-42.49 29.36l-2.06-42.1-.63 60.34c-14.22-21.61-40.13-28-40.13-28 22.89 7.25 36.89 28.87 40.09 34.25l-.21 31.1c-14.27-21.31-39.88-27.6-39.88-27.6 22.34 7.07 36.22 27.84 39.84 33.83l-.59 263.54h7.55l-1.83-245.39c4.87-7.37 18.81-25.78 40.34-32.36 0 0-25.57 6.07-40.5 26.44l-.83-31c3.67-5.91 18.07-26.83 41.33-33.91Z" fill="#263238"/><path d="M179.84 111s-26.74 6.34-41.5 27.84l-.84-31.27.06.41s15.1-27.17 42.28-35.48c0 0-28 6.64-42.49 29.36l-2.06-42.1-.63 60.34c-14.22-21.61-40.13-28-40.13-28 22.89 7.25 36.89 28.87 40.09 34.25l-.21 31.1c-14.27-21.31-39.88-27.6-39.88-27.6 22.34 7.07 36.22 27.84 39.84 33.83l-.59 263.54h7.55l-1.83-245.39c4.87-7.37 18.81-25.78 40.34-32.36 0 0-25.57 6.07-40.5 26.44l-.83-31c3.67-5.91 18.07-26.83 41.33-33.91Z" fill="#263238"/><path d="M35.13 304.65s36.46 3.61 55 26.22c0 0 19.53-26.19 54.6-25.65a70.878 70.878 0 0 0 9.641-75.23A70.88 70.88 0 1 0 35.16 304.71l-.03-.06Z" fill="#D37815"/><path opacity=".4" d="M35.13 304.65s36.46 3.61 55 26.22c0 0 19.53-26.19 54.6-25.65a70.878 70.878 0 0 0 9.641-75.23A70.88 70.88 0 1 0 35.16 304.71l-.03-.06Z" fill="#fff"/><path d="M55.63 279c18.22 5.77 29.53 22.7 32.48 27.59l-.26 120.49h5.24l-.79-105.65c4-6 15.34-21 32.89-26.38 0 0-20.85 4.94-33 21.55l-.68-25.3c3-4.81 14.74-21.85 33.7-27.65 0 0-21.8 5.17-33.83 22.7l-.69-25.5v.34S103 239 125.19 232.26c0 0-22.82 5.42-34.65 23.94l-1.67-34.32-.52 49.19c-11.59-17.62-32.72-22.81-32.72-22.81 18.66 5.91 30.08 23.54 32.69 27.93l-.17 25.36C76.51 284.18 55.63 279 55.63 279Z" fill="#263238"/><path d="M55.63 279c18.22 5.77 29.53 22.7 32.48 27.59l-.26 120.49h5.24l-.79-105.65c4-6 15.34-21 32.89-26.38 0 0-20.85 4.94-33 21.55l-.68-25.3c3-4.81 14.74-21.85 33.7-27.65 0 0-21.8 5.17-33.83 22.7l-.69-25.5v.34S103 239 125.19 232.26c0 0-22.82 5.42-34.65 23.94l-1.67-34.32-.52 49.19c-11.59-17.62-32.72-22.81-32.72-22.81 18.66 5.91 30.08 23.54 32.69 27.93l-.17 25.36C76.51 284.18 55.63 279 55.63 279Z" fill="#263238"/><path d="M560.36 304.65s36.47 3.61 54.95 26.22c0 0 19.53-26.19 54.6-25.65a70.898 70.898 0 0 0 15.743-36.222A70.89 70.89 0 1 0 560.35 304.71l.01-.06Z" fill="#D37815"/><path opacity=".4" d="M560.36 304.65s36.47 3.61 54.95 26.22c0 0 19.53-26.19 54.6-25.65a70.898 70.898 0 0 0 15.743-36.222A70.89 70.89 0 1 0 560.35 304.71l.01-.06Z" fill="#fff"/><path d="M580.87 279c18.21 5.77 29.53 22.7 32.48 27.59l-.27 120.49h5.24l-.78-105.69c4-6 15.33-21 32.88-26.38 0 0-20.84 4.94-33 21.55l-.69-25.3c3-4.81 14.74-21.85 33.7-27.65 0 0-21.8 5.17-33.83 22.7l-.69-25.5.05.34s12.31-22.16 34.47-28.93c0 0-22.81 5.42-34.64 23.94l-1.67-34.32-.52 49.19c-11.6-17.62-32.72-22.81-32.72-22.81 18.66 5.91 30.08 23.54 32.68 27.93l-.17 25.36C601.75 284.18 580.87 279 580.87 279Z" fill="#263238"/><path d="M580.87 279c18.21 5.77 29.53 22.7 32.48 27.59l-.27 120.49h5.24l-.78-105.69c4-6 15.33-21 32.88-26.38 0 0-20.84 4.94-33 21.55l-.69-25.3c3-4.81 14.74-21.85 33.7-27.65 0 0-21.8 5.17-33.83 22.7l-.69-25.5.05.34s12.31-22.16 34.47-28.93c0 0-22.81 5.42-34.64 23.94l-1.67-34.32-.52 49.19c-11.6-17.62-32.72-22.81-32.72-22.81 18.66 5.91 30.08 23.54 32.68 27.93l-.17 25.36C601.75 284.18 580.87 279 580.87 279Z" fill="#263238"/><path d="m506.74 143.23-36.04 36.04" stroke="#263238" stroke-linecap="round" stroke-linejoin="round"/><path d="m465.71 184.26 4.16-9.91 1.21 4.54 4.54 1.21-9.91 4.16Z" fill="#263238"/><path d="m525.62 150.4-17.29 29.71" stroke="#263238" stroke-linecap="round" stroke-linejoin="round"/><path d="m504.78 186.21 1.49-10.64 2.33 4.09h4.7l-8.52 6.55Z" fill="#263238"/><path d="m514.55 110.02-111.88 69.85" stroke="#263238" stroke-linecap="round" stroke-linejoin="round"/><path d="m396.68 183.61 6.29-8.72.15 4.7 4.15 2.2-10.59 1.82Z" fill="#263238"/><path d="M560.908 123.63c17.606-3.662 28.909-20.903 25.247-38.509-3.662-17.605-20.902-28.909-38.508-25.247-17.606 3.662-28.909 20.903-25.247 38.509 3.662 17.605 20.903 28.909 38.508 25.247Z" fill="#D37815" stroke="#263238" stroke-miterlimit="10"/><path d="M554.28 35.13v15.63M554.28 132.81v15.63M610.93 91.79H595.3M513.25 91.79h-15.63M594.34 51.72l-11.05 11.06M525.27 120.8l-11.06 11.05M514.21 51.72l11.06 11.06M583.29 120.8l11.05 11.05" stroke="#263238" stroke-miterlimit="10"/><path d="M576.9 319.61H160.74v107.07H576.9V319.61Z" fill="#fff"/><path opacity=".31" d="M576.9 319.61H160.74v19.06H576.9v-19.06Z" fill="#000"/><path d="M576.9 319.61H160.74v107.07H576.9V319.61Z" stroke="#263238" stroke-linecap="round" stroke-linejoin="round"/><path d="M581.17 319.61H156.48v4.9h424.69v-4.9Z" fill="#fff" stroke="#263238" stroke-linecap="round" stroke-linejoin="round"/><path d="M582.29 319.69H151.93l35.86-122.96h358.63l35.87 122.96Z" fill="#263238" stroke="#263238" stroke-linecap="round" stroke-linejoin="round"/><path d="M238.39 300.26h-64.71l24.63-91.35 56.79.24-16.71 91.11Z" fill="#D37815" stroke="#fff" stroke-miterlimit="10"/><path d="m212.29 209.09-22.6 91.01M226.97 209.15l-20.56 90.95M241.63 209.21 223.1 300.1M194.99 221.58l58.22.21M191.08 236.09l59.48.17M186.99 251.24l60.81.13M182.73 267.07l62.19.1M178.26 283.64l63.64.05" stroke="#fff" stroke-miterlimit="10"/><path d="M313.98 300.26h-64.26l15.33-91.07 56.44.23-7.51 90.84Z" fill="#D37815" stroke="#fff" stroke-miterlimit="10"/><path d="M278.96 209.37 265.6 300.1M293.55 209.43l-11.34 90.67M308.12 209.49l-9.33 90.61M263.01 221.82l57.87.21M260.58 236.29l59.11.17M258.04 251.4l60.41.13M255.39 267.18l61.77.1M252.61 283.7l63.2.05" stroke="#fff" stroke-miterlimit="10"/><path d="M494.77 300.26h64.7l-24.63-91.35-56.78.24 16.71 91.11Z" fill="#D37815" stroke="#fff" stroke-miterlimit="10"/><path d="m520.86 209.09 22.6 91.01M506.18 209.15l20.56 90.95M491.53 209.21l18.52 90.89M538.17 221.58l-58.23.21M542.08 236.09l-59.49.17M546.16 251.24l-60.81.13M550.43 267.07l-62.19.1M554.89 283.64l-63.63.05" stroke="#fff" stroke-miterlimit="10"/><path d="M419.17 300.26h64.26l-15.33-91.07-56.44.23 7.51 90.84Z" fill="#D37815" stroke="#fff" stroke-miterlimit="10"/><path d="m454.2 209.37 13.35 90.73M439.61 209.43l11.34 90.67M425.04 209.49l9.33 90.61M470.14 221.82l-57.86.21M472.57 236.29l-59.11.17M475.11 251.4l-60.41.13M477.77 267.18l-61.78.1M480.54 283.7l-63.2.05" stroke="#fff" stroke-miterlimit="10"/><path d="M344.81 338.66h-8.04v13.93h8.04v-13.93ZM344.81 355.52h-8.04v12.47h8.04v-12.47ZM344.81 370.91h-8.04v12.47h8.04v-12.47ZM344.81 386.31h-8.04v15.99h8.04v-15.99ZM334.72 386.31h-9.69v15.99h9.69v-15.99ZM334.72 370.91h-9.69v12.47h9.69v-12.47ZM334.72 355.52h-9.69v12.47h9.69v-12.47ZM334.72 338.66h-9.69v13.93h9.69v-13.93ZM411.59 338.66h-8.05v13.93h8.05v-13.93ZM411.59 355.52h-8.05v12.47h8.05v-12.47ZM411.59 370.91h-8.05v12.47h8.05v-12.47ZM411.59 386.31h-8.05v15.99h8.05v-15.99ZM401.49 386.31h-9.69v15.99h9.69v-15.99ZM401.49 370.91h-9.69v12.47h9.69v-12.47ZM401.49 355.52h-9.69v12.47h9.69v-12.47ZM401.49 338.66h-9.69v13.93h9.69v-13.93Z" fill="#CCC"/><path d="M389.36 337.98h-41.75v79.98h41.75v-79.98Z" fill="#D37815" stroke="#263238" stroke-linecap="round" stroke-linejoin="round"/><path d="M383.97 342.7h-30.3v39.06h30.3V342.7ZM383.97 396.57h-30.3v16.16h30.3v-16.16ZM383.97 386.47h-30.3v6.06h30.3v-6.06Z" stroke="#263238" stroke-width=".5" stroke-linecap="round" stroke-linejoin="round"/><path d="M352.46 376.93h-3.79v12.8h3.79v-12.8Z" fill="#263238"/><path d="M369.16 332.86a7.02 7.02 0 1 0 0-14.04 7.02 7.02 0 0 0 0 14.04Z" stroke="#263238" stroke-linecap="round" stroke-linejoin="round"/><path d="M371.9 338.67h-5.5l-1.07-6.78h7.64l-1.07 6.78Z" fill="#fff" stroke="#263238" stroke-width="2" stroke-linecap="round" stroke-linejoin="round"/><path d="M371.36 326.51h-4.42l-2.31 5.37h9.03l-2.3-5.37Z" fill="#fff" stroke="#263238" stroke-linecap="round" stroke-linejoin="round"/><path d="M370.25 323.84h-2.2v2.61h2.2v-2.61Z" fill="#263238" stroke="#263238" stroke-linecap="round" stroke-linejoin="round"/><path d="m330.93 327.81 10.75-3.39a85.764 85.764 0 0 1 49.87-.47l13.11 3.86h21.39V302l-59.5-70.45L308.17 302v25.77l22.76.04Z" fill="#fff" stroke="#263238" stroke-linecap="round" stroke-linejoin="round"/><path d="M426.05 417.26H308.17v9.43h117.88v-9.43Z" fill="#263238" stroke="#263238" stroke-linecap="round" stroke-linejoin="round"/><path d="M332.05 418.22v7.38M338.15 418.22v7.38M344.24 418.22v7.38M350.34 418.22v7.38M356.44 418.22v7.38M362.54 418.22v7.38M368.63 418.22v7.38M374.73 418.22v7.38M380.83 418.22v7.38M386.93 418.22v7.38M393.03 418.22v7.38M399.12 418.22v7.38M405.22 418.22v7.38" stroke="#B0B0B0" stroke-linecap="round" stroke-linejoin="round"/><path d="m367.11 222.5-72.06 91.71h34.76v-9h-17.64l54.94-67.75 54.94 67.75h-17.54v9h34.66l-72.06-91.71ZM329.76 314.21h-34.71v8.29h34.71v-8.29ZM311.09 336.05h-10.31v84.68h10.31v-84.68Z" fill="#fff" stroke="#263238" stroke-linecap="round" stroke-linejoin="round"/><path d="M311.68 332.96h-11.49v3.2h11.49v-3.2Z" fill="#fff" stroke="#263238" stroke-linecap="round" stroke-linejoin="round"/><path d="M312.47 322.61H299.4v10.53h13.07v-10.53ZM300.19 416.27h11.49v-3.2h-11.49v3.2Z" fill="#fff" stroke="#263238" stroke-linecap="round" stroke-linejoin="round"/><path d="M299.4 426.62h13.07v-10.53H299.4v10.53ZM326.45 336.05h-10.31v84.68h10.31v-84.68Z" fill="#fff" stroke="#263238" stroke-linecap="round" stroke-linejoin="round"/><path d="M327.05 332.96h-11.49v3.2h11.49v-3.2Z" fill="#fff" stroke="#263238" stroke-linecap="round" stroke-linejoin="round"/><path d="M327.84 322.61h-13.07v10.53h13.07v-10.53ZM315.55 416.27h11.49v-3.2h-11.49v3.2Z" fill="#fff" stroke="#263238" stroke-linecap="round" stroke-linejoin="round"/><path d="M314.76 426.62h13.07v-10.53h-13.07v10.53ZM439.16 314.21h-34.71v8.29h34.71v-8.29ZM420.49 336.05h-10.31v84.68h10.31v-84.68Z" fill="#fff" stroke="#263238" stroke-linecap="round" stroke-linejoin="round"/><path d="M421.08 332.96h-11.49v3.2h11.49v-3.2Z" fill="#fff" stroke="#263238" stroke-linecap="round" stroke-linejoin="round"/><path d="M421.87 322.61H408.8v10.53h13.07v-10.53ZM409.59 416.27h11.49v-3.2h-11.49v3.2Z" fill="#fff" stroke="#263238" stroke-linecap="round" stroke-linejoin="round"/><path d="M408.8 426.62h13.07v-10.53H408.8v10.53ZM435.85 336.05h-10.31v84.68h10.31v-84.68Z" fill="#fff" stroke="#263238" stroke-linecap="round" stroke-linejoin="round"/><path d="M436.45 332.96h-11.49v3.2h11.49v-3.2Z" fill="#fff" stroke="#263238" stroke-linecap="round" stroke-linejoin="round"/><path d="M437.23 322.61h-13.07v10.53h13.07v-10.53ZM424.95 416.27h11.49v-3.2h-11.49v3.2Z" fill="#fff" stroke="#263238" stroke-linecap="round" stroke-linejoin="round"/><path d="M424.17 426.62h13.07v-10.53h-13.07v10.53Z" fill="#fff" stroke="#263238" stroke-linecap="round" stroke-linejoin="round"/><path d="M205.25 370.91h-9.9v12.47h9.9v-12.47ZM193.3 338.66h-8.05v13.93h8.05v-13.93ZM193.3 355.52h-8.05v12.47h8.05v-12.47ZM205.25 355.52h-9.9v12.47h9.9v-12.47ZM193.3 370.91h-8.05v12.47h8.05v-12.47ZM205.25 338.66h-9.9v13.93h9.9v-13.93ZM193.3 386.31h-8.05v15.99h8.05v-15.99ZM205.25 386.31h-9.9v15.99h9.9v-15.99ZM183.19 386.31h-9.69v15.99h9.69v-15.99ZM183.19 370.91h-9.69v12.47h9.69v-12.47ZM183.19 355.52h-9.69v12.47h9.69v-12.47ZM183.19 338.66h-9.69v13.93h9.69v-13.93ZM243.28 370.91h-9.9v12.47h9.9v-12.47ZM231.33 338.66h-8.05v13.93h8.05v-13.93ZM231.33 355.52h-8.05v12.47h8.05v-12.47ZM243.28 355.52h-9.9v12.47h9.9v-12.47ZM231.33 370.91h-8.05v12.47h8.05v-12.47ZM243.28 338.66h-9.9v13.93h9.9v-13.93ZM231.33 386.31h-8.05v15.99h8.05v-15.99ZM243.28 386.31h-9.9v15.99h9.9v-15.99ZM221.23 386.31h-9.69v15.99h9.69v-15.99ZM221.23 370.91h-9.69v12.47h9.69v-12.47ZM221.23 355.52h-9.69v12.47h9.69v-12.47ZM221.23 338.66h-9.69v13.93h9.69v-13.93ZM281.32 370.91h-9.9v12.47h9.9v-12.47ZM269.36 338.66h-8.05v13.93h8.05v-13.93ZM269.36 355.52h-8.05v12.47h8.05v-12.47ZM281.32 355.52h-9.9v12.47h9.9v-12.47ZM269.36 370.91h-8.05v12.47h8.05v-12.47ZM281.32 338.66h-9.9v13.93h9.9v-13.93ZM269.36 386.31h-8.05v15.99h8.05v-15.99ZM281.32 386.31h-9.9v15.99h9.9v-15.99ZM259.26 386.31h-9.69v15.99h9.69v-15.99ZM259.26 370.91h-9.69v12.47h9.69v-12.47ZM259.26 355.52h-9.69v12.47h9.69v-12.47ZM259.26 338.66h-9.69v13.93h9.69v-13.93Z" fill="#CCC"/><path d="M285.66 331.92H168.49v75.42h117.17v-75.42Z" stroke="#263238" stroke-linecap="round" stroke-linejoin="round"/><path d="M488.41 370.91h-9.9v12.47h9.9v-12.47ZM476.46 338.66h-8.05v13.93h8.05v-13.93ZM476.46 355.52h-8.05v12.47h8.05v-12.47ZM488.41 355.52h-9.9v12.47h9.9v-12.47ZM476.46 370.91h-8.05v12.47h8.05v-12.47ZM488.41 338.66h-9.9v13.93h9.9v-13.93ZM476.46 386.31h-8.05v15.99h8.05v-15.99ZM488.41 386.31h-9.9v15.99h9.9v-15.99ZM466.36 386.31h-9.69v15.99h9.69v-15.99ZM466.36 370.91h-9.69v12.47h9.69v-12.47ZM466.36 355.52h-9.69v12.47h9.69v-12.47ZM466.36 338.66h-9.69v13.93h9.69v-13.93ZM526.44 370.91h-9.9v12.47h9.9v-12.47ZM514.49 338.66h-8.05v13.93h8.05v-13.93ZM514.49 355.52h-8.05v12.47h8.05v-12.47ZM526.44 355.52h-9.9v12.47h9.9v-12.47ZM514.49 370.91h-8.05v12.47h8.05v-12.47ZM526.44 338.66h-9.9v13.93h9.9v-13.93ZM514.49 386.31h-8.05v15.99h8.05v-15.99ZM526.44 386.31h-9.9v15.99h9.9v-15.99ZM504.39 386.31h-9.69v15.99h9.69v-15.99ZM504.39 370.91h-9.69v12.47h9.69v-12.47ZM504.39 355.52h-9.69v12.47h9.69v-12.47ZM504.39 338.66h-9.69v13.93h9.69v-13.93ZM564.48 370.91h-9.9v12.47h9.9v-12.47ZM552.52 338.66h-8.04v13.93h8.04v-13.93ZM552.52 355.52h-8.04v12.47h8.04v-12.47ZM564.48 355.52h-9.9v12.47h9.9v-12.47ZM552.52 370.91h-8.04v12.47h8.04v-12.47ZM564.48 338.66h-9.9v13.93h9.9v-13.93ZM552.52 386.31h-8.04v15.99h8.04v-15.99ZM564.48 386.31h-9.9v15.99h9.9v-15.99ZM542.43 386.31h-9.69v15.99h9.69v-15.99ZM542.43 370.91h-9.69v12.47h9.69v-12.47ZM542.43 355.52h-9.69v12.47h9.69v-12.47ZM542.43 338.66h-9.69v13.93h9.69v-13.93Z" fill="#CCC"/><path d="M568.82 331.92H451.65v75.42h117.17v-75.42ZM704.99 427.22h7.77M41.04 427.22h653.25M25.49 427.22h6.8" stroke="#263238" stroke-linecap="round" stroke-linejoin="round"/><path d="M629 346.32s-1.67 38.6-1.46 60.52c.21 21.92 2.92 58.5 2.92 58.5l-1.87 3.55.2 5.22 12.11 3.55.83-4.38s2.09-1.67 2.09-2.72c0-1.05-.21-6.68-.21-8.35s6.89-79.3 6.89-79.3l2.92-.21 13.36 85.36-2.78 1.67 3.76 7.3 6.26-2.09 6.68.42a39.924 39.924 0 0 0 1.88-5.42c0-.84-2.3-1.88-2.3-3.34S678 377.41 678 377.41l-4-31.09h-45Z" fill="#263238" stroke="#263238" stroke-miterlimit="10"/><path d="m628.76 474.11-6.88 5.43s-8.77 3.34-8.56 4.8c.21 1.46 1.88 1.67 3.13 1.67h24.84l-.42-8.35-12.11-3.55ZM667.79 477s2.71 8.77 3.55 9.81c.84 1.04 8.56 4.38 10.64 3.76 2.08-.62 4.39-3.55 3.55-6.47-.84-2.92-4.8-8.77-4.8-8.77l-6.68-.42-6.26 2.09ZM651.1 270.77l-10.44 1.46s-4.59 11.68-6.26 31.09-.21 43.62-.21 43.62h35.48s9.18-51.76 6.26-60.31a39.664 39.664 0 0 0-7.72-13.57l-17.11-2.29Z" fill="#fff" stroke="#263238" stroke-miterlimit="10"/><path d="M642.33 278.7s-4.8 15.86-4.8 29.63 2.09 63.86 2.09 63.86l-19.2-4 4.58-32.73-2.09-35.06-16.07 16.91-12-6.82s26.61-36.18 27.45-36.38c.84-.2 23.71-4.61 23.71-4.61l-3.67 9.2Z" fill="#D37815" stroke="#263238" stroke-miterlimit="10"/><path d="m621.76 288.46 1.16 11.94-4.17-12.94M621.25 283.29l.25 2.57" stroke="#263238" stroke-miterlimit="10"/><path d="M666.53 270.06s23.62 6 24.46 6.16c.84.16 26.47 47.14 26.47 47.14l-11.48 5-21.27-26.22-4.4 37.9 5.64 29-24.84 1.88-2.11-29.61 4.38-64.07 3.15-7.18Z" fill="#D37815" stroke="#263238" stroke-miterlimit="10"/><path d="m681.48 292.47 3.23 9.68-5.11-6.19" stroke="#263238" stroke-miterlimit="10"/><path d="M644.73 232.69s-3.88-2.77-3.51-4.07c.37-1.3 8.87-6.28 10.16-6.83 1.29-.55 16.81 2.77 19.4 4.43 2.59 1.66 5.35 11.46 5.72 16.07.37 4.61-11.08 13.71-11.08 13.71l-7.39.18.92-5.54-7.57-1.48 1.29-6.28-6.83-7.58 1.84-4.25-2.95 1.64Z" fill="#263238" stroke="#263238" stroke-miterlimit="10"/><path d="m647.18 265.82-6.27 8.18s-3.21 8.45-2.48 8c.73-.45 4.66-4.23 4.66-4.23l9.4 5.71 10.87-5.42 5.39 5.83s1.17-16.47.3-17.78c-.87-1.31-5.54-2.34-6.71-2.48-1.17-.14-15.16 2.19-15.16 2.19Z" fill="#fff" stroke="#263238" stroke-miterlimit="10"/><path d="M646.94 228.62s-8.12 8.69-7.2 10.53a11.68 11.68 0 0 1 1.11 3.14s-6.47 5.73-5.54 6.84a17.295 17.295 0 0 0 3.51 2.59s-1.11 7.76 0 9.6c1.11 1.84 7.2.74 7.2.74s4.25 22.91 6.47 21.43c2.22-1.48 12.74-15.15 12.56-16.81-.18-1.66.37-10.16.37-10.71 0-.55-3.7-.19-3.7-.19s4.81-7 3-9.05c-1.81-2.05-5.54-1.48-6.84-.56a8.993 8.993 0 0 0-2 2l-2-.56a39.743 39.743 0 0 0 1.66-4.25c.19-.92-4.25-5.35-4.06-6.09.173-.338.395-.648.66-.92 1.47-1.71 4.88-5 4.88-5l-10.08-2.73Z" fill="#fff" stroke="#263238" stroke-miterlimit="10"/><path d="M644.48 243.87c-.08.91-.46 1.61-.84 1.58-.38-.03-.62-.8-.53-1.71.09-.91.46-1.61.84-1.57.38.04.62.83.53 1.7Z" fill="#263238"/><path d="M642.36 239.46s2.34-1.7 3.93.53M640 253.37s4.46.31 6.69-2.34" stroke="#263238" stroke-miterlimit="10"/><path d="m646.02 262.06 6.75-.94-5.63 6.47-1.12-5.53Z" fill="#263238" stroke="#263238" stroke-miterlimit="10"/><path d="m607.57 340.75 4.83-4.61-5.18-3.57.35 8.18Z" fill="#fff" stroke="#263238" stroke-miterlimit="10"/><path d="m609.87 323.59 3.81 4.4-2.89 10.11-4.9-3.99 3.98-10.52Z" fill="#fff" stroke="#263238" stroke-miterlimit="10"/><path d="M599.43 304s-6 7.41-7 9.77c-1 2.36 15.16 26.94 15.16 26.94l3.91-15.55-2.88-8.64 1.32-5-6.5-2.5" fill="#D37815"/><path d="M599.43 304s-6 7.41-7 9.77c-1 2.36 15.16 26.94 15.16 26.94l3.91-15.55-2.88-8.64 1.32-5-6.5-2.5" stroke="#263238" stroke-miterlimit="10"/><path d="m613.21 327.73 8.12-1.13s5.83 5.28 6.11 6a3.117 3.117 0 0 1-.14 2.22 3.85 3.85 0 0 1-1.11 1.67s-2.22 5.42-2.64 6.12c-.42.7-2.92.42-3.89.28-.97-.14-8.87-4.77-8.87-4.77l2.42-10.39ZM692.88 328.55l-2.09 2.64 3.35 8.67 4.44-2.55-5.7-8.76Z" fill="#fff" stroke="#263238" stroke-miterlimit="10"/><path d="m704.6 315.76-13.11 12.65 8.89 11.26s17.84-14.6 16.87-17c-.97-2.4-5.15-8.2-5.15-8.2" fill="#D37815"/><path d="m704.6 315.76-13.11 12.65 8.89 11.26s17.84-14.6 16.87-17c-.97-2.4-5.15-8.2-5.15-8.2" stroke="#263238" stroke-miterlimit="10"/><path d="m690.79 331.19-7.64-1.39s-5.84 5.28-6.12 6a3.123 3.123 0 0 0 .14 2.22 3.913 3.913 0 0 0 1.11 1.67s2.22 5.42 2.64 6.12c.42.7 2.92.41 3.89.27.97-.14 8.54-8.11 8.54-8.11l-2.56-6.78Z" fill="#fff" stroke="#263238" stroke-miterlimit="10"/></svg>