<svg width="692" height="500" fill="none" xmlns="http://www.w3.org/2000/svg"><path d="M610.196 427.12c30.919-52.56 38.854-118.88 30.015-179.7a253.64 253.64 0 0 0-7.382-34.21C611.11 138.69 555.39 79 489.447 47.59c-62.917-30-142.451-44.82-202.064 1.35-39.25 30.4-61.477 79.12-97.415 113.22-17.863 17-37.414 22.45-58.673 32.59C79.506 219.46 36.15 267.11 32.589 330c-2.131 33.995 5.356 67.887 21.46 97.15l556.147-.03Z" fill="#D37815"/><path opacity=".8" d="M610.196 427.12c30.919-52.56 38.854-118.88 30.015-179.7a253.64 253.64 0 0 0-7.382-34.21C611.11 138.69 555.39 79 489.447 47.59c-62.917-30-142.451-44.82-202.064 1.35-39.25 30.4-61.477 79.12-97.415 113.22-17.863 17-37.414 22.45-58.673 32.59C79.506 219.46 36.15 267.11 32.589 330c-2.131 33.995 5.356 67.887 21.46 97.15l556.147-.03Z" fill="#fff"/><path d="M360.338 82.35c-.203-.71-.424-1.41-.664-2.12-8.682-26.18-49.086-28-49.086 4.19 0 6.19-13.72 0-18.859 8-5.139 8 .572 13-6.293 15.49-6.864 2.49-7.427-3.72-16.008-3.1-8.581.62-7.427 9.29-10.288 11.77-2.86 2.48-2.86 1.24-9.143 1.86-6.284.62-7.437 5.58-7.437 5.58h150.395s5.711-18.59-4.614-25.4c-10.324-6.81-10.287 2.47-18.296-1.24-6.616-3.02-7.852-8.85-9.707-15.03Z" stroke="#D37815" stroke-linecap="round" stroke-linejoin="round"/><path d="M365.542 117.29s3.109-10.43-4.53-18.11c-7.64-7.68-15.575-3.37-17.835 0-2.261 3.37-2.27 9.82-5.952 10.44-3.681.62-2.823-6.75-10.758-4.91-7.935 1.84-4.807 10.43-8.488 12.27-3.682 1.84-3.691-4.91-8.784-2.76-5.093 2.15-4.807 6.14-4.807 6.14M324.88 96.44c-2.086-1.608-4.531-2.581-7.081-2.82-2.55-.24-5.113.265-7.423 1.46-8.193 4.1-4.411 12.64-8.193 14.69-3.783 2.05-5.675-.35-10.408 2s-4.41 5.8-4.41 5.8M251.943 140.48c-.092-.3-.193-.61-.295-.92-3.774-11.39-21.35-12.17-21.35 1.82 0 2.7-5.97 0-8.212 3.5s.249 5.67-2.768 6.74c-3.017 1.07-3.239-1.61-6.966-1.34-3.728.27-3.239 4-4.475 5.12-1.236 1.12-1.246.54-3.986.81s-3.229 2.42-3.229 2.42h65.407s2.492-8.08-1.992-11c-4.485-2.92-4.475 1.08-7.954-.54-2.842-1.39-3.377-3.92-4.18-6.61Z" stroke="#D37815" stroke-linecap="round" stroke-linejoin="round"/><path d="M254.204 155.68a8.53 8.53 0 0 0 .022-4.232 8.06 8.06 0 0 0-1.996-3.638c-3.322-3.34-6.773-1.47-7.76 0-.987 1.47-.987 4.27-2.583 4.54-1.597.27-1.237-2.94-4.688-2.14-3.45.8-2.094 4.54-3.69 5.34-1.597.8-1.606-2.14-3.82-1.2-2.215.94-2.095 2.67-2.095 2.67M236.507 146.61a5.933 5.933 0 0 0-3.076-1.228 5.795 5.795 0 0 0-3.225.638c-3.571 1.78-1.929 5.5-3.571 6.39-1.643.89-2.464-.15-4.521.89-2.058 1.04-1.919 2.53-1.919 2.53M597.999 140.48c-.093-.3-.185-.61-.286-.92-3.783-11.39-21.36-12.17-21.36 1.82 0 2.7-5.97 0-8.203 3.5-2.232 3.5.25 5.67-2.768 6.74-3.017 1.07-3.229-1.61-6.956-1.34-3.728.27-3.239 4-4.485 5.12-1.245 1.12-1.236.54-3.976.81-2.741.27-3.23 2.42-3.23 2.42h65.408s2.482-8.08-1.993-11c-4.475-2.92-4.475 1.08-7.953-.54-2.851-1.39-3.386-3.92-4.198-6.61Z" stroke="#D37815" stroke-linecap="round" stroke-linejoin="round"/><path d="M600.259 155.68a8.538 8.538 0 0 0 .025-4.231 8.068 8.068 0 0 0-1.99-3.639c-3.331-3.34-6.772-1.47-7.76 0-.987 1.47-.987 4.27-2.592 4.54-1.606.27-1.227-2.94-4.678-2.14-3.451.8-2.095 4.54-3.691 5.34-1.596.8-1.605-2.14-3.82-1.2-2.214.94-2.094 2.67-2.094 2.67M582.572 146.61a5.943 5.943 0 0 0-3.081-1.23 5.822 5.822 0 0 0-3.23.64c-3.562 1.78-1.919 5.5-3.562 6.39-1.642.89-2.473-.15-4.53.89-2.058 1.04-1.919 2.53-1.919 2.53" stroke="#D37815" stroke-linecap="round" stroke-linejoin="round"/><path d="M101.659 392.7c1.33.38 2.704.545 4.079.49 0 0-.619-2.05-.674-2.17-.637-1.44-2.639-3.82-4.272-3.58a1.86 1.86 0 0 0-.759.318c-.23.163-.425.376-.573.626a2.28 2.28 0 0 0-.237 1.706c.205.602.529 1.148.95 1.599.421.451.928.796 1.486 1.011ZM130.096 425.9a2.273 2.273 0 0 0 .063-1.726 2.134 2.134 0 0 0-.453-.734 1.959 1.959 0 0 0-.689-.47c-1.56-.56-3.949 1.36-4.817 2.64 0 .06-.332.6-.599 1.1h5.951c.223-.234.407-.508.544-.81Z" fill="#263238"/><path d="M121.257 417.57a11.95 11.95 0 0 0 3.478 1.75c-.12.62-.24 1.23-.387 1.83-.102.4-.176.79-.305 1.19-.129.4-.23.78-.35 1.17-.249.74-.499 1.5-.757 2.21-.12.35-.24.67-.36 1h.969c.074-.21.148-.42.222-.65.249-.74.479-1.48.728-2.28l.333-1.18c.11-.39.193-.82.286-1.24.212-1 .387-1.95.544-3 1.218.546 2.506.883 3.82 1a3.836 3.836 0 0 0 1.715-.42 4.158 4.158 0 0 0 1.394-1.16c.157-.243.266-.52.318-.812a2.291 2.291 0 0 0-.015-.881 2.204 2.204 0 0 0-.344-.799 2.012 2.012 0 0 0-.614-.578c-1.467-.81-4.097.69-5.139 1.82-.065.07-.729 1-1.08 1.47.083-.6.176-1.21.24-1.82.203-1.77.36-3.57.526-5.36 0-.55.102-1.1.157-1.65 1.262.547 2.594.885 3.949 1a3.836 3.836 0 0 0 1.715-.42 4.148 4.148 0 0 0 1.394-1.16c.158-.243.266-.52.318-.812a2.291 2.291 0 0 0-.015-.881 2.187 2.187 0 0 0-.344-.799 2.012 2.012 0 0 0-.614-.578c-1.467-.81-4.096.69-5.139 1.82-.074.08-1.033 1.38-1.255 1.72.111-1.21.24-2.41.415-3.59.214-1.59.522-3.163.923-4.71 1.272.548 2.612.885 3.977 1a3.8 3.8 0 0 0 1.711-.418 4.118 4.118 0 0 0 1.389-1.162c.158-.242.268-.518.321-.809a2.272 2.272 0 0 0-.014-.881 2.19 2.19 0 0 0-.346-.797 1.99 1.99 0 0 0-.616-.573c-1.467-.82-4.088.69-5.13 1.82-.083.08-1.107 1.48-1.283 1.74a2.79 2.79 0 0 0 .065-.27 28.164 28.164 0 0 1 1.725-4.46c.379-.8.775-1.54 1.181-2.24a12.65 12.65 0 0 0 3.765 1.43 3.746 3.746 0 0 0 1.747-.209 4.017 4.017 0 0 0 1.501-.991c.18-.222.316-.484.397-.767a2.245 2.245 0 0 0-.187-1.708 2.05 2.05 0 0 0-.552-.645c-1.375-1-4.133.2-5.287 1.19-.064.06-.646.68-1.061 1.14l.563-.94c.683-1.13 1.384-2.11 2.002-3 .36-.49.692-.92 1.006-1.33a11.993 11.993 0 0 0 3.931-.6 4.067 4.067 0 0 0 1.46-1.061c.409-.464.72-1.02.911-1.629a2.276 2.276 0 0 0-.277-1.692 2.017 2.017 0 0 0-.585-.61 1.848 1.848 0 0 0-.762-.298c-1.642-.19-3.589 2.24-4.189 3.7-.055.13-.655 2.2-.618 2.2-.305.38-.637.79-.987 1.25-.637.85-1.357 1.82-2.067 2.94a37.762 37.762 0 0 0-2.15 3.71 27.274 27.274 0 0 0-1.845 4.48v.05-2.1c-.185-1.58-1.412-4.51-3.036-4.84a1.8 1.8 0 0 0-.812.051c-.264.078-.51.216-.722.405a2.088 2.088 0 0 0-.506.69 2.25 2.25 0 0 0-.202.854c.023.641.174 1.27.443 1.841.269.572.65 1.073 1.116 1.469a13.435 13.435 0 0 0 3.691 1.83 40.106 40.106 0 0 0-1.089 4.85c-.157 1-.286 1.92-.406 2.9v-.92c-.194-1.58-1.411-4.51-3.035-4.84a1.809 1.809 0 0 0-.814.051 1.9 1.9 0 0 0-.724.405 2.087 2.087 0 0 0-.508.69 2.274 2.274 0 0 0-.206.854c.025.642.178 1.27.449 1.842a4.387 4.387 0 0 0 1.12 1.468 12.662 12.662 0 0 0 3.58 1.79c0 .37-.083.74-.129 1.12-.194 1.79-.388 3.58-.619 5.33-.083.62-.184 1.22-.286 1.82v-.79c-.184-1.58-1.411-4.51-3.026-4.84a1.805 1.805 0 0 0-.813.051 1.892 1.892 0 0 0-.724.405 2.09 2.09 0 0 0-.509.69 2.254 2.254 0 0 0-.205.854c.022.64.173 1.268.44 1.839a4.391 4.391 0 0 0 1.11 1.471Z" fill="#263238"/><path d="M102.665 401.79a12.611 12.611 0 0 0 4.014-.69 39.806 39.806 0 0 0 1.559 4.7c.36.89.738 1.77 1.135 2.66a11.86 11.86 0 0 0-.48-.75c-.923-1.21-3.478-2.93-5.001-2.23a1.987 1.987 0 0 0-.647.527 2.17 2.17 0 0 0-.395.767 2.3 2.3 0 0 0-.075.874c.032.294.12.577.259.832.347.52.794.952 1.31 1.266a3.868 3.868 0 0 0 1.68.554 12.181 12.181 0 0 0 3.902-.65c.148.34.305.68.462 1 .747 1.61 1.495 3.22 2.187 4.82.249.57.47 1.13.692 1.69-.203-.33-.388-.6-.416-.64-.922-1.21-3.478-2.93-5.001-2.23-.248.124-.47.303-.65.525-.18.223-.315.484-.396.767a2.29 2.29 0 0 0-.074.876c.033.294.122.578.262.832a4.21 4.21 0 0 0 1.308 1.273 3.833 3.833 0 0 0 1.682.557 11.659 11.659 0 0 0 3.792-.62c.212.59.434 1.17.609 1.75.12.4.258.77.351 1.18l.304 1.19c.175.76.351 1.55.498 2.29.111.52.203 1 .296 1.52-.24-.56-.729-1.66-.775-1.74-.785-1.35-3.027-3.46-4.614-3a1.906 1.906 0 0 0-.72.412c-.211.19-.382.426-.503.693a2.27 2.27 0 0 0-.059 1.725c.244.529.588.997 1.009 1.374.421.377.91.655 1.436.816h5.231c0-.12-.055-.24-.074-.37a19.561 19.561 0 0 0 2.252-1.15 9.108 9.108 0 0 0 1.937 1.52h1.532c.083-.62.175-1.38.175-1.46a8.635 8.635 0 0 0-1.015-4 2.21 2.21 0 0 0-.264-1.303 2.054 2.054 0 0 0-.554-.644 1.862 1.862 0 0 0-.749-.342 1.8 1.8 0 0 0-.813.019c-1.596.46-2.602 3.49-2.685 5.09 0 .09.055 1.12.101 1.76-.083-.37-.156-.74-.239-1.12-.167-.77-.36-1.52-.554-2.34l-.332-1.18c-.102-.4-.259-.8-.379-1.21-.322-.93-.682-1.86-1.061-2.79a12.13 12.13 0 0 0 3.691-1.49 4.286 4.286 0 0 0 1.217-1.371c.31-.548.505-1.161.573-1.799a2.295 2.295 0 0 0-.151-.866 2.14 2.14 0 0 0-.462-.726 1.927 1.927 0 0 0-.694-.461 1.822 1.822 0 0 0-.806-.117c-1.633.2-3.054 3-3.349 4.59 0 .1-.12 1.24-.166 1.87-.231-.55-.462-1.11-.711-1.66-.738-1.6-1.522-3.19-2.306-4.79l-.702-1.46a13.036 13.036 0 0 0 3.811-1.53 4.31 4.31 0 0 0 1.215-1.373 4.7 4.7 0 0 0 .575-1.797 2.27 2.27 0 0 0-.151-.865 2.14 2.14 0 0 0-.462-.724c-.2-.204-.436-.36-.694-.458a1.822 1.822 0 0 0-.806-.113c-1.633.19-3.054 3-3.358 4.58 0 .12-.157 1.77-.176 2.19a84.429 84.429 0 0 1-1.476-3.24 38.059 38.059 0 0 1-1.605-4.5 13.412 13.412 0 0 0 3.829-1.53 4.33 4.33 0 0 0 1.216-1.378 4.722 4.722 0 0 0 .574-1.802 2.29 2.29 0 0 0-.151-.865 2.143 2.143 0 0 0-.463-.724 1.92 1.92 0 0 0-.694-.458 1.815 1.815 0 0 0-.805-.113c-1.633.19-3.054 3-3.35 4.58 0 .12-.175 1.9-.184 2.22 0-.08-.055-.17-.083-.26a30.002 30.002 0 0 1-.904-4.75c-.093-.88-.139-1.74-.157-2.57a12.39 12.39 0 0 0 3.866-1.05 4.186 4.186 0 0 0 1.349-1.22 4.582 4.582 0 0 0 .754-1.72 2.282 2.282 0 0 0-.059-.871 2.178 2.178 0 0 0-.376-.772 1.988 1.988 0 0 0-.631-.544 1.843 1.843 0 0 0-.779-.223c-1.651 0-3.349 2.64-3.801 4.16 0 .08-.194.95-.305 1.59v-1.13c0-1.35.083-2.58.157-3.68.055-.62.111-1.18.166-1.71a13.327 13.327 0 0 0 2.971-2.85 4.64 4.64 0 0 0 .675-1.758 4.797 4.797 0 0 0-.066-1.902 2.16 2.16 0 0 0-.426-.75 1.968 1.968 0 0 0-.67-.497 1.825 1.825 0 0 0-1.589.047c-1.467.82-1.845 4-1.605 5.59 0 .14.572 2.22.599 2.2a55.628 55.628 0 0 0-.424 5.33 42.108 42.108 0 0 0 .102 4.38c.116 1.631.366 3.247.747 4.83v.06a62.253 62.253 0 0 0-1.089-1.74c-.923-1.2-3.478-2.92-5.001-2.22-.248.124-.47.303-.65.525-.18.223-.315.484-.396.767-.081.283-.106.582-.074.876.033.294.122.578.262.832.35.521.8.953 1.319 1.266a3.86 3.86 0 0 0 1.689.544ZM130.926 393.39s.526-2.08.545-2.22c.203-1.58-.268-4.76-1.753-5.54a1.819 1.819 0 0 0-1.588-.001c-.25.121-.473.297-.656.518a2.147 2.147 0 0 0-.404.763 4.787 4.787 0 0 0-.02 1.904c.121.628.367 1.221.721 1.736a14.348 14.348 0 0 0 3.155 2.84ZM72.89 405.8a8.106 8.106 0 0 0 2.51.3s-.378-1.26-.415-1.34c-.387-.88-1.624-2.35-2.63-2.2a1.14 1.14 0 0 0-.455.205 1.269 1.269 0 0 0-.34.388 1.393 1.393 0 0 0-.128 1.037c.124.365.319.698.57.975.251.278.554.494.889.635ZM90.338 426.21a1.387 1.387 0 0 0-.233-1.51 1.194 1.194 0 0 0-.422-.29c-.923-.35-2.436.84-2.97 1.63 0 0-.204.36-.36.67h3.69c.128-.144.229-.314.295-.5Z" fill="#263238"/><path d="M84.885 421.09c.659.476 1.38.841 2.14 1.08-.073.38-.147.76-.239 1.12-.092.36-.11.49-.184.73s-.148.49-.213.72c-.157.46-.313.93-.47 1.36l-.222.61h.6l.138-.4c.148-.45.286-.91.443-1.4.065-.24.13-.48.203-.73.074-.25.12-.5.176-.76.138-.59.24-1.2.332-1.82a7.347 7.347 0 0 0 2.353.59 2.344 2.344 0 0 0 1.057-.27c.33-.172.621-.422.853-.73.097-.15.164-.32.196-.5a1.41 1.41 0 0 0-.009-.544 1.353 1.353 0 0 0-.213-.492 1.244 1.244 0 0 0-.38-.354c-.923-.5-2.51.43-3.156 1.12l-.664.9c.055-.37.11-.74.147-1.11.13-1.09.222-2.2.323-3.3 0-.34.065-.68.093-1 .779.333 1.6.539 2.435.61a2.344 2.344 0 0 0 1.058-.27c.33-.172.621-.422.852-.73.097-.149.164-.319.197-.498.032-.179.029-.363-.01-.541a1.33 1.33 0 0 0-.213-.489 1.227 1.227 0 0 0-.38-.352c-.922-.5-2.51.42-3.155 1.12 0 .05-.637.84-.775 1.05.074-.74.147-1.48.258-2.2.133-.98.327-1.949.581-2.9a8.121 8.121 0 0 0 2.445.62 2.344 2.344 0 0 0 1.058-.27c.33-.172.621-.422.852-.73a1.395 1.395 0 0 0 .187-1.039 1.328 1.328 0 0 0-.213-.489 1.226 1.226 0 0 0-.38-.352c-.922-.51-2.51.42-3.155 1.11-.046.06-.683.91-.784 1.08a1.506 1.506 0 0 0 0-.17 18.39 18.39 0 0 1 1.06-2.75c.231-.48.48-.94.73-1.37a7.753 7.753 0 0 0 2.315.88c.362.041.728-.004 1.072-.131a2.48 2.48 0 0 0 .921-.609c.111-.137.194-.298.244-.472a1.405 1.405 0 0 0-.116-1.051 1.264 1.264 0 0 0-.34-.397c-.84-.61-2.537.12-3.248.74 0 0-.396.41-.645.7.11-.2.221-.4.34-.58.425-.7.85-1.3 1.228-1.83l.618-.82a7.483 7.483 0 0 0 2.418-.37c.34-.143.647-.365.9-.65.254-.285.447-.626.567-1 .04-.177.045-.362.016-.542a1.364 1.364 0 0 0-.19-.501 1.25 1.25 0 0 0-.361-.375 1.137 1.137 0 0 0-.471-.182c-1.006-.12-2.205 1.37-2.574 2.27 0 .08-.406 1.35-.379 1.35-.193.23-.396.49-.609.77-.396.53-.84 1.12-1.273 1.81a22.19 22.19 0 0 0-1.32 2.28 17.544 17.544 0 0 0-1.134 2.75v-1.29c-.11-1-.867-2.78-1.845-3a1.102 1.102 0 0 0-.498.033 1.173 1.173 0 0 0-.442.247c-.13.114-.237.257-.314.419-.076.162-.12.339-.13.521.014.385.104.762.263 1.107.16.345.384.649.66.893a7.848 7.848 0 0 0 2.269 1.12 25.347 25.347 0 0 0-.664 3c-.102.58-.176 1.18-.25 1.78v-.56c-.12-1-.867-2.78-1.845-3a1.098 1.098 0 0 0-.5.026c-.163.047-.315.13-.446.246-.13.115-.237.259-.313.423a1.372 1.372 0 0 0-.125.525c.015.385.105.762.264 1.107.159.345.383.649.659.893.68.487 1.423.861 2.205 1.11 0 .23-.055.46-.074.69-.129 1.1-.24 2.2-.387 3.27-.056.38-.111.75-.176 1.13v-.49c-.12-1-.876-2.78-1.845-3a1.102 1.102 0 0 0-.497.033 1.173 1.173 0 0 0-.443.247c-.13.114-.237.257-.313.419-.077.162-.121.339-.13.521-.017.438.064.874.236 1.271.171.397.429.743.75 1.009Z" fill="#263238"/><path d="M73.463 411.38a7.712 7.712 0 0 0 2.463-.42c.245.985.554 1.951.923 2.89.212.55.452 1.09.692 1.64l-.295-.46c-.59-.75-2.14-1.8-3.073-1.37a1.217 1.217 0 0 0-.4.321 1.342 1.342 0 0 0-.244.47 1.404 1.404 0 0 0 .11 1.049c.213.321.488.588.807.782.319.193.673.309 1.038.338a7.357 7.357 0 0 0 2.398-.39l.277.62c.462 1 .923 2 1.356 3 .148.35.287.7.425 1l-.258-.4c-.59-.74-2.141-1.79-3.073-1.36a1.217 1.217 0 0 0-.4.321 1.343 1.343 0 0 0-.245.47 1.406 1.406 0 0 0 .11 1.049c.213.321.49.588.808.782.319.193.673.309 1.037.338.792.01 1.58-.118 2.335-.38.138.36.267.72.378 1.08.11.36.157.47.212.72l.194.74c.101.46.212 1 .304 1.41.093.41.12.62.176.93-.139-.34-.443-1-.47-1.07-.48-.83-1.846-2.13-2.852-1.86a1.17 1.17 0 0 0-.44.256 1.285 1.285 0 0 0-.305.427 1.389 1.389 0 0 0-.03 1.057c.146.327.355.617.613.85.258.232.558.403.882.5h3.22a1.878 1.878 0 0 1 0-.22c.12-.06.784-.35 1.384-.71.355.368.756.681 1.19.93h.923c.055-.38.11-.85.11-.9a5.317 5.317 0 0 0-.627-2.45c.01-.096.01-.194 0-.29a1.375 1.375 0 0 0-.165-.511 1.262 1.262 0 0 0-.342-.393 1.153 1.153 0 0 0-.46-.209 1.107 1.107 0 0 0-.5.013c-.987.28-1.605 2.14-1.651 3.12 0 .06 0 .69.064 1.09-.055-.23-.101-.46-.147-.7l-.342-1.43a16.58 16.58 0 0 1-.203-.73c-.065-.25-.157-.49-.24-.74a26.16 26.16 0 0 0-.655-1.72 7.102 7.102 0 0 0 2.26-.91c.303-.22.559-.508.75-.845.19-.336.313-.713.358-1.105a1.398 1.398 0 0 0-.092-.534 1.3 1.3 0 0 0-.284-.446 1.178 1.178 0 0 0-.428-.282 1.11 1.11 0 0 0-.497-.068c-1.006.11-1.845 1.85-2.067 2.81 0 .06-.064.77-.092 1.16-.148-.34-.286-.69-.443-1-.452-1-.923-2-1.412-2.94-.147-.3-.295-.6-.433-.9a8.013 8.013 0 0 0 2.343-.94c.303-.219.558-.507.748-.843.19-.337.31-.715.35-1.107a1.4 1.4 0 0 0-.08-.533 1.328 1.328 0 0 0-.273-.452 1.199 1.199 0 0 0-.419-.292 1.111 1.111 0 0 0-.492-.083c-1.006.12-1.845 1.86-2.057 2.82 0 .07-.102 1.09-.111 1.34-.323-.66-.627-1.32-.923-2-.39-.88-.728-1.785-1.015-2.71a7.736 7.736 0 0 0 2.353-1c.306-.217.563-.504.755-.841.191-.337.311-.716.352-1.109a1.398 1.398 0 0 0-.091-.534 1.3 1.3 0 0 0-.285-.446 1.178 1.178 0 0 0-.428-.282 1.11 1.11 0 0 0-.497-.068c-1.005.12-1.845 1.86-2.067 2.82 0 .07-.101 1.17-.101 1.37l-.055-.17a18.954 18.954 0 0 1-.517-2.92c-.055-.55-.074-1.07-.092-1.58a7.993 7.993 0 0 0 2.38-.65c.324-.182.607-.438.83-.751a2.82 2.82 0 0 0 .462-1.059 1.403 1.403 0 0 0-.036-.541 1.328 1.328 0 0 0-.236-.478 1.223 1.223 0 0 0-.395-.333 1.126 1.126 0 0 0-.486-.128c-1.015 0-2.058 1.62-2.344 2.56l-.184 1v-.69c0-.83.055-1.59.101-2.26 0-.38.065-.73.102-1.05a8.71 8.71 0 0 0 1.845-1.76c.21-.323.351-.692.415-1.081a2.918 2.918 0 0 0-.046-1.169 1.315 1.315 0 0 0-.26-.463 1.195 1.195 0 0 0-.414-.305 1.105 1.105 0 0 0-.978.038c-.922.5-1.135 2.47-.987 3.43 0 .09.36 1.37.37 1.36 0 .31-.075.65-.112 1-.064.67-.129 1.44-.147 2.27-.028.897-.007 1.796.064 2.69a17.52 17.52 0 0 0 .462 3l-.674-1.07c-.59-.74-2.14-1.79-3.072-1.37-.153.077-.29.187-.4.324a1.347 1.347 0 0 0-.246.473 1.414 1.414 0 0 0 .11 1.053c.216.318.492.581.811.771.319.19.672.302 1.035.329ZM90.837 406.22s.322-1.28.34-1.36c.12-1-.165-2.93-1.079-3.41a1.135 1.135 0 0 0-.975 0c-.154.073-.291.18-.405.315-.113.134-.2.293-.253.465a2.957 2.957 0 0 0-.01 1.172c.075.386.226.751.444 1.068a8.907 8.907 0 0 0 1.938 1.75ZM555.335 405.8a8.101 8.101 0 0 0 2.509.3s-.387-1.26-.415-1.34c-.397-.88-1.633-2.35-2.629-2.2a1.153 1.153 0 0 0-.451.211 1.26 1.26 0 0 0-.337.387 1.397 1.397 0 0 0-.135 1.032c.125.364.319.696.57.974.251.277.554.494.888.636ZM572.828 426.21a1.416 1.416 0 0 0 .036-1.059 1.323 1.323 0 0 0-.278-.451 1.204 1.204 0 0 0-.422-.29c-.923-.35-2.427.84-2.962 1.63 0 0-.203.36-.369.67h3.691c.129-.145.232-.314.304-.5Z" fill="#263238"/><path d="M567.385 421.09a7.36 7.36 0 0 0 2.14 1.08c-.083.38-.147.76-.24 1.12-.092.36-.11.49-.184.73s-.148.49-.222.72c-.147.46-.304.93-.461 1.36l-.222.61h.591l.138-.4c.157-.45.296-.91.452-1.4.065-.24.13-.48.204-.73.073-.25.11-.5.175-.76.129-.59.24-1.2.332-1.82a7.24 7.24 0 0 0 2.353.59 2.344 2.344 0 0 0 1.057-.271c.33-.172.621-.421.853-.729a1.412 1.412 0 0 0-.029-1.534 1.24 1.24 0 0 0-.377-.356c-.923-.5-2.519.43-3.156 1.12 0 0-.452.6-.664.9.046-.37.101-.74.148-1.11.129-1.09.221-2.2.322-3.3 0-.34.065-.68.093-1 .779.334 1.6.54 2.436.61a2.344 2.344 0 0 0 1.057-.271 2.53 2.53 0 0 0 .852-.729 1.37 1.37 0 0 0 .183-1.038 1.339 1.339 0 0 0-.212-.489 1.22 1.22 0 0 0-.377-.353c-.922-.5-2.518.42-3.155 1.12 0 .05-.637.84-.775 1.05.074-.74.148-1.48.249-2.2a25.38 25.38 0 0 1 .591-2.9 7.936 7.936 0 0 0 2.445.62 2.344 2.344 0 0 0 1.057-.271c.33-.172.621-.421.853-.729a1.387 1.387 0 0 0-.03-1.527 1.227 1.227 0 0 0-.376-.353c-.923-.51-2.519.42-3.156 1.11-.055.06-.683.91-.784 1.08a.965.965 0 0 1 0-.17c.277-.949.632-1.869 1.061-2.75.231-.48.48-.94.729-1.37a7.76 7.76 0 0 0 2.306.88c.364.043.731-.001 1.077-.129s.662-.337.926-.611c.111-.137.194-.298.243-.472a1.401 1.401 0 0 0-.116-1.051 1.256 1.256 0 0 0-.34-.397c-.839-.61-2.537.12-3.247.74 0 0-.397.41-.655.7l.341-.58c.424-.7.858-1.3 1.236-1.83l.618-.82a7.486 7.486 0 0 0 2.418-.37c.338-.145.643-.368.895-.653.252-.284.444-.624.563-.997.042-.177.048-.361.02-.541a1.343 1.343 0 0 0-.187-.502 1.228 1.228 0 0 0-.36-.375 1.131 1.131 0 0 0-.47-.182c-1.015-.12-2.205 1.37-2.574 2.27 0 .08-.406 1.35-.388 1.35-.193.23-.396.49-.609.77-.396.53-.839 1.12-1.282 1.81a26.122 26.122 0 0 0-1.319 2.28c-.447.88-.823 1.8-1.126 2.75v-1.29c-.111-1-.867-2.78-1.845-3a1.122 1.122 0 0 0-.943.276 1.277 1.277 0 0 0-.314.421 1.382 1.382 0 0 0-.127.523c.016.385.106.762.265 1.106.159.345.383.649.657.894a8.004 8.004 0 0 0 2.279 1.12 25.415 25.415 0 0 0-.673 3c-.093.58-.176 1.18-.249 1.78v-.56c-.12-1-.868-2.78-1.846-3a1.099 1.099 0 0 0-.5.026c-.163.047-.315.13-.446.246-.13.115-.237.259-.313.423a1.385 1.385 0 0 0-.125.525c.011.386.099.765.258 1.11.16.346.386.649.665.89.678.49 1.422.865 2.205 1.11l-.083.69c-.12 1.1-.24 2.2-.378 3.27-.056.38-.12.75-.176 1.13v-.49c-.11-1-.867-2.78-1.845-3a1.119 1.119 0 0 0-.498.029 1.179 1.179 0 0 0-.445.247c-.13.115-.237.258-.313.421-.076.163-.12.341-.128.523-.015.439.067.875.241 1.272.173.397.432.743.756 1.008Z" fill="#263238"/><path d="M555.944 411.38a7.763 7.763 0 0 0 2.472-.42c.249.984.557 1.95.923 2.89.222.55.452 1.09.701 1.64l-.295-.46c-.6-.75-2.14-1.8-3.072-1.37a1.213 1.213 0 0 0-.4.321 1.337 1.337 0 0 0-.245.47 1.412 1.412 0 0 0 .109 1.049c.213.322.489.59.808.784a2.35 2.35 0 0 0 1.038.336 7.31 7.31 0 0 0 2.399-.39c.101.2.193.41.286.62.461 1 .922 2 1.347 3 .157.35.286.7.424 1l-.258-.4c-.591-.74-2.131-1.79-3.073-1.36a1.222 1.222 0 0 0-.397.324 1.33 1.33 0 0 0-.242.47 1.404 1.404 0 0 0 .114 1.046c.212.322.488.59.807.784a2.35 2.35 0 0 0 1.038.336 6.84 6.84 0 0 0 2.334-.38c.129.36.268.72.379 1.08.11.36.156.47.212.72l.194.74c.101.46.212 1 .304 1.41.092.41.12.62.175.93-.147-.34-.443-1-.479-1.07-.48-.83-1.846-2.13-2.842-1.86-.163.05-.313.136-.443.253a1.305 1.305 0 0 0-.308.427 1.394 1.394 0 0 0-.034 1.06c.15.327.361.616.62.848.259.233.56.404.884.502h3.248a1.828 1.828 0 0 0-.046-.22c.12-.06.794-.35 1.393-.71.356.368.756.681 1.19.93h.923c0-.38.111-.85.111-.9a5.424 5.424 0 0 0-.628-2.45 1.347 1.347 0 0 0-.162-.803 1.256 1.256 0 0 0-.342-.395 1.149 1.149 0 0 0-.462-.208 1.102 1.102 0 0 0-.501.016c-.978.28-1.596 2.14-1.642 3.12 0 .06 0 .69.055 1.09-.046-.23-.092-.46-.147-.7-.102-.46-.212-.93-.342-1.43-.064-.24-.129-.48-.203-.73-.073-.25-.156-.49-.23-.74-.194-.57-.415-1.15-.655-1.72a7.18 7.18 0 0 0 2.26-.91 2.62 2.62 0 0 0 .747-.844c.19-.337.31-.714.351-1.106a1.38 1.38 0 0 0-.088-.533 1.292 1.292 0 0 0-.282-.447 1.167 1.167 0 0 0-.426-.282 1.092 1.092 0 0 0-.496-.068c-1.005.11-1.845 1.85-2.066 2.81 0 .06-.074.77-.093 1.16-.147-.34-.286-.69-.442-1-.453-1-.923-2-1.421-2.94-.139-.3-.286-.6-.434-.9a7.834 7.834 0 0 0 2.344-.94 2.6 2.6 0 0 0 .75-.842c.19-.337.308-.715.348-1.108a1.419 1.419 0 0 0-.088-.533 1.307 1.307 0 0 0-.282-.447 1.17 1.17 0 0 0-.427-.282 1.088 1.088 0 0 0-.495-.068c-1.006.12-1.846 1.86-2.067 2.82 0 .07-.092 1.09-.101 1.34-.323-.66-.637-1.32-.923-2a23.012 23.012 0 0 1-.987-2.77 7.704 7.704 0 0 0 2.315-.97c.305-.217.561-.505.751-.842.19-.337.308-.715.347-1.108a1.398 1.398 0 0 0-.087-.533 1.307 1.307 0 0 0-.282-.447 1.17 1.17 0 0 0-.427-.282 1.09 1.09 0 0 0-.495-.068c-1.006.12-1.846 1.86-2.067 2.82 0 .07-.102 1.17-.111 1.37 0-.06 0-.11-.046-.17a17.98 17.98 0 0 1-.517-2.92c-.055-.55-.083-1.07-.092-1.58a8.064 8.064 0 0 0 2.381-.65c.322-.184.605-.44.827-.752.223-.313.382-.673.464-1.058a1.424 1.424 0 0 0-.038-.54 1.347 1.347 0 0 0-.237-.476 1.221 1.221 0 0 0-.394-.333 1.147 1.147 0 0 0-.484-.131c-1.015 0-2.067 1.62-2.344 2.56l-.184 1v-.69c0-.83 0-1.59.101-2.26 0-.38.065-.73.093-1.05a8.292 8.292 0 0 0 1.845-1.76 2.84 2.84 0 0 0 .42-1.079 2.924 2.924 0 0 0-.042-1.171 1.314 1.314 0 0 0-.263-.46 1.21 1.21 0 0 0-.412-.304 1.117 1.117 0 0 0-.976.034c-.923.5-1.135 2.47-.988 3.43 0 .09.351 1.37.37 1.36 0 .31-.084.65-.12 1-.056.67-.12 1.44-.139 2.27-.026.897-.008 1.795.056 2.69.076 1.012.23 2.016.461 3-.157-.27-.628-1-.664-1.07-.6-.74-2.141-1.79-3.073-1.37a1.223 1.223 0 0 0-.4.324 1.342 1.342 0 0 0-.245.473 1.393 1.393 0 0 0 .11 1.053c.216.321.496.587.818.777.322.19.679.3 1.046.323ZM573.327 406.22s.323-1.28.332-1.36c.129-1-.157-2.93-1.07-3.41a1.138 1.138 0 0 0-1.38.315c-.114.134-.2.293-.254.465a2.964 2.964 0 0 0-.01 1.172c.075.386.227.751.444 1.068a8.904 8.904 0 0 0 1.938 1.75Z" fill="#263238"/><path d="M64.014 161.26s41.271 4.42 62.179 32.15c0 0 22.098-32.12 61.819-31.46 9.699-12.681 15.876-28.087 17.81-44.424 1.934-16.338-.454-32.935-6.886-47.858-6.432-14.924-16.643-27.56-29.445-36.438-12.801-8.877-27.666-13.63-42.864-13.707-15.197-.076-30.102 4.529-42.978 13.278-12.877 8.75-23.195 21.283-29.754 36.141-6.559 14.86-9.088 31.431-7.293 47.788 1.795 16.356 7.84 31.823 17.43 44.6l-.017-.07Z" fill="#D37815"/><path opacity=".4" d="M64.014 161.26s41.271 4.42 62.179 32.15c0 0 22.098-32.12 61.819-31.46 9.699-12.681 15.876-28.087 17.81-44.424 1.934-16.338-.454-32.935-6.886-47.858-6.432-14.924-16.643-27.56-29.445-36.438-12.801-8.877-27.666-13.63-42.864-13.707-15.197-.076-30.102 4.529-42.978 13.278-12.877 8.75-23.195 21.283-29.754 36.141-6.559 14.86-9.088 31.431-7.293 47.788 1.795 16.356 7.84 31.823 17.43 44.6l-.017-.07Z" fill="#fff"/><path d="M165.932 111s-24.672 6.34-38.29 27.84l-.775-31.27.055.41s13.932-27.17 39.01-35.48c0 0-25.834 6.64-39.204 29.36l-1.9-42.1-.582 60.34c-13.12-21.61-37.026-28-37.026-28 21.12 7.25 34.037 28.87 36.989 34.25l-.193 31.1c-13.167-21.31-36.796-27.6-36.796-27.6 20.612 7.07 33.419 27.84 36.759 33.83l-.545 263.54h6.967l-1.689-245.39c4.493-7.37 17.355-25.78 37.22-32.36 0 0-23.592 6.07-37.368 26.44l-.765-31c3.386-5.91 16.672-26.83 38.133-33.91Z" fill="#263238"/><path d="M165.932 111s-24.672 6.34-38.29 27.84l-.775-31.27.055.41s13.932-27.17 39.01-35.48c0 0-25.834 6.64-39.204 29.36l-1.9-42.1-.582 60.34c-13.12-21.61-37.026-28-37.026-28 21.12 7.25 34.037 28.87 36.989 34.25l-.193 31.1c-13.167-21.31-36.796-27.6-36.796-27.6 20.612 7.07 33.419 27.84 36.759 33.83l-.545 263.54h6.967l-1.689-245.39c4.493-7.37 17.355-25.78 37.22-32.36 0 0-23.592 6.07-37.368 26.44l-.765-31c3.386-5.91 16.672-26.83 38.133-33.91Z" fill="#263238"/><path d="M32.413 304.65s33.64 3.61 50.747 26.22c0 0 18.02-26.19 50.378-25.65 7.905-10.339 12.938-22.898 14.512-36.217 1.575-13.318-.373-26.847-5.617-39.013-5.244-12.165-13.568-22.465-24.004-29.702-10.436-7.236-22.553-11.112-34.942-11.174-12.39-.063-24.54 3.69-35.037 10.821s-18.91 17.347-24.258 29.459c-5.349 12.112-7.413 25.621-5.952 38.954 1.46 13.334 6.385 25.944 14.2 36.362l-.027-.06Z" fill="#D37815"/><path opacity=".4" d="M32.413 304.65s33.64 3.61 50.747 26.22c0 0 18.02-26.19 50.378-25.65 7.905-10.339 12.938-22.898 14.512-36.217 1.575-13.318-.373-26.847-5.617-39.013-5.244-12.165-13.568-22.465-24.004-29.702-10.436-7.236-22.553-11.112-34.942-11.174-12.39-.063-24.54 3.69-35.037 10.821s-18.91 17.347-24.258 29.459c-5.349 12.112-7.413 25.621-5.952 38.954 1.46 13.334 6.385 25.944 14.2 36.362l-.027-.06Z" fill="#fff"/><path d="M51.328 279c16.81 5.77 27.246 22.7 29.968 27.59l-.24 120.49h4.835l-.729-105.65c3.69-6 14.154-21 30.347-26.38 0 0-19.238 4.94-30.448 21.55l-.628-25.3c2.768-4.81 13.6-21.85 31.094-27.65 0 0-20.114 5.17-31.214 22.7l-.636-25.5v.34s11.358-22.19 31.832-28.93c0 0-21.056 5.42-31.97 23.94l-1.542-34.32-.48 49.19c-10.693-17.62-30.19-22.81-30.19-22.81 17.218 5.91 27.755 23.54 30.163 27.93l-.157 25.36C70.593 284.18 51.328 279 51.328 279Z" fill="#263238"/><path d="M51.328 279c16.81 5.77 27.246 22.7 29.968 27.59l-.24 120.49h4.835l-.729-105.65c3.69-6 14.154-21 30.347-26.38 0 0-19.238 4.94-30.448 21.55l-.628-25.3c2.768-4.81 13.6-21.85 31.094-27.65 0 0-20.114 5.17-31.214 22.7l-.636-25.5v.34s11.358-22.19 31.832-28.93c0 0-21.056 5.42-31.97 23.94l-1.542-34.32-.48 49.19c-10.693-17.62-30.19-22.81-30.19-22.81 17.218 5.91 27.755 23.54 30.163 27.93l-.157 25.36C70.593 284.18 51.328 279 51.328 279Z" fill="#263238"/><path d="M517.025 304.65s33.65 3.61 50.701 26.22c0 0 18.02-26.19 50.378-25.65 7.91-10.339 12.947-22.901 14.525-36.222 1.578-13.322-.369-26.855-5.613-39.025-5.244-12.169-13.569-22.473-24.007-29.712-10.438-7.24-22.559-11.116-34.951-11.179-12.393-.062-24.546 3.692-35.046 10.825-10.5 7.134-18.914 17.354-24.262 29.47-5.348 12.116-7.41 25.629-5.947 38.966s6.392 25.949 14.213 36.367l.009-.06Z" fill="#D37815"/><path opacity=".4" d="M517.025 304.65s33.65 3.61 50.701 26.22c0 0 18.02-26.19 50.378-25.65 7.91-10.339 12.947-22.901 14.525-36.222 1.578-13.322-.369-26.855-5.613-39.025-5.244-12.169-13.569-22.473-24.007-29.712-10.438-7.24-22.559-11.116-34.951-11.179-12.393-.062-24.546 3.692-35.046 10.825-10.5 7.134-18.914 17.354-24.262 29.47-5.348 12.116-7.41 25.629-5.947 38.966s6.392 25.949 14.213 36.367l.009-.06Z" fill="#fff"/><path d="M535.949 279c16.802 5.77 27.247 22.7 29.969 27.59l-.249 120.49h4.834l-.719-105.69c3.69-6 14.144-21 30.337-26.38 0 0-19.229 4.94-30.448 21.55l-.637-25.3c2.768-4.81 13.6-21.85 31.094-27.65 0 0-20.114 5.17-31.214 22.7l-.636-25.5.046.34s11.358-22.16 31.804-28.93c0 0-21.046 5.42-31.961 23.94l-1.541-34.32-.48 49.19c-10.703-17.62-30.189-22.81-30.189-22.81 17.217 5.91 27.753 23.54 30.152 27.93l-.156 25.36c-10.74-17.33-30.006-22.51-30.006-22.51Z" fill="#263238"/><path d="M535.949 279c16.802 5.77 27.247 22.7 29.969 27.59l-.249 120.49h4.834l-.719-105.69c3.69-6 14.144-21 30.337-26.38 0 0-19.229 4.94-30.448 21.55l-.637-25.3c2.768-4.81 13.6-21.85 31.094-27.65 0 0-20.114 5.17-31.214 22.7l-.636-25.5.046.34s11.358-22.16 31.804-28.93c0 0-21.046 5.42-31.961 23.94l-1.541-34.32-.48 49.19c-10.703-17.62-30.189-22.81-30.189-22.81 17.217 5.91 27.753 23.54 30.152 27.93l-.156 25.36c-10.74-17.33-30.006-22.51-30.006-22.51Z" fill="#263238"/><path d="m467.552 143.23-33.253 36.04" stroke="#263238" stroke-linecap="round" stroke-linejoin="round"/><path d="m429.695 184.26 3.838-9.91 1.117 4.54 4.189 1.21-9.144 4.16Z" fill="#263238"/><path d="m484.972 150.4-15.953 29.71" stroke="#263238" stroke-linecap="round" stroke-linejoin="round"/><path d="m465.744 186.21 1.374-10.64 2.15 4.09h4.337l-7.861 6.55Z" fill="#263238"/><path d="M474.758 110.02 371.53 179.87" stroke="#263238" stroke-linecap="round" stroke-linejoin="round"/><path d="m366.003 183.61 5.804-8.72.138 4.7 3.83 2.2-9.772 1.82Z" fill="#263238"/><path d="M517.531 123.63c16.245-3.662 26.674-20.903 23.295-38.509-3.379-17.605-19.286-28.909-35.53-25.247-16.244 3.662-26.674 20.903-23.295 38.509 3.379 17.605 19.286 28.909 35.53 25.247Z" fill="#D37815" stroke="#263238" stroke-miterlimit="10"/><path d="M511.416 35.13v15.63M511.416 132.81v15.63M563.685 91.79h-14.422M473.559 91.79h-14.422M548.378 51.72l-10.196 11.06M484.649 120.8l-10.204 11.05M474.445 51.72l10.204 11.06M538.182 120.8l10.196 11.05" stroke="#D37815" stroke-miterlimit="10"/><path d="M532.286 319.61H148.309v107.07h383.977V319.61Z" fill="#fff"/><path opacity=".31" d="M532.286 319.61H148.309v19.06h383.977v-19.06Z" fill="#000"/><path d="M532.286 319.61H148.309v107.07h383.977V319.61Z" stroke="#263238" stroke-linecap="round" stroke-linejoin="round"/><path d="M536.226 319.61H144.379v4.9h391.847v-4.9Z" fill="#fff" stroke="#263238" stroke-linecap="round" stroke-linejoin="round"/><path d="M537.259 319.69H140.181l33.086-122.96h330.896l33.096 122.96Z" fill="#263238" stroke="#263238" stroke-linecap="round" stroke-linejoin="round"/><path d="M219.954 300.26h-59.705l22.725-91.35 52.398.24-15.418 91.11Z" fill="#D37815" stroke="#fff" stroke-miterlimit="10"/><path d="m195.873 209.09-20.852 91.01M209.418 209.15l-18.97 90.95M222.944 209.21l-17.097 90.89M179.911 221.58l53.717.21M176.303 236.09l54.88.17M172.529 251.24l56.108.13M168.599 267.07l57.381.1M164.474 283.64l58.719.05" stroke="#fff" stroke-miterlimit="10"/><path d="M289.699 300.26h-59.291l14.145-91.07 52.075.23-6.929 90.84Z" fill="#D37815" stroke="#fff" stroke-miterlimit="10"/><path d="M257.387 209.37 245.06 300.1M270.849 209.43l-10.463 90.67M284.292 209.49l-8.608 90.61M242.67 221.82l53.395.21M240.428 236.29l54.539.17M238.085 251.4l55.738.13M235.64 267.18l56.993.1M233.075 283.7l58.312.05" stroke="#fff" stroke-miterlimit="10"/><path d="M456.508 300.26h59.696l-22.725-91.35-52.389.24 15.418 91.11Z" fill="#D37815" stroke="#fff" stroke-miterlimit="10"/><path d="m480.58 209.09 20.852 91.01M467.035 209.15l18.97 90.95M453.518 209.21l17.088 90.89M496.551 221.58l-53.727.21M500.159 236.09l-54.889.17M503.924 251.24l-56.108.13M507.863 267.07l-57.38.1M511.978 283.64l-58.709.05" stroke="#fff" stroke-miterlimit="10"/><path d="M386.754 300.26h59.291L431.9 209.19l-52.075.23 6.929 90.84Z" fill="#D37815" stroke="#fff" stroke-miterlimit="10"/><path d="m419.075 209.37 12.318 90.73M405.614 209.43l10.463 90.67M392.17 209.49l8.609 90.61M433.782 221.82l-53.385.21M436.024 236.29l-54.538.17M438.368 251.4l-55.738.13M440.822 267.18l-57.002.1M443.378 283.7l-58.312.05" stroke="#fff" stroke-miterlimit="10"/><path d="M318.145 338.66h-7.419v13.93h7.419v-13.93ZM318.145 355.52h-7.419v12.47h7.419v-12.47ZM318.145 370.91h-7.419v12.47h7.419v-12.47ZM318.145 386.31h-7.419v15.99h7.419v-15.99ZM308.835 386.31h-8.941v15.99h8.941v-15.99ZM308.835 370.91h-8.941v12.47h8.941v-12.47ZM308.835 355.52h-8.941v12.47h8.941v-12.47ZM308.835 338.66h-8.941v13.93h8.941v-13.93ZM379.76 338.66h-7.427v13.93h7.427v-13.93ZM379.76 355.52h-7.427v12.47h7.427v-12.47ZM379.76 370.91h-7.427v12.47h7.427v-12.47ZM379.76 386.31h-7.427v15.99h7.427v-15.99ZM370.441 386.31h-8.94v15.99h8.94v-15.99ZM370.441 370.91h-8.94v12.47h8.94v-12.47ZM370.441 355.52h-8.94v12.47h8.94v-12.47ZM370.441 338.66h-8.94v13.93h8.94v-13.93Z" fill="#CCC"/><path d="M359.249 337.98h-38.521v79.98h38.521v-79.98Z" fill="#D37815" stroke="#263238" stroke-linecap="round" stroke-linejoin="round"/><path d="M354.276 342.7h-27.957v39.06h27.957V342.7ZM354.276 396.57h-27.957v16.16h27.957v-16.16ZM354.276 386.47h-27.957v6.06h27.957v-6.06Z" stroke="#263238" stroke-width=".5" stroke-linecap="round" stroke-linejoin="round"/><path d="M325.203 376.93h-3.497v12.8h3.497v-12.8Z" fill="#263238"/><path d="M340.612 332.86c3.577 0 6.477-3.143 6.477-7.02s-2.9-7.02-6.477-7.02c-3.578 0-6.477 3.143-6.477 7.02s2.899 7.02 6.477 7.02Z" stroke="#263238" stroke-linecap="round" stroke-linejoin="round"/><path d="M343.14 338.67h-5.075l-.987-6.78h7.049l-.987 6.78Z" fill="#fff" stroke="#263238" stroke-width="2" stroke-linecap="round" stroke-linejoin="round"/><path d="M342.641 326.51h-4.078l-2.131 5.37h8.332l-2.123-5.37Z" fill="#fff" stroke="#263238" stroke-linecap="round" stroke-linejoin="round"/><path d="M341.617 323.84h-2.03v2.61h2.03v-2.61Z" fill="#263238" stroke="#263238" stroke-linecap="round" stroke-linejoin="round"/><path d="m305.338 327.81 9.919-3.39c14.956-5.093 30.971-5.257 46.013-.47l12.096 3.86h19.736V302l-54.899-70.45L284.338 302v25.77l21 .04Z" fill="#fff" stroke="#263238" stroke-linecap="round" stroke-linejoin="round"/><path d="M393.102 417.26H284.338v9.43h108.764v-9.43Z" fill="#263238" stroke="#263238" stroke-linecap="round" stroke-linejoin="round"/><path d="M306.371 418.22v7.38M312 418.22v7.38M317.619 418.22v7.38M323.247 418.22v7.38M328.875 418.22v7.38M334.503 418.22v7.38M340.123 418.22v7.38M345.751 418.22v7.38M351.379 418.22v7.38M357.007 418.22v7.38M362.635 418.22v7.38M368.255 418.22v7.38M373.883 418.22v7.38" stroke="#B0B0B0" stroke-linecap="round" stroke-linejoin="round"/><path d="m338.72 222.5-66.487 91.71h32.072v-9h-16.276l50.691-67.75 50.691 67.75h-16.183v9h31.979L338.72 222.5ZM304.258 314.21h-32.025v8.29h32.025v-8.29ZM287.032 336.05h-9.512v84.68h9.512v-84.68Z" fill="#fff" stroke="#263238" stroke-linecap="round" stroke-linejoin="round"/><path d="M287.577 332.96h-10.602v3.2h10.602v-3.2Z" fill="#fff" stroke="#263238" stroke-linecap="round" stroke-linejoin="round"/><path d="M288.306 322.61h-12.06v10.53h12.06v-10.53ZM276.975 416.27h10.602v-3.2h-10.602v3.2Z" fill="#fff" stroke="#263238" stroke-linecap="round" stroke-linejoin="round"/><path d="M276.246 426.62h12.06v-10.53h-12.06v10.53ZM301.205 336.05h-9.513v84.68h9.513v-84.68Z" fill="#fff" stroke="#263238" stroke-linecap="round" stroke-linejoin="round"/><path d="M301.758 332.96h-10.602v3.2h10.602v-3.2Z" fill="#fff" stroke="#263238" stroke-linecap="round" stroke-linejoin="round"/><path d="M302.487 322.61h-12.059v10.53h12.059v-10.53ZM291.147 416.27h10.602v-3.2h-10.602v3.2Z" fill="#fff" stroke="#263238" stroke-linecap="round" stroke-linejoin="round"/><path d="M290.419 426.62h12.059v-10.53h-12.059v10.53ZM405.198 314.21h-32.026v8.29h32.026v-8.29ZM387.972 336.05h-9.513v84.68h9.513v-84.68Z" fill="#fff" stroke="#263238" stroke-linecap="round" stroke-linejoin="round"/><path d="M388.516 332.96h-10.601v3.2h10.601v-3.2Z" fill="#fff" stroke="#263238" stroke-linecap="round" stroke-linejoin="round"/><path d="M389.245 322.61h-12.059v10.53h12.059v-10.53ZM377.915 416.27h10.601v-3.2h-10.601v3.2Z" fill="#fff" stroke="#263238" stroke-linecap="round" stroke-linejoin="round"/><path d="M377.186 426.62h12.059v-10.53h-12.059v10.53ZM402.144 336.05h-9.512v84.68h9.512v-84.68Z" fill="#fff" stroke="#263238" stroke-linecap="round" stroke-linejoin="round"/><path d="M402.698 332.96h-10.602v3.2h10.602v-3.2Z" fill="#fff" stroke="#263238" stroke-linecap="round" stroke-linejoin="round"/><path d="M403.417 322.61h-12.059v10.53h12.059v-10.53ZM392.087 416.27h10.601v-3.2h-10.601v3.2Z" fill="#fff" stroke="#263238" stroke-linecap="round" stroke-linejoin="round"/><path d="M391.367 426.62h12.06v-10.53h-12.06v10.53Z" fill="#fff" stroke="#263238" stroke-linecap="round" stroke-linejoin="round"/><path d="M189.377 370.91h-9.134v12.47h9.134v-12.47ZM178.351 338.66h-7.427v13.93h7.427v-13.93ZM178.351 355.52h-7.427v12.47h7.427v-12.47ZM189.377 355.52h-9.134v12.47h9.134v-12.47ZM178.351 370.91h-7.427v12.47h7.427v-12.47ZM189.377 338.66h-9.134v13.93h9.134v-13.93ZM178.351 386.31h-7.427v15.99h7.427v-15.99ZM189.377 386.31h-9.134v15.99h9.134v-15.99ZM169.023 386.31h-8.94v15.99h8.94v-15.99ZM169.023 370.91h-8.94v12.47h8.94v-12.47ZM169.023 355.52h-8.94v12.47h8.94v-12.47ZM169.023 338.66h-8.94v13.93h8.94v-13.93ZM224.466 370.91h-9.134v12.47h9.134v-12.47ZM213.44 338.66h-7.427v13.93h7.427v-13.93ZM213.44 355.52h-7.427v12.47h7.427v-12.47ZM224.466 355.52h-9.134v12.47h9.134v-12.47ZM213.44 370.91h-7.427v12.47h7.427v-12.47ZM224.466 338.66h-9.134v13.93h9.134v-13.93ZM213.44 386.31h-7.427v15.99h7.427v-15.99ZM224.466 386.31h-9.134v15.99h9.134v-15.99ZM204.122 386.31h-8.941v15.99h8.941v-15.99ZM204.122 370.91h-8.941v12.47h8.941v-12.47ZM204.122 355.52h-8.941v12.47h8.941v-12.47ZM204.122 338.66h-8.941v13.93h8.941v-13.93ZM259.565 370.91h-9.135v12.47h9.135v-12.47ZM248.529 338.66h-7.427v13.93h7.427v-13.93ZM248.529 355.52h-7.427v12.47h7.427v-12.47ZM259.565 355.52h-9.135v12.47h9.135v-12.47ZM248.529 370.91h-7.427v12.47h7.427v-12.47ZM259.565 338.66h-9.135v13.93h9.135v-13.93ZM248.529 386.31h-7.427v15.99h7.427v-15.99ZM259.565 386.31h-9.135v15.99h9.135v-15.99ZM239.21 386.31h-8.94v15.99h8.94v-15.99ZM239.21 370.91h-8.94v12.47h8.94v-12.47ZM239.21 355.52h-8.94v12.47h8.94v-12.47ZM239.21 338.66h-8.94v13.93h8.94v-13.93Z" fill="#CCC"/><path d="M263.569 331.92H155.46v75.42h108.109v-75.42Z" stroke="#263238" stroke-linecap="round" stroke-linejoin="round"/><path d="M450.639 370.91h-9.134v12.47h9.134v-12.47ZM439.614 338.66h-7.428v13.93h7.428v-13.93ZM439.614 355.52h-7.428v12.47h7.428v-12.47ZM450.639 355.52h-9.134v12.47h9.134v-12.47ZM439.614 370.91h-7.428v12.47h7.428v-12.47ZM450.639 338.66h-9.134v13.93h9.134v-13.93ZM439.614 386.31h-7.428v15.99h7.428v-15.99ZM450.639 386.31h-9.134v15.99h9.134v-15.99ZM430.295 386.31h-8.941v15.99h8.941v-15.99ZM430.295 370.91h-8.941v12.47h8.941v-12.47ZM430.295 355.52h-8.941v12.47h8.941v-12.47ZM430.295 338.66h-8.941v13.93h8.941v-13.93ZM485.729 370.91h-9.135v12.47h9.135v-12.47ZM474.703 338.66h-7.428v13.93h7.428v-13.93ZM474.703 355.52h-7.428v12.47h7.428v-12.47ZM485.729 355.52h-9.135v12.47h9.135v-12.47ZM474.703 370.91h-7.428v12.47h7.428v-12.47ZM485.729 338.66h-9.135v13.93h9.135v-13.93ZM474.703 386.31h-7.428v15.99h7.428v-15.99ZM485.729 386.31h-9.135v15.99h9.135v-15.99ZM465.384 386.31h-8.941v15.99h8.941v-15.99ZM465.384 370.91h-8.941v12.47h8.941v-12.47ZM465.384 355.52h-8.941v12.47h8.941v-12.47ZM465.384 338.66h-8.941v13.93h8.941v-13.93ZM520.827 370.91h-9.135v12.47h9.135v-12.47ZM509.792 338.66h-7.418v13.93h7.418v-13.93ZM509.792 355.52h-7.418v12.47h7.418v-12.47ZM520.827 355.52h-9.135v12.47h9.135v-12.47ZM509.792 370.91h-7.418v12.47h7.418v-12.47ZM520.827 338.66h-9.135v13.93h9.135v-13.93ZM509.792 386.31h-7.418v15.99h7.418v-15.99ZM520.827 386.31h-9.135v15.99h9.135v-15.99ZM500.482 386.31h-8.941v15.99h8.941v-15.99ZM500.482 370.91h-8.941v12.47h8.941v-12.47ZM500.482 355.52h-8.941v12.47h8.941v-12.47ZM500.482 338.66h-8.941v13.93h8.941v-13.93Z" fill="#CCC"/><path d="M524.831 331.92H416.722v75.42h108.109v-75.42ZM650.471 427.22h7.169M37.866 427.22h602.732M23.519 427.22h6.274" stroke="#263238" stroke-linecap="round" stroke-linejoin="round"/><path d="M580.357 346.32s-1.541 38.6-1.347 60.52c.194 21.92 2.694 58.5 2.694 58.5l-1.725 3.55.184 5.22 11.174 3.55.766-4.38s1.928-1.67 1.928-2.72c0-1.05-.194-6.68-.194-8.35s6.358-79.3 6.358-79.3l2.694-.21 12.327 85.36-2.565 1.67 3.469 7.3 5.776-2.09 6.163.42a42.373 42.373 0 0 0 1.735-5.42c0-.84-2.122-1.88-2.122-3.34s-2.104-89.19-2.104-89.19l-3.691-31.09h-41.52Z" fill="#263238" stroke="#263238" stroke-miterlimit="10"/><path d="m580.136 474.11-6.348 5.43s-8.092 3.34-7.898 4.8c.194 1.46 1.735 1.67 2.888 1.67h22.919l-.388-8.35-11.173-3.55ZM616.147 477s2.501 8.77 3.276 9.81c.775 1.04 7.898 4.38 9.817 3.76 1.919-.62 4.051-3.55 3.276-6.47-.776-2.92-4.429-8.77-4.429-8.77l-6.164-.42-5.776 2.09ZM600.748 270.77l-9.633 1.46s-4.235 11.68-5.775 31.09c-1.541 19.41-.194 43.62-.194 43.62h32.736s8.47-51.76 5.776-60.31c-1.522-4.99-3.943-9.603-7.123-13.57l-15.787-2.29Z" fill="#fff" stroke="#263238" stroke-miterlimit="10"/><path d="M592.656 278.7s-4.429 15.86-4.429 29.63 1.929 63.86 1.929 63.86l-17.715-4 4.225-32.73-1.928-35.06-14.827 16.91-11.072-6.82s24.552-36.18 25.327-36.38c.775-.2 21.876-4.61 21.876-4.61l-3.386 9.2Z" fill="#D37815" stroke="#263238" stroke-miterlimit="10"/><path d="m573.677 288.46 1.07 11.94-3.847-12.94M573.207 283.29l.23 2.57" stroke="#263238" stroke-miterlimit="10"/><path d="M614.985 270.06s21.793 6 22.568 6.16c.775.16 24.423 47.14 24.423 47.14l-10.592 5-19.625-26.22-4.06 37.9 5.204 29-22.919 1.88-1.947-29.61 4.042-64.07 2.906-7.18Z" fill="#D37815" stroke="#263238" stroke-miterlimit="10"/><path d="m628.779 292.47 2.98 9.68-4.715-6.19" stroke="#263238" stroke-miterlimit="10"/><path d="M594.871 232.69s-3.58-2.77-3.239-4.07c.342-1.3 8.184-6.28 9.375-6.83 1.19-.55 15.51 2.77 17.899 4.43 2.39 1.66 4.937 11.46 5.278 16.07.341 4.61-10.223 13.71-10.223 13.71l-6.819.18.849-5.54-6.984-1.48 1.19-6.28-6.302-7.58 1.698-4.25-2.722 1.64Z" fill="#263238" stroke="#263238" stroke-miterlimit="10"/><path d="m597.131 265.82-5.785 8.18s-2.961 8.45-2.288 8c.674-.45 4.3-4.23 4.3-4.23l8.673 5.71 10.029-5.42 4.973 5.83s1.08-16.47.277-17.78c-.803-1.31-5.111-2.34-6.191-2.48-1.079-.14-13.988 2.19-13.988 2.19Z" fill="#fff" stroke="#263238" stroke-miterlimit="10"/><path d="M596.91 228.62s-7.492 8.69-6.643 10.53a12.33 12.33 0 0 1 1.024 3.14s-5.97 5.73-5.112 6.84a16.139 16.139 0 0 0 3.239 2.59s-1.024 7.76 0 9.6c1.024 1.84 6.643.74 6.643.74s3.921 22.91 5.97 21.43c2.048-1.48 11.754-15.15 11.588-16.81-.166-1.66.342-10.16.342-10.71 0-.55-3.414-.19-3.414-.19s4.438-7 2.768-9.05c-1.67-2.05-5.112-1.48-6.311-.56a8.67 8.67 0 0 0-1.845 2l-1.846-.56a41.902 41.902 0 0 0 1.532-4.25c.175-.92-3.921-5.35-3.746-6.09.159-.338.364-.648.609-.92 1.356-1.71 4.502-5 4.502-5l-9.3-2.73Z" fill="#fff" stroke="#263238" stroke-miterlimit="10"/><path d="M594.64 243.87c-.074.91-.424 1.61-.775 1.58-.35-.03-.572-.8-.489-1.71.083-.91.425-1.61.775-1.57.351.04.572.83.489 1.7Z" fill="#263238"/><path d="M592.684 239.46s2.159-1.7 3.626.53M590.507 253.37s4.115.31 6.172-2.34" stroke="#263238" stroke-miterlimit="10"/><path d="m596.061 262.06 6.228-.94-5.195 6.47-1.033-5.53Z" fill="#263238" stroke="#263238" stroke-miterlimit="10"/><path d="m560.585 340.75 4.456-4.61-4.779-3.57.323 8.18Z" fill="#fff" stroke="#263238" stroke-miterlimit="10"/><path d="m562.707 323.59 3.515 4.4-2.667 10.11-4.521-3.99 3.673-10.52Z" fill="#fff" stroke="#263238" stroke-miterlimit="10"/><path d="M553.074 304s-5.536 7.41-6.459 9.77c-.922 2.36 13.988 26.94 13.988 26.94l3.608-15.55-2.658-8.64 1.218-5-5.997-2.5" fill="#D37815"/><path d="M553.074 304s-5.536 7.41-6.459 9.77c-.922 2.36 13.988 26.94 13.988 26.94l3.608-15.55-2.658-8.64 1.218-5-5.997-2.5" stroke="#263238" stroke-miterlimit="10"/><path d="m565.788 327.73 7.492-1.13s5.38 5.28 5.638 6c.21.732.164 1.522-.129 2.22a3.888 3.888 0 0 1-1.024 1.67s-2.049 5.42-2.436 6.12c-.388.7-2.694.42-3.589.28-.895-.14-8.185-4.77-8.185-4.77l2.233-10.39ZM639.297 328.55l-1.928 2.64 3.091 8.67 4.096-2.55-5.259-8.76Z" fill="#fff" stroke="#263238" stroke-miterlimit="10"/><path d="m650.111 315.76-12.096 12.65 8.202 11.26s16.461-14.6 15.566-17c-.895-2.4-4.752-8.2-4.752-8.2" fill="#D37815"/><path d="m650.111 315.76-12.096 12.65 8.202 11.26s16.461-14.6 15.566-17c-.895-2.4-4.752-8.2-4.752-8.2" stroke="#263238" stroke-miterlimit="10"/><path d="m637.369 331.19-7.049-1.39s-5.389 5.28-5.647 6a3.364 3.364 0 0 0 .129 2.22 3.955 3.955 0 0 0 1.024 1.67s2.048 5.42 2.436 6.12c.388.7 2.694.41 3.589.27.895-.14 7.88-8.11 7.88-8.11l-2.362-6.78Z" fill="#fff" stroke="#263238" stroke-miterlimit="10"/></svg>