<svg width="750" height="500" viewBox="0 0 750 500" fill="none" xmlns="http://www.w3.org/2000/svg">
<path d="M661.34 427.12C694.85 374.56 703.45 308.24 693.87 247.42C692.054 235.834 689.38 224.399 685.87 213.21C662.33 138.69 601.94 79 530.47 47.59C462.28 17.59 376.08 2.77001 311.47 48.94C268.93 79.34 244.84 128.06 205.89 162.16C186.53 179.16 165.34 184.61 142.3 194.75C86.17 219.46 39.18 267.11 35.32 330C33.0108 363.995 41.1252 397.887 58.58 427.15L661.34 427.12Z" fill="#D37815"/>
<path opacity="0.8" d="M661.34 427.12C694.85 374.56 703.45 308.24 693.87 247.42C692.054 235.834 689.38 224.399 685.87 213.21C662.33 138.69 601.94 79 530.47 47.59C462.28 17.59 376.08 2.77001 311.47 48.94C268.93 79.34 244.84 128.06 205.89 162.16C186.53 179.16 165.34 184.61 142.3 194.75C86.17 219.46 39.18 267.11 35.32 330C33.0108 363.995 41.1252 397.887 58.58 427.15L661.34 427.12Z" fill="white"/>
<path d="M390.54 82.35C390.32 81.64 390.08 80.94 389.82 80.23C380.41 54.05 336.62 52.23 336.62 84.42C336.62 90.61 321.75 84.42 316.18 92.42C310.61 100.42 316.8 105.42 309.36 107.91C301.92 110.4 301.31 104.19 292.01 104.81C282.71 105.43 283.96 114.1 280.86 116.58C277.76 119.06 277.76 117.82 270.95 118.44C264.14 119.06 262.89 124.02 262.89 124.02H425.89C425.89 124.02 432.08 105.43 420.89 98.62C409.7 91.81 409.74 101.09 401.06 97.38C393.89 94.36 392.55 88.53 390.54 82.35Z" stroke="#B2B2B2" stroke-linecap="round" stroke-linejoin="round"/>
<path d="M396.18 117.29C396.18 117.29 399.55 106.86 391.27 99.18C382.99 91.5 374.39 95.81 371.94 99.18C369.49 102.55 369.48 109 365.49 109.62C361.5 110.24 362.43 102.87 353.83 104.71C345.23 106.55 348.62 115.14 344.63 116.98C340.64 118.82 340.63 112.07 335.11 114.22C329.59 116.37 329.9 120.36 329.9 120.36" stroke="#B2B2B2" stroke-linecap="round" stroke-linejoin="round"/>
<path d="M352.11 96.44C349.849 94.8325 347.199 93.8587 344.435 93.6196C341.671 93.3805 338.894 93.8847 336.39 95.08C327.51 99.18 331.61 107.72 327.51 109.77C323.41 111.82 321.36 109.42 316.23 111.77C311.1 114.12 311.45 117.57 311.45 117.57" stroke="#B2B2B2" stroke-linecap="round" stroke-linejoin="round"/>
<path d="M273.06 140.48C272.96 140.18 272.85 139.87 272.74 139.56C268.65 128.17 249.6 127.39 249.6 141.38C249.6 144.08 243.13 141.38 240.7 144.88C238.27 148.38 240.97 150.55 237.7 151.62C234.43 152.69 234.19 150.01 230.15 150.28C226.11 150.55 226.64 154.28 225.3 155.4C223.96 156.52 223.95 155.94 220.98 156.21C218.01 156.48 217.48 158.63 217.48 158.63H288.37C288.37 158.63 291.07 150.55 286.21 147.63C281.35 144.71 281.36 148.71 277.59 147.09C274.51 145.7 273.93 143.17 273.06 140.48Z" stroke="#B2B2B2" stroke-linecap="round" stroke-linejoin="round"/>
<path d="M275.51 155.68C275.903 154.298 275.911 152.834 275.534 151.448C275.157 150.061 274.409 148.803 273.37 147.81C269.77 144.47 266.03 146.34 264.96 147.81C263.89 149.28 263.89 152.08 262.16 152.35C260.43 152.62 260.82 149.41 257.08 150.21C253.34 151.01 254.81 154.75 253.08 155.55C251.35 156.35 251.34 153.41 248.94 154.35C246.54 155.29 246.67 157.02 246.67 157.02" stroke="#B2B2B2" stroke-linecap="round" stroke-linejoin="round"/>
<path d="M256.33 146.61C255.348 145.91 254.197 145.486 252.996 145.382C251.794 145.278 250.587 145.498 249.5 146.02C245.63 147.8 247.41 151.52 245.63 152.41C243.85 153.3 242.96 152.26 240.73 153.3C238.5 154.34 238.65 155.83 238.65 155.83" stroke="#B2B2B2" stroke-linecap="round" stroke-linejoin="round"/>
<path d="M648.12 140.48C648.02 140.18 647.92 139.87 647.81 139.56C643.71 128.17 624.66 127.39 624.66 141.38C624.66 144.08 618.19 141.38 615.77 144.88C613.35 148.38 616.04 150.55 612.77 151.62C609.5 152.69 609.27 150.01 605.23 150.28C601.19 150.55 601.72 154.28 600.37 155.4C599.02 156.52 599.03 155.94 596.06 156.21C593.09 156.48 592.56 158.63 592.56 158.63H663.45C663.45 158.63 666.14 150.55 661.29 147.63C656.44 144.71 656.44 148.71 652.67 147.09C649.58 145.7 649 143.17 648.12 140.48Z" stroke="#B2B2B2" stroke-linecap="round" stroke-linejoin="round"/>
<path d="M650.57 155.68C650.963 154.298 650.972 152.836 650.597 151.449C650.222 150.063 649.476 148.805 648.44 147.81C644.83 144.47 641.1 146.34 640.03 147.81C638.96 149.28 638.96 152.08 637.22 152.35C635.48 152.62 635.89 149.41 632.15 150.21C628.41 151.01 629.88 154.75 628.15 155.55C626.42 156.35 626.41 153.41 624.01 154.35C621.61 155.29 621.74 157.02 621.74 157.02" stroke="#B2B2B2" stroke-linecap="round" stroke-linejoin="round"/>
<path d="M631.4 146.61C630.417 145.909 629.264 145.484 628.061 145.38C626.858 145.277 625.649 145.498 624.56 146.02C620.7 147.8 622.48 151.52 620.7 152.41C618.92 153.3 618.02 152.26 615.79 153.3C613.56 154.34 613.71 155.83 613.71 155.83" stroke="#B2B2B2" stroke-linecap="round" stroke-linejoin="round"/>
<path d="M110.18 392.7C111.621 393.08 113.111 393.245 114.6 393.19C114.6 393.19 113.93 391.14 113.87 391.02C113.18 389.58 111.01 387.2 109.24 387.44C108.947 387.487 108.666 387.595 108.417 387.758C108.169 387.921 107.957 388.134 107.797 388.384C107.636 388.635 107.53 388.916 107.486 389.21C107.442 389.504 107.46 389.804 107.54 390.09C107.762 390.692 108.113 391.238 108.569 391.689C109.025 392.14 109.575 392.485 110.18 392.7Z" fill="#263238"/>
<path d="M141 425.9C141.132 425.633 141.206 425.342 141.218 425.044C141.23 424.747 141.179 424.45 141.069 424.174C140.958 423.898 140.791 423.648 140.578 423.44C140.364 423.233 140.109 423.073 139.83 422.97C138.14 422.41 135.55 424.33 134.61 425.61C134.61 425.67 134.25 426.21 133.96 426.71H140.41C140.652 426.476 140.852 426.202 141 425.9Z" fill="#263238"/>
<path d="M131.42 417.57C132.578 418.346 133.85 418.936 135.19 419.32C135.06 419.94 134.93 420.55 134.77 421.15C134.66 421.55 134.58 421.94 134.44 422.34C134.3 422.74 134.19 423.12 134.06 423.51C133.79 424.25 133.52 425.01 133.24 425.72C133.11 426.07 132.98 426.39 132.85 426.72H133.9C133.98 426.51 134.06 426.3 134.14 426.07C134.41 425.33 134.66 424.59 134.93 423.79L135.29 422.61C135.41 422.22 135.5 421.79 135.6 421.37C135.83 420.37 136.02 419.42 136.19 418.37C137.51 418.916 138.907 419.253 140.33 419.37C140.973 419.366 141.607 419.223 142.189 418.95C142.77 418.677 143.286 418.282 143.7 417.79C143.87 417.547 143.988 417.27 144.044 416.978C144.101 416.687 144.095 416.386 144.028 416.097C143.961 415.807 143.834 415.535 143.656 415.298C143.477 415.061 143.25 414.864 142.99 414.72C141.4 413.91 138.55 415.41 137.42 416.54C137.35 416.61 136.63 417.54 136.25 418.01C136.34 417.41 136.44 416.8 136.51 416.19C136.73 414.42 136.9 412.62 137.08 410.83C137.08 410.28 137.19 409.73 137.25 409.18C138.618 409.727 140.061 410.065 141.53 410.18C142.173 410.176 142.807 410.033 143.389 409.76C143.97 409.487 144.486 409.092 144.9 408.6C145.07 408.357 145.188 408.08 145.244 407.788C145.301 407.497 145.295 407.196 145.228 406.907C145.161 406.617 145.034 406.345 144.856 406.108C144.677 405.871 144.45 405.674 144.19 405.53C142.6 404.72 139.75 406.22 138.62 407.35C138.54 407.43 137.5 408.73 137.26 409.07C137.38 407.86 137.52 406.66 137.71 405.48C137.941 403.89 138.275 402.317 138.71 400.77C140.088 401.318 141.541 401.655 143.02 401.77C143.661 401.767 144.294 401.625 144.875 401.352C145.455 401.079 145.969 400.682 146.38 400.19C146.552 399.948 146.67 399.672 146.728 399.381C146.785 399.09 146.78 398.79 146.713 398.5C146.646 398.211 146.518 397.94 146.338 397.703C146.159 397.467 145.931 397.272 145.67 397.13C144.08 396.31 141.24 397.82 140.11 398.95C140.02 399.03 138.91 400.43 138.72 400.69C138.748 400.601 138.771 400.511 138.79 400.42C139.278 398.88 139.904 397.387 140.66 395.96C141.07 395.16 141.5 394.42 141.94 393.72C143.22 394.399 144.596 394.881 146.02 395.15C146.659 395.22 147.305 395.149 147.913 394.941C148.522 394.734 149.077 394.395 149.54 393.95C149.736 393.728 149.883 393.466 149.971 393.183C150.059 392.9 150.086 392.602 150.051 392.307C150.017 392.013 149.92 391.729 149.768 391.475C149.616 391.22 149.412 391.001 149.17 390.83C147.68 389.83 144.69 391.03 143.44 392.02C143.37 392.08 142.74 392.7 142.29 393.16L142.9 392.22C143.64 391.09 144.4 390.11 145.07 389.22C145.46 388.73 145.82 388.3 146.16 387.89C147.602 387.911 149.039 387.708 150.42 387.29C151.018 387.056 151.559 386.694 152.003 386.229C152.446 385.765 152.783 385.209 152.99 384.6C153.062 384.313 153.072 384.013 153.02 383.722C152.968 383.43 152.856 383.153 152.69 382.908C152.524 382.662 152.308 382.455 152.056 382.298C151.805 382.142 151.523 382.04 151.23 382C149.45 381.81 147.34 384.24 146.69 385.7C146.63 385.83 145.98 387.9 146.02 387.9C145.69 388.28 145.33 388.69 144.95 389.15C144.26 390 143.48 390.97 142.71 392.09C141.861 393.28 141.083 394.519 140.38 395.8C139.575 397.227 138.905 398.727 138.38 400.28C138.38 400.28 138.38 400.28 138.38 400.33C138.38 399.81 138.38 398.33 138.38 398.23C138.18 396.65 136.85 393.72 135.09 393.39C134.796 393.345 134.496 393.362 134.21 393.441C133.923 393.519 133.657 393.657 133.427 393.846C133.198 394.035 133.011 394.27 132.879 394.536C132.747 394.802 132.672 395.093 132.66 395.39C132.684 396.031 132.848 396.66 133.14 397.231C133.432 397.803 133.845 398.304 134.35 398.7C135.587 399.502 136.934 400.119 138.35 400.53C137.849 402.119 137.455 403.739 137.17 405.38C137 406.38 136.86 407.3 136.73 408.28C136.73 407.82 136.73 407.42 136.73 407.36C136.52 405.78 135.2 402.85 133.44 402.52C133.146 402.475 132.845 402.492 132.558 402.571C132.271 402.649 132.004 402.787 131.774 402.976C131.544 403.164 131.356 403.399 131.223 403.666C131.089 403.932 131.013 404.223 131 404.52C131.027 405.162 131.193 405.79 131.487 406.362C131.78 406.933 132.194 407.434 132.7 407.83C133.896 408.619 135.204 409.222 136.58 409.62C136.58 409.99 136.49 410.36 136.44 410.74C136.23 412.53 136.02 414.32 135.77 416.07C135.68 416.69 135.57 417.29 135.46 417.89C135.46 417.49 135.46 417.15 135.46 417.1C135.26 415.52 133.93 412.59 132.18 412.26C131.886 412.215 131.585 412.232 131.298 412.311C131.011 412.389 130.744 412.527 130.514 412.716C130.284 412.904 130.096 413.139 129.963 413.406C129.829 413.672 129.753 413.963 129.74 414.26C129.765 414.9 129.927 415.528 130.217 416.099C130.507 416.67 130.918 417.172 131.42 417.57Z" fill="#263238"/>
<path d="M111.27 401.79C112.746 401.78 114.213 401.547 115.62 401.1C116.079 402.702 116.644 404.272 117.31 405.8C117.7 406.69 118.11 407.57 118.54 408.46C118.29 408.08 118.06 407.75 118.02 407.71C117.02 406.5 114.25 404.78 112.6 405.48C112.332 405.605 112.093 405.785 111.898 406.007C111.704 406.23 111.558 406.491 111.47 406.774C111.383 407.057 111.355 407.354 111.39 407.648C111.424 407.942 111.52 408.225 111.67 408.48C112.046 409 112.531 409.432 113.09 409.746C113.649 410.06 114.27 410.249 114.91 410.3C116.345 410.298 117.771 410.079 119.14 409.65C119.3 409.99 119.47 410.33 119.64 410.65C120.45 412.26 121.26 413.87 122.01 415.47C122.28 416.04 122.52 416.6 122.76 417.16C122.54 416.83 122.34 416.56 122.31 416.52C121.31 415.31 118.54 413.59 116.89 414.29C116.621 414.414 116.381 414.593 116.185 414.815C115.99 415.038 115.843 415.299 115.756 415.582C115.668 415.865 115.641 416.164 115.676 416.458C115.711 416.752 115.808 417.036 115.96 417.29C116.334 417.813 116.818 418.247 117.378 418.563C117.937 418.88 118.559 419.07 119.2 419.12C120.594 419.125 121.98 418.916 123.31 418.5C123.54 419.09 123.78 419.67 123.97 420.25C124.1 420.65 124.25 421.02 124.35 421.43L124.68 422.62C124.87 423.38 125.06 424.17 125.22 424.91C125.34 425.43 125.44 425.91 125.54 426.43C125.28 425.87 124.75 424.77 124.7 424.69C123.85 423.34 121.42 421.23 119.7 421.69C119.414 421.771 119.148 421.911 118.92 422.102C118.691 422.292 118.506 422.528 118.374 422.795C118.243 423.062 118.17 423.354 118.159 423.651C118.148 423.948 118.199 424.244 118.31 424.52C118.575 425.049 118.948 425.517 119.404 425.894C119.861 426.271 120.39 426.549 120.96 426.71H126.63C126.63 426.59 126.57 426.47 126.55 426.34C127.386 426.007 128.201 425.623 128.99 425.19C129.62 425.787 130.326 426.299 131.09 426.71H132.75C132.84 426.09 132.94 425.33 132.94 425.25C132.926 423.844 132.547 422.466 131.84 421.25C131.86 421.094 131.86 420.936 131.84 420.78C131.804 420.485 131.707 420.201 131.554 419.947C131.401 419.692 131.196 419.473 130.953 419.303C130.709 419.133 130.432 419.016 130.141 418.961C129.849 418.905 129.549 418.912 129.26 418.98C127.53 419.44 126.44 422.47 126.35 424.07C126.35 424.16 126.41 425.19 126.46 425.83C126.37 425.46 126.29 425.09 126.2 424.71C126.02 423.94 125.81 423.19 125.6 422.37L125.24 421.19C125.13 420.79 124.96 420.39 124.83 419.98C124.48 419.05 124.09 418.12 123.68 417.19C125.083 416.904 126.432 416.401 127.68 415.7C128.214 415.344 128.664 414.876 128.999 414.329C129.334 413.781 129.546 413.168 129.62 412.53C129.626 412.233 129.571 411.938 129.456 411.664C129.342 411.389 129.171 411.142 128.956 410.938C128.74 410.733 128.484 410.576 128.204 410.477C127.924 410.377 127.626 410.338 127.33 410.36C125.56 410.56 124.02 413.36 123.7 414.95C123.7 415.05 123.57 416.19 123.52 416.82C123.27 416.27 123.02 415.71 122.75 415.16C121.95 413.56 121.1 411.97 120.25 410.37L119.49 408.91C120.935 408.608 122.327 408.093 123.62 407.38C124.153 407.023 124.602 406.554 124.937 406.007C125.272 405.46 125.484 404.847 125.56 404.21C125.567 403.913 125.511 403.619 125.396 403.345C125.282 403.071 125.111 402.825 124.895 402.621C124.679 402.417 124.423 402.261 124.143 402.163C123.863 402.065 123.566 402.026 123.27 402.05C121.5 402.24 119.96 405.05 119.63 406.63C119.63 406.75 119.46 408.4 119.44 408.82C118.88 407.74 118.34 406.66 117.84 405.58C117.161 404.12 116.579 402.617 116.1 401.08C117.55 400.774 118.948 400.259 120.25 399.55C120.784 399.191 121.233 398.721 121.568 398.172C121.903 397.623 122.115 397.009 122.19 396.37C122.197 396.073 122.141 395.779 122.026 395.505C121.912 395.231 121.741 394.985 121.525 394.781C121.309 394.577 121.053 394.421 120.773 394.323C120.493 394.225 120.196 394.186 119.9 394.21C118.13 394.4 116.59 397.21 116.27 398.79C116.27 398.91 116.08 400.69 116.07 401.01C116.07 400.93 116.01 400.84 115.98 400.75C115.517 399.198 115.189 397.609 115 396C114.9 395.12 114.85 394.26 114.83 393.43C116.272 393.294 117.684 392.94 119.02 392.38C119.59 392.084 120.089 391.668 120.483 391.16C120.876 390.653 121.155 390.066 121.3 389.44C121.339 389.148 121.317 388.852 121.236 388.569C121.155 388.286 121.016 388.023 120.828 387.797C120.64 387.57 120.407 387.385 120.144 387.253C119.881 387.121 119.594 387.045 119.3 387.03C117.51 387.03 115.67 389.67 115.18 391.19C115.18 391.27 114.97 392.14 114.85 392.78C114.85 392.4 114.85 392.01 114.85 391.65C114.85 390.3 114.94 389.07 115.02 387.97C115.08 387.35 115.14 386.79 115.2 386.26C116.413 385.481 117.499 384.52 118.42 383.41C118.788 382.884 119.038 382.284 119.152 381.652C119.266 381.021 119.241 380.371 119.08 379.75C118.98 379.471 118.823 379.215 118.618 379C118.414 378.786 118.166 378.616 117.892 378.503C117.617 378.39 117.323 378.336 117.026 378.344C116.729 378.352 116.438 378.422 116.17 378.55C114.58 379.37 114.17 382.55 114.43 384.14C114.43 384.28 115.05 386.36 115.08 386.34C115.01 386.85 114.94 387.39 114.88 387.98C114.77 389.08 114.66 390.31 114.62 391.67C114.574 393.131 114.611 394.593 114.73 396.05C114.856 397.681 115.127 399.297 115.54 400.88V400.94C115.26 400.5 114.43 399.29 114.36 399.2C113.36 398 110.59 396.28 108.94 396.98C108.671 397.104 108.431 397.283 108.235 397.505C108.04 397.728 107.893 397.989 107.806 398.272C107.718 398.555 107.691 398.854 107.726 399.148C107.761 399.442 107.858 399.726 108.01 399.98C108.389 400.501 108.877 400.933 109.44 401.246C110.003 401.558 110.628 401.744 111.27 401.79Z" fill="#263238"/>
<path d="M141.9 393.39C141.9 393.39 142.47 391.31 142.49 391.17C142.71 389.59 142.2 386.41 140.59 385.63C140.319 385.509 140.026 385.446 139.73 385.446C139.433 385.446 139.14 385.508 138.869 385.629C138.598 385.75 138.356 385.926 138.158 386.147C137.96 386.368 137.811 386.628 137.72 386.91C137.575 387.536 137.567 388.185 137.699 388.814C137.83 389.442 138.097 390.035 138.48 390.55C139.474 391.659 140.627 392.616 141.9 393.39Z" fill="#263238"/>
<path d="M79 405.8C79.8874 406.031 80.8036 406.132 81.72 406.1C81.72 406.1 81.31 404.84 81.27 404.76C80.85 403.88 79.51 402.41 78.42 402.56C78.243 402.593 78.0749 402.663 77.9265 402.765C77.7781 402.868 77.6528 403 77.5586 403.153C77.4644 403.307 77.4034 403.478 77.3795 403.657C77.3557 403.836 77.3695 404.017 77.42 404.19C77.554 404.555 77.7643 404.888 78.0367 405.165C78.3091 405.443 78.6375 405.659 79 405.8Z" fill="#263238"/>
<path d="M97.9101 426.21C97.9917 426.047 98.0381 425.868 98.0461 425.686C98.0541 425.503 98.0236 425.321 97.9567 425.152C97.8897 424.982 97.7877 424.828 97.6573 424.7C97.527 424.572 97.3712 424.474 97.2001 424.41C96.2001 424.06 94.5601 425.25 93.9801 426.04C93.9801 426.04 93.7601 426.4 93.5901 426.71H97.5901C97.7292 426.566 97.838 426.396 97.9101 426.21Z" fill="#263238"/>
<path d="M92 421.09C92.7136 421.566 93.496 421.931 94.32 422.17C94.24 422.55 94.16 422.93 94.06 423.29C93.96 423.65 93.94 423.78 93.86 424.02C93.78 424.26 93.7 424.51 93.63 424.74C93.46 425.2 93.29 425.67 93.12 426.1L92.88 426.71H93.53L93.68 426.31C93.84 425.86 93.99 425.4 94.16 424.91C94.23 424.67 94.3 424.43 94.38 424.18C94.46 423.93 94.51 423.68 94.57 423.42C94.72 422.83 94.83 422.22 94.93 421.6C95.7443 421.927 96.6046 422.126 97.48 422.19C97.8772 422.185 98.2686 422.093 98.6263 421.92C98.984 421.748 99.2993 421.498 99.55 421.19C99.6555 421.04 99.7282 420.87 99.7633 420.69C99.7984 420.51 99.795 420.325 99.7535 420.146C99.7119 419.968 99.6331 419.8 99.5222 419.654C99.4113 419.509 99.2708 419.388 99.11 419.3C98.11 418.8 96.39 419.73 95.69 420.42L94.97 421.32C95.03 420.95 95.09 420.58 95.13 420.21C95.27 419.12 95.37 418.01 95.48 416.91C95.48 416.57 95.55 416.23 95.58 415.91C96.4249 416.243 97.3146 416.449 98.22 416.52C98.6172 416.515 99.0086 416.423 99.3663 416.25C99.724 416.078 100.039 415.828 100.29 415.52C100.395 415.371 100.468 415.201 100.503 415.022C100.538 414.843 100.535 414.659 100.493 414.481C100.451 414.303 100.373 414.136 100.262 413.992C100.151 413.847 100.011 413.727 99.85 413.64C98.85 413.14 97.13 414.06 96.43 414.76C96.43 414.81 95.74 415.6 95.59 415.81C95.67 415.07 95.75 414.33 95.87 413.61C96.0141 412.63 96.2246 411.661 96.5 410.71C97.3486 411.044 98.2413 411.253 99.15 411.33C99.5472 411.325 99.9386 411.233 100.296 411.06C100.654 410.888 100.969 410.638 101.22 410.33C101.325 410.181 101.398 410.011 101.433 409.832C101.468 409.653 101.465 409.469 101.423 409.291C101.381 409.113 101.303 408.946 101.192 408.802C101.081 408.657 100.941 408.537 100.78 408.45C99.78 407.94 98.06 408.87 97.36 409.56C97.31 409.62 96.62 410.47 96.51 410.64C96.5135 410.583 96.5135 410.527 96.51 410.47C96.8148 409.522 97.1995 408.602 97.66 407.72C97.91 407.24 98.18 406.78 98.45 406.35C99.2374 406.768 100.084 407.065 100.96 407.23C101.352 407.271 101.749 407.226 102.122 407.099C102.495 406.971 102.835 406.763 103.12 406.49C103.24 406.353 103.33 406.192 103.384 406.018C103.438 405.843 103.455 405.66 103.433 405.479C103.411 405.298 103.352 405.123 103.258 404.967C103.165 404.81 103.039 404.675 102.89 404.57C101.98 403.96 100.14 404.69 99.37 405.31C99.37 405.31 98.94 405.72 98.67 406.01C98.79 405.81 98.91 405.61 99.04 405.43C99.5 404.73 99.96 404.13 100.37 403.6L101.04 402.78C101.927 402.79 102.811 402.666 103.66 402.41C104.029 402.267 104.362 402.045 104.636 401.76C104.911 401.475 105.12 401.134 105.25 400.76C105.294 400.583 105.3 400.398 105.267 400.218C105.235 400.039 105.165 399.868 105.062 399.717C104.959 399.566 104.826 399.438 104.67 399.342C104.515 399.246 104.341 399.184 104.16 399.16C103.07 399.04 101.77 400.53 101.37 401.43C101.37 401.51 100.93 402.78 100.96 402.78C100.75 403.01 100.53 403.27 100.3 403.55C99.87 404.08 99.39 404.67 98.92 405.36C98.3969 406.09 97.9194 406.851 97.49 407.64C96.9987 408.518 96.587 409.438 96.26 410.39C96.26 410.07 96.26 409.17 96.26 409.1C96.14 408.1 95.32 406.32 94.26 406.1C94.0801 406.073 93.8966 406.084 93.7212 406.132C93.5458 406.181 93.3823 406.265 93.2412 406.38C93.1001 406.494 92.9844 406.637 92.9016 406.799C92.8187 406.961 92.7705 407.138 92.76 407.32C92.7761 407.705 92.8735 408.082 93.0458 408.427C93.2182 408.772 93.4616 409.076 93.76 409.32C94.5175 409.818 95.3473 410.195 96.22 410.44C95.9151 411.423 95.6746 412.425 95.5 413.44C95.39 414.02 95.31 414.62 95.23 415.22C95.23 414.94 95.23 414.69 95.23 414.66C95.1 413.66 94.29 411.88 93.23 411.66C93.0496 411.63 92.865 411.639 92.6882 411.686C92.5115 411.733 92.3468 411.816 92.2049 411.932C92.0631 412.047 91.9474 412.191 91.8655 412.355C91.7836 412.518 91.7375 412.697 91.73 412.88C91.7461 413.265 91.8435 413.642 92.0158 413.987C92.1882 414.332 92.4316 414.636 92.73 414.88C93.4671 415.367 94.2726 415.741 95.12 415.99C95.12 416.22 95.06 416.45 95.04 416.68C94.9 417.78 94.78 418.88 94.62 419.95C94.56 420.33 94.5 420.7 94.43 421.08C94.43 420.83 94.43 420.62 94.43 420.59C94.3 419.59 93.48 417.81 92.43 417.59C92.2501 417.563 92.0666 417.574 91.8912 417.623C91.7158 417.671 91.5523 417.755 91.4112 417.87C91.2701 417.984 91.1544 418.127 91.0716 418.289C90.9887 418.451 90.9405 418.628 90.93 418.81C90.9122 419.248 91.0001 419.684 91.1864 420.081C91.3726 420.478 91.6517 420.824 92 421.09Z" fill="#263238"/>
<path d="M79.62 411.38C80.5261 411.375 81.4262 411.234 82.29 410.96C82.5555 411.945 82.8896 412.911 83.29 413.85C83.52 414.4 83.78 414.94 84.04 415.49L83.72 415.03C83.08 414.28 81.4 413.23 80.39 413.66C80.2247 413.736 80.0771 413.845 79.9568 413.981C79.8364 414.118 79.746 414.278 79.6913 414.451C79.6367 414.625 79.619 414.808 79.6394 414.988C79.6599 415.169 79.718 415.343 79.81 415.5C80.0413 415.821 80.3402 416.088 80.6858 416.282C81.0313 416.475 81.4151 416.591 81.81 416.62C82.6916 416.624 83.5685 416.493 84.41 416.23L84.71 416.85C85.21 417.85 85.71 418.85 86.18 419.85C86.34 420.2 86.49 420.55 86.64 420.85L86.36 420.45C85.72 419.71 84.04 418.66 83.03 419.09C82.8647 419.166 82.7171 419.275 82.5968 419.411C82.4764 419.548 82.386 419.708 82.3313 419.881C82.2767 420.055 82.259 420.238 82.2794 420.418C82.2999 420.599 82.358 420.773 82.45 420.93C82.6813 421.251 82.9802 421.518 83.3258 421.712C83.6713 421.905 84.0551 422.021 84.45 422.05C85.3083 422.06 86.1625 421.932 86.98 421.67C87.13 422.03 87.27 422.39 87.39 422.75C87.51 423.11 87.56 423.22 87.62 423.47L87.83 424.21C87.94 424.67 88.06 425.21 88.16 425.62C88.26 426.03 88.29 426.24 88.35 426.55C88.2 426.21 87.87 425.55 87.84 425.48C87.32 424.65 85.84 423.35 84.75 423.62C84.5751 423.671 84.4129 423.758 84.2738 423.876C84.1347 423.993 84.0219 424.139 83.9427 424.303C83.8635 424.467 83.8196 424.646 83.814 424.828C83.8084 425.01 83.8411 425.191 83.91 425.36C84.0687 425.687 84.2952 425.977 84.5746 426.21C84.8539 426.442 85.1796 426.613 85.53 426.71H89.02C89.0154 426.637 89.0154 426.563 89.02 426.49C89.15 426.43 89.87 426.14 90.52 425.78C90.9052 426.148 91.3393 426.461 91.81 426.71H92.81C92.87 426.33 92.93 425.86 92.93 425.81C92.9183 424.948 92.684 424.104 92.25 423.36C92.2602 423.264 92.2602 423.166 92.25 423.07C92.2269 422.889 92.166 422.715 92.0713 422.559C91.9765 422.404 91.8501 422.269 91.7001 422.166C91.5502 422.062 91.3801 421.991 91.2009 421.957C91.0217 421.923 90.8374 421.928 90.66 421.97C89.59 422.25 88.92 424.11 88.87 425.09C88.87 425.15 88.87 425.78 88.94 426.18C88.88 425.95 88.83 425.72 88.78 425.48L88.41 424.05C88.33 423.81 88.26 423.57 88.19 423.32C88.12 423.07 88.02 422.83 87.93 422.58C87.72 422.01 87.48 421.43 87.22 420.86C88.0807 420.692 88.9082 420.384 89.67 419.95C89.9979 419.73 90.2748 419.442 90.4818 419.105C90.6888 418.769 90.8212 418.392 90.87 418C90.8749 417.817 90.8411 417.635 90.7709 417.466C90.7007 417.297 90.5956 417.145 90.4625 417.02C90.3294 416.894 90.1713 416.798 89.9986 416.738C89.8258 416.678 89.6423 416.654 89.46 416.67C88.37 416.78 87.46 418.52 87.22 419.48C87.22 419.54 87.15 420.25 87.12 420.64C86.96 420.3 86.81 419.95 86.64 419.64C86.15 418.64 85.64 417.64 85.11 416.7C84.95 416.4 84.79 416.1 84.64 415.8C85.5287 415.615 86.3847 415.298 87.18 414.86C87.5084 414.641 87.785 414.353 87.9905 414.017C88.1961 413.68 88.3256 413.302 88.37 412.91C88.3787 412.728 88.3491 412.547 88.2832 412.377C88.2173 412.207 88.1165 412.054 87.9874 411.925C87.8582 411.797 87.7036 411.698 87.5336 411.633C87.3635 411.568 87.1817 411.54 87 411.55C85.91 411.67 85 413.41 84.77 414.37C84.77 414.44 84.66 415.46 84.65 415.71C84.3 415.05 83.97 414.39 83.65 413.71C83.2276 412.83 82.8602 411.925 82.55 411C83.4472 410.802 84.3077 410.465 85.1 410C85.4312 409.783 85.7104 409.496 85.9179 409.159C86.1253 408.822 86.2558 408.443 86.3 408.05C86.3049 407.867 86.2711 407.685 86.2009 407.516C86.1307 407.347 86.0256 407.195 85.8925 407.07C85.7594 406.944 85.6013 406.848 85.4286 406.788C85.2558 406.728 85.0723 406.704 84.89 406.72C83.8 406.84 82.89 408.58 82.65 409.54C82.65 409.61 82.54 410.71 82.54 410.91L82.48 410.74C82.2115 409.784 82.0241 408.807 81.92 407.82C81.86 407.27 81.84 406.75 81.82 406.24C82.7069 406.149 83.5759 405.93 84.4 405.59C84.7509 405.408 85.0578 405.152 85.2996 404.839C85.5414 404.527 85.7122 404.165 85.8 403.78C85.8254 403.599 85.8123 403.415 85.7616 403.239C85.7109 403.063 85.6238 402.9 85.5058 402.761C85.3878 402.621 85.2417 402.508 85.077 402.428C84.9123 402.349 84.7328 402.305 84.55 402.3C83.45 402.3 82.32 403.92 82.01 404.86L81.81 405.86C81.81 405.63 81.81 405.39 81.81 405.17C81.81 404.34 81.87 403.58 81.92 402.91C81.92 402.53 81.99 402.18 82.03 401.86C82.7788 401.374 83.4526 400.781 84.03 400.1C84.2572 399.777 84.4107 399.408 84.4798 399.019C84.5489 398.631 84.5319 398.231 84.43 397.85C84.3697 397.677 84.2733 397.52 84.1474 397.387C84.0214 397.255 83.8688 397.151 83.6996 397.082C83.5303 397.013 83.3483 396.98 83.1657 396.987C82.983 396.994 82.8038 397.039 82.64 397.12C81.64 397.62 81.41 399.59 81.57 400.55C81.57 400.64 81.96 401.92 81.97 401.91C81.97 402.22 81.89 402.56 81.85 402.91C81.78 403.58 81.71 404.35 81.69 405.18C81.6599 406.077 81.6832 406.976 81.76 407.87C81.8327 408.883 82.0001 409.888 82.26 410.87L81.53 409.8C80.89 409.06 79.21 408.01 78.2 408.43C78.0344 408.507 77.8866 408.617 77.7662 408.754C77.6458 408.892 77.5554 409.052 77.5008 409.227C77.4462 409.401 77.4286 409.585 77.4491 409.766C77.4696 409.947 77.5279 410.122 77.62 410.28C77.8533 410.598 78.1531 410.861 78.4986 411.051C78.844 411.241 79.2267 411.353 79.62 411.38Z" fill="#263238"/>
<path d="M98.45 406.22C98.45 406.22 98.8001 404.94 98.8201 404.86C98.9501 403.86 98.6401 401.93 97.6501 401.45C97.4836 401.377 97.3036 401.339 97.1216 401.339C96.9396 401.339 96.7596 401.376 96.5931 401.45C96.4266 401.523 96.2772 401.63 96.1544 401.765C96.0316 401.899 95.9382 402.058 95.88 402.23C95.7916 402.615 95.7878 403.015 95.869 403.402C95.9501 403.788 96.1143 404.153 96.3501 404.47C96.9613 405.152 97.6688 405.742 98.45 406.22Z" fill="#263238"/>
<path d="M601.88 405.8C602.767 406.031 603.684 406.133 604.6 406.1C604.6 406.1 604.18 404.84 604.15 404.76C603.72 403.88 602.38 402.41 601.3 402.56C601.124 402.596 600.958 402.668 600.811 402.771C600.665 402.873 600.54 403.005 600.447 403.158C600.353 403.311 600.292 403.481 600.266 403.659C600.241 403.836 600.253 404.017 600.3 404.19C600.435 404.554 600.646 404.886 600.918 405.164C601.19 405.441 601.518 405.658 601.88 405.8Z" fill="#263238"/>
<path d="M620.84 426.21C620.92 426.046 620.964 425.867 620.971 425.684C620.978 425.502 620.946 425.32 620.878 425.151C620.81 424.981 620.708 424.828 620.577 424.7C620.447 424.573 620.291 424.474 620.12 424.41C619.12 424.06 617.49 425.25 616.91 426.04C616.91 426.04 616.69 426.4 616.51 426.71H620.51C620.65 426.565 620.762 426.396 620.84 426.21Z" fill="#263238"/>
<path d="M614.94 421.09C615.653 421.568 616.435 421.933 617.26 422.17C617.17 422.55 617.1 422.93 617 423.29C616.9 423.65 616.88 423.78 616.8 424.02C616.72 424.26 616.64 424.51 616.56 424.74C616.4 425.2 616.23 425.67 616.06 426.1L615.82 426.71H616.46L616.61 426.31C616.78 425.86 616.93 425.4 617.1 424.91C617.17 424.67 617.24 424.43 617.32 424.18C617.4 423.93 617.44 423.68 617.51 423.42C617.65 422.83 617.77 422.22 617.87 421.6C618.684 421.929 619.545 422.128 620.42 422.19C620.817 422.185 621.208 422.092 621.566 421.919C621.924 421.747 622.239 421.498 622.49 421.19C622.594 421.04 622.666 420.869 622.7 420.69C622.734 420.51 622.73 420.326 622.689 420.148C622.647 419.97 622.569 419.802 622.459 419.656C622.349 419.51 622.21 419.389 622.05 419.3C621.05 418.8 619.32 419.73 618.63 420.42C618.63 420.42 618.14 421.02 617.91 421.32C617.96 420.95 618.02 420.58 618.07 420.21C618.21 419.12 618.31 418.01 618.42 416.91C618.42 416.57 618.49 416.23 618.52 415.91C619.365 416.244 620.255 416.45 621.16 416.52C621.557 416.515 621.948 416.422 622.306 416.249C622.664 416.077 622.979 415.828 623.23 415.52C623.334 415.37 623.405 415.201 623.439 415.022C623.473 414.843 623.47 414.659 623.428 414.482C623.387 414.305 623.308 414.138 623.199 413.993C623.089 413.848 622.949 413.728 622.79 413.64C621.79 413.14 620.06 414.06 619.37 414.76C619.37 414.81 618.68 415.6 618.53 415.81C618.61 415.07 618.69 414.33 618.8 413.61C618.952 412.631 619.166 411.662 619.44 410.71C620.288 411.047 621.181 411.256 622.09 411.33C622.487 411.325 622.878 411.232 623.236 411.059C623.594 410.887 623.909 410.638 624.16 410.33C624.264 410.18 624.335 410.011 624.369 409.832C624.403 409.653 624.4 409.469 624.358 409.292C624.317 409.115 624.239 408.948 624.129 408.803C624.019 408.658 623.879 408.538 623.72 408.45C622.72 407.94 620.99 408.87 620.3 409.56C620.24 409.62 619.56 410.47 619.45 410.64C619.444 410.583 619.444 410.527 619.45 410.47C619.751 409.521 620.135 408.601 620.6 407.72C620.85 407.24 621.12 406.78 621.39 406.35C622.175 406.767 623.017 407.064 623.89 407.23C624.284 407.273 624.682 407.229 625.057 407.101C625.432 406.973 625.774 406.764 626.06 406.49C626.18 406.353 626.27 406.192 626.324 406.018C626.378 405.843 626.395 405.66 626.373 405.479C626.351 405.298 626.292 405.123 626.198 404.967C626.105 404.81 625.979 404.675 625.83 404.57C624.92 403.96 623.08 404.69 622.31 405.31C622.31 405.31 621.88 405.72 621.6 406.01L621.97 405.43C622.43 404.73 622.9 404.13 623.31 403.6L623.98 402.78C624.867 402.79 625.751 402.666 626.6 402.41C626.967 402.265 627.298 402.042 627.57 401.757C627.843 401.473 628.051 401.133 628.18 400.76C628.226 400.583 628.233 400.399 628.202 400.219C628.171 400.039 628.102 399.868 628 399.717C627.898 399.566 627.765 399.438 627.61 399.342C627.455 399.246 627.281 399.184 627.1 399.16C626 399.04 624.71 400.53 624.31 401.43C624.31 401.51 623.87 402.78 623.89 402.78C623.68 403.01 623.46 403.27 623.23 403.55C622.8 404.08 622.32 404.67 621.84 405.36C621.324 406.095 620.847 406.856 620.41 407.64C619.926 408.52 619.518 409.44 619.19 410.39C619.19 410.07 619.19 409.17 619.19 409.1C619.07 408.1 618.25 406.32 617.19 406.1C617.01 406.072 616.826 406.082 616.65 406.129C616.474 406.177 616.31 406.261 616.168 406.376C616.027 406.491 615.911 406.634 615.829 406.797C615.746 406.96 615.699 407.138 615.69 407.32C615.707 407.705 615.805 408.082 615.978 408.426C616.15 408.771 616.393 409.075 616.69 409.32C617.452 409.816 618.285 410.194 619.16 410.44C618.852 411.423 618.608 412.425 618.43 413.44C618.33 414.02 618.24 414.62 618.16 415.22C618.16 414.94 618.16 414.69 618.16 414.66C618.03 413.66 617.22 411.88 616.16 411.66C615.98 411.63 615.795 411.639 615.618 411.686C615.442 411.733 615.277 411.816 615.135 411.932C614.993 412.047 614.878 412.191 614.796 412.355C614.714 412.518 614.668 412.697 614.66 412.88C614.672 413.266 614.767 413.645 614.94 413.99C615.112 414.336 615.358 414.639 615.66 414.88C616.395 415.37 617.201 415.745 618.05 415.99L617.96 416.68C617.83 417.78 617.7 418.88 617.55 419.95C617.49 420.33 617.42 420.7 617.36 421.08C617.36 420.83 617.36 420.62 617.36 420.59C617.24 419.59 616.42 417.81 615.36 417.59C615.18 417.562 614.996 417.572 614.82 417.619C614.644 417.667 614.48 417.751 614.338 417.866C614.197 417.981 614.081 418.124 613.999 418.287C613.916 418.45 613.869 418.628 613.86 418.81C613.843 419.249 613.933 419.685 614.121 420.082C614.309 420.479 614.59 420.825 614.94 421.09Z" fill="#263238"/>
<path d="M602.54 411.38C603.449 411.375 604.353 411.234 605.22 410.96C605.49 411.944 605.824 412.91 606.22 413.85C606.46 414.4 606.71 414.94 606.98 415.49L606.66 415.03C606.01 414.28 604.34 413.23 603.33 413.66C603.165 413.736 603.017 413.845 602.897 413.981C602.776 414.118 602.686 414.278 602.631 414.451C602.577 414.625 602.559 414.808 602.579 414.988C602.6 415.169 602.658 415.343 602.75 415.5C602.98 415.822 603.279 416.09 603.625 416.284C603.971 416.477 604.355 416.592 604.75 416.62C605.632 416.625 606.509 416.494 607.35 416.23C607.46 416.43 607.56 416.64 607.66 416.85C608.16 417.85 608.66 418.85 609.12 419.85C609.29 420.2 609.43 420.55 609.58 420.85L609.3 420.45C608.66 419.71 606.99 418.66 605.97 419.09C605.806 419.167 605.659 419.277 605.54 419.414C605.42 419.55 605.331 419.71 605.277 419.884C605.224 420.057 605.207 420.24 605.228 420.42C605.249 420.6 605.308 420.774 605.4 420.93C605.63 421.252 605.929 421.52 606.275 421.714C606.621 421.907 607.005 422.022 607.4 422.05C608.258 422.06 609.113 421.932 609.93 421.67C610.07 422.03 610.22 422.39 610.34 422.75C610.46 423.11 610.51 423.22 610.57 423.47L610.78 424.21C610.89 424.67 611.01 425.21 611.11 425.62C611.21 426.03 611.24 426.24 611.3 426.55C611.14 426.21 610.82 425.55 610.78 425.48C610.26 424.65 608.78 423.35 607.7 423.62C607.524 423.67 607.361 423.756 607.221 423.873C607.081 423.991 606.967 424.136 606.886 424.3C606.806 424.464 606.762 424.644 606.755 424.826C606.749 425.009 606.781 425.191 606.85 425.36C607.012 425.687 607.241 425.976 607.521 426.208C607.802 426.441 608.129 426.612 608.48 426.71H612C611.988 426.636 611.971 426.562 611.95 426.49C612.08 426.43 612.81 426.14 613.46 425.78C613.845 426.148 614.279 426.461 614.75 426.71H615.75C615.75 426.33 615.87 425.86 615.87 425.81C615.854 424.949 615.62 424.106 615.19 423.36C615.2 423.264 615.2 423.166 615.19 423.07C615.168 422.888 615.109 422.714 615.014 422.557C614.92 422.4 614.793 422.266 614.643 422.162C614.493 422.058 614.322 421.987 614.142 421.954C613.962 421.921 613.778 421.926 613.6 421.97C612.54 422.25 611.87 424.11 611.82 425.09C611.82 425.15 611.82 425.78 611.88 426.18C611.83 425.95 611.78 425.72 611.72 425.48C611.61 425.02 611.49 424.55 611.35 424.05C611.28 423.81 611.21 423.57 611.13 423.32C611.05 423.07 610.96 422.83 610.88 422.58C610.67 422.01 610.43 421.43 610.17 420.86C611.03 420.69 611.857 420.383 612.62 419.95C612.948 419.731 613.224 419.443 613.43 419.106C613.635 418.769 613.765 418.392 613.81 418C613.816 417.818 613.784 417.636 613.715 417.467C613.646 417.298 613.542 417.146 613.409 417.02C613.277 416.894 613.12 416.798 612.947 416.738C612.775 416.677 612.592 416.654 612.41 416.67C611.32 416.78 610.41 418.52 610.17 419.48C610.17 419.54 610.09 420.25 610.07 420.64C609.91 420.3 609.76 419.95 609.59 419.64C609.1 418.64 608.59 417.64 608.05 416.7C607.9 416.4 607.74 416.1 607.58 415.8C608.47 415.618 609.326 415.301 610.12 414.86C610.45 414.643 610.728 414.355 610.933 414.018C611.139 413.681 611.268 413.303 611.31 412.91C611.316 412.728 611.284 412.546 611.215 412.377C611.146 412.208 611.042 412.056 610.909 411.93C610.777 411.804 610.62 411.708 610.447 411.648C610.275 411.587 610.092 411.564 609.91 411.58C608.82 411.7 607.91 413.44 607.67 414.4C607.67 414.47 607.57 415.49 607.56 415.74C607.21 415.08 606.87 414.42 606.56 413.74C606.141 412.842 605.784 411.916 605.49 410.97C606.372 410.778 607.218 410.451 608 410C608.33 409.783 608.608 409.495 608.813 409.158C609.019 408.821 609.148 408.443 609.19 408.05C609.196 407.868 609.164 407.686 609.095 407.517C609.026 407.348 608.922 407.196 608.789 407.07C608.657 406.944 608.5 406.848 608.327 406.788C608.155 406.727 607.972 406.704 607.79 406.72C606.7 406.84 605.79 408.58 605.55 409.54C605.55 409.61 605.44 410.71 605.43 410.91C605.43 410.85 605.43 410.8 605.38 410.74C605.107 409.785 604.919 408.808 604.82 407.82C604.76 407.27 604.73 406.75 604.72 406.24C605.607 406.148 606.476 405.929 607.3 405.59C607.65 405.406 607.956 405.15 608.197 404.838C608.439 404.525 608.61 404.165 608.7 403.78C608.724 403.599 608.71 403.415 608.658 403.24C608.607 403.065 608.52 402.903 608.402 402.764C608.284 402.625 608.139 402.511 607.975 402.431C607.811 402.352 607.632 402.307 607.45 402.3C606.35 402.3 605.21 403.92 604.91 404.86L604.71 405.86C604.71 405.63 604.71 405.39 604.71 405.17C604.71 404.34 604.71 403.58 604.82 402.91C604.82 402.53 604.89 402.18 604.92 401.86C605.673 401.379 606.347 400.786 606.92 400.1C607.149 399.778 607.304 399.409 607.375 399.021C607.446 398.632 607.431 398.232 607.33 397.85C607.268 397.678 607.171 397.522 607.045 397.39C606.919 397.259 606.767 397.155 606.598 397.086C606.429 397.017 606.248 396.985 606.065 396.991C605.883 396.996 605.704 397.041 605.54 397.12C604.54 397.62 604.31 399.59 604.47 400.55C604.47 400.64 604.85 401.92 604.87 401.91C604.87 402.22 604.78 402.56 604.74 402.91C604.68 403.58 604.61 404.35 604.59 405.18C604.561 406.077 604.581 406.975 604.65 407.87C604.733 408.882 604.9 409.886 605.15 410.87C604.98 410.6 604.47 409.87 604.43 409.8C603.78 409.06 602.11 408.01 601.1 408.43C600.934 408.507 600.787 408.617 600.666 408.754C600.546 408.892 600.455 409.052 600.401 409.227C600.346 409.401 600.329 409.585 600.349 409.766C600.37 409.947 600.428 410.122 600.52 410.28C600.755 410.601 601.057 410.867 601.407 411.057C601.756 411.247 602.143 411.357 602.54 411.38Z" fill="#263238"/>
<path d="M621.38 406.22C621.38 406.22 621.73 404.94 621.74 404.86C621.88 403.86 621.57 401.93 620.58 401.45C620.414 401.377 620.234 401.339 620.052 401.339C619.87 401.339 619.69 401.376 619.523 401.45C619.357 401.523 619.207 401.63 619.084 401.765C618.962 401.899 618.868 402.058 618.81 402.23C618.722 402.615 618.718 403.015 618.799 403.402C618.88 403.788 619.044 404.153 619.28 404.47C619.891 405.152 620.599 405.742 621.38 406.22Z" fill="#263238"/>
<path d="M69.38 161.26C69.38 161.26 114.11 165.68 136.77 193.41C136.77 193.41 160.72 161.29 203.77 161.95C214.283 149.269 220.977 133.863 223.073 117.526C225.169 101.188 222.581 84.5915 215.61 69.6678C208.639 54.7442 197.572 42.1079 183.697 33.2303C169.823 24.3527 153.712 19.5992 137.241 19.5232C120.769 19.4472 104.615 24.0519 90.6597 32.801C76.704 41.5502 65.5208 54.0838 58.4124 68.9425C51.3039 83.8012 48.5628 100.373 50.508 116.73C52.4532 133.086 59.0049 148.553 69.4 161.33L69.38 161.26Z" fill="#D37815"/>
<path opacity="0.4" d="M69.38 161.26C69.38 161.26 114.11 165.68 136.77 193.41C136.77 193.41 160.72 161.29 203.77 161.95C214.283 149.269 220.977 133.863 223.073 117.526C225.169 101.188 222.581 84.5915 215.61 69.6678C208.639 54.7442 197.572 42.1079 183.697 33.2303C169.823 24.3527 153.712 19.5992 137.241 19.5232C120.769 19.4472 104.615 24.0519 90.6597 32.801C76.704 41.5502 65.5208 54.0838 58.4124 68.9425C51.3039 83.8012 48.5628 100.373 50.508 116.73C52.4532 133.086 59.0049 148.553 69.4 161.33L69.38 161.26Z" fill="white"/>
<path d="M179.84 111C179.84 111 153.1 117.34 138.34 138.84L137.5 107.57L137.56 107.98C137.56 107.98 152.66 80.81 179.84 72.5C179.84 72.5 151.84 79.14 137.35 101.86L135.29 59.7599L134.66 120.1C120.44 98.4899 94.53 92.0999 94.53 92.0999C117.42 99.3499 131.42 120.97 134.62 126.35L134.41 157.45C120.14 136.14 94.53 129.85 94.53 129.85C116.87 136.92 130.75 157.69 134.37 163.68L133.78 427.22H141.33L139.5 181.83C144.37 174.46 158.31 156.05 179.84 149.47C179.84 149.47 154.27 155.54 139.34 175.91L138.51 144.91C142.18 139 156.58 118.08 179.84 111Z" fill="#263238"/>
<path d="M179.84 111C179.84 111 153.1 117.34 138.34 138.84L137.5 107.57L137.56 107.98C137.56 107.98 152.66 80.81 179.84 72.5C179.84 72.5 151.84 79.14 137.35 101.86L135.29 59.7599L134.66 120.1C120.44 98.4899 94.53 92.0999 94.53 92.0999C117.42 99.3499 131.42 120.97 134.62 126.35L134.41 157.45C120.14 136.14 94.53 129.85 94.53 129.85C116.87 136.92 130.75 157.69 134.37 163.68L133.78 427.22H141.33L139.5 181.83C144.37 174.46 158.31 156.05 179.84 149.47C179.84 149.47 154.27 155.54 139.34 175.91L138.51 144.91C142.18 139 156.58 118.08 179.84 111Z" fill="#263238"/>
<path d="M35.13 304.65C35.13 304.65 71.59 308.26 90.13 330.87C90.13 330.87 109.66 304.68 144.73 305.22C153.298 294.881 158.752 282.322 160.459 269.003C162.166 255.685 160.055 242.156 154.371 229.99C148.688 217.825 139.665 207.525 128.355 200.288C117.045 193.052 103.911 189.176 90.4842 189.114C77.057 189.051 63.8883 192.804 52.511 199.935C41.1338 207.066 32.0161 217.282 26.2195 229.394C20.4228 241.506 18.1857 255.015 19.7685 268.348C21.3513 281.682 26.6889 294.292 35.16 304.71L35.13 304.65Z" fill="#D37815"/>
<path opacity="0.4" d="M35.13 304.65C35.13 304.65 71.59 308.26 90.13 330.87C90.13 330.87 109.66 304.68 144.73 305.22C153.298 294.881 158.752 282.322 160.459 269.003C162.166 255.685 160.055 242.156 154.371 229.99C148.688 217.825 139.665 207.525 128.355 200.288C117.045 193.052 103.911 189.176 90.4842 189.114C77.057 189.051 63.8883 192.804 52.511 199.935C41.1338 207.066 32.0161 217.282 26.2195 229.394C20.4228 241.506 18.1857 255.015 19.7685 268.348C21.3513 281.682 26.6889 294.292 35.16 304.71L35.13 304.65Z" fill="white"/>
<path d="M55.63 279C73.85 284.77 85.16 301.7 88.11 306.59L87.85 427.08H93.09L92.3 321.43C96.3 315.43 107.64 300.43 125.19 295.05C125.19 295.05 104.34 299.99 92.19 316.6L91.51 291.3C94.51 286.49 106.25 269.45 125.21 263.65C125.21 263.65 103.41 268.82 91.38 286.35L90.69 260.85V261.19C90.69 261.19 103 239 125.19 232.26C125.19 232.26 102.37 237.68 90.54 256.2L88.87 221.88L88.35 271.07C76.76 253.45 55.63 248.26 55.63 248.26C74.29 254.17 85.71 271.8 88.32 276.19L88.15 301.55C76.51 284.18 55.63 279 55.63 279Z" fill="#263238"/>
<path d="M55.63 279C73.85 284.77 85.16 301.7 88.11 306.59L87.85 427.08H93.09L92.3 321.43C96.3 315.43 107.64 300.43 125.19 295.05C125.19 295.05 104.34 299.99 92.19 316.6L91.51 291.3C94.51 286.49 106.25 269.45 125.21 263.65C125.21 263.65 103.41 268.82 91.38 286.35L90.69 260.85V261.19C90.69 261.19 103 239 125.19 232.26C125.19 232.26 102.37 237.68 90.54 256.2L88.87 221.88L88.35 271.07C76.76 253.45 55.63 248.26 55.63 248.26C74.29 254.17 85.71 271.8 88.32 276.19L88.15 301.55C76.51 284.18 55.63 279 55.63 279Z" fill="#263238"/>
<path d="M560.36 304.65C560.36 304.65 596.83 308.26 615.31 330.87C615.31 330.87 634.84 304.68 669.91 305.22C678.483 294.881 683.942 282.319 685.653 268.998C687.363 255.676 685.253 242.143 679.57 229.973C673.886 217.804 664.863 207.5 653.55 200.261C642.237 193.021 629.1 189.145 615.67 189.082C602.239 189.02 589.067 192.774 577.687 199.907C566.307 207.041 557.188 217.261 551.391 229.377C545.595 241.493 543.359 255.006 544.946 268.343C546.532 281.68 551.874 294.292 560.35 304.71L560.36 304.65Z" fill="#D37815"/>
<path opacity="0.4" d="M560.36 304.65C560.36 304.65 596.83 308.26 615.31 330.87C615.31 330.87 634.84 304.68 669.91 305.22C678.483 294.881 683.942 282.319 685.653 268.998C687.363 255.676 685.253 242.143 679.57 229.973C673.886 217.804 664.863 207.5 653.55 200.261C642.237 193.021 629.1 189.145 615.67 189.082C602.239 189.02 589.067 192.774 577.687 199.907C566.307 207.041 557.188 217.261 551.391 229.377C545.595 241.493 543.359 255.006 544.946 268.343C546.532 281.68 551.874 294.292 560.35 304.71L560.36 304.65Z" fill="white"/>
<path d="M580.87 279C599.08 284.77 610.4 301.7 613.35 306.59L613.08 427.08H618.32L617.54 321.39C621.54 315.39 632.87 300.39 650.42 295.01C650.42 295.01 629.58 299.95 617.42 316.56L616.73 291.26C619.73 286.45 631.47 269.41 650.43 263.61C650.43 263.61 628.63 268.78 616.6 286.31L615.91 260.81L615.96 261.15C615.96 261.15 628.27 238.99 650.43 232.22C650.43 232.22 627.62 237.64 615.79 256.16L614.12 221.84L613.6 271.03C602 253.41 580.88 248.22 580.88 248.22C599.54 254.13 610.96 271.76 613.56 276.15L613.39 301.51C601.75 284.18 580.87 279 580.87 279Z" fill="#263238"/>
<path d="M580.87 279C599.08 284.77 610.4 301.7 613.35 306.59L613.08 427.08H618.32L617.54 321.39C621.54 315.39 632.87 300.39 650.42 295.01C650.42 295.01 629.58 299.95 617.42 316.56L616.73 291.26C619.73 286.45 631.47 269.41 650.43 263.61C650.43 263.61 628.63 268.78 616.6 286.31L615.91 260.81L615.96 261.15C615.96 261.15 628.27 238.99 650.43 232.22C650.43 232.22 627.62 237.64 615.79 256.16L614.12 221.84L613.6 271.03C602 253.41 580.88 248.22 580.88 248.22C599.54 254.13 610.96 271.76 613.56 276.15L613.39 301.51C601.75 284.18 580.87 279 580.87 279Z" fill="#263238"/>
<path d="M506.74 143.23L470.7 179.27" stroke="#263238" stroke-linecap="round" stroke-linejoin="round"/>
<path d="M465.71 184.26L469.87 174.35L471.08 178.89L475.62 180.1L465.71 184.26Z" fill="#263238"/>
<path d="M525.62 150.4L508.33 180.11" stroke="#263238" stroke-linecap="round" stroke-linejoin="round"/>
<path d="M504.78 186.21L506.27 175.57L508.6 179.66H513.3L504.78 186.21Z" fill="#263238"/>
<path d="M514.55 110.02L402.67 179.87" stroke="#263238" stroke-linecap="round" stroke-linejoin="round"/>
<path d="M396.68 183.61L402.97 174.89L403.12 179.59L407.27 181.79L396.68 183.61Z" fill="#263238"/>
<path d="M560.908 123.63C578.514 119.968 589.817 102.727 586.155 85.1214C582.493 67.5159 565.253 56.2123 547.647 59.8743C530.041 63.5363 518.738 80.777 522.4 98.3826C526.062 115.988 543.303 127.292 560.908 123.63Z" fill="#D37815" stroke="#263238" stroke-miterlimit="10"/>
<path d="M554.28 35.13V50.76" stroke="#263238" stroke-miterlimit="10"/>
<path d="M554.28 132.81V148.44" stroke="#263238" stroke-miterlimit="10"/>
<path d="M610.93 91.79H595.3" stroke="#263238" stroke-miterlimit="10"/>
<path d="M513.25 91.79H497.62" stroke="#263238" stroke-miterlimit="10"/>
<path d="M594.34 51.72L583.29 62.78" stroke="#263238" stroke-miterlimit="10"/>
<path d="M525.27 120.8L514.21 131.85" stroke="#263238" stroke-miterlimit="10"/>
<path d="M514.21 51.72L525.27 62.78" stroke="#263238" stroke-miterlimit="10"/>
<path d="M583.29 120.8L594.34 131.85" stroke="#263238" stroke-miterlimit="10"/>
<path d="M576.9 319.61H160.74V426.68H576.9V319.61Z" fill="white"/>
<path opacity="0.31" d="M576.9 319.61H160.74V338.67H576.9V319.61Z" fill="black"/>
<path d="M576.9 319.61H160.74V426.68H576.9V319.61Z" stroke="#263238" stroke-linecap="round" stroke-linejoin="round"/>
<path d="M581.17 319.61H156.48V324.51H581.17V319.61Z" fill="white" stroke="#263238" stroke-linecap="round" stroke-linejoin="round"/>
<path d="M582.29 319.69H151.93L187.79 196.73H546.42L582.29 319.69Z" fill="#263238" stroke="#263238" stroke-linecap="round" stroke-linejoin="round"/>
<path d="M238.39 300.26H173.68L198.31 208.91L255.1 209.15L238.39 300.26Z" fill="#D37815" stroke="white" stroke-miterlimit="10"/>
<path d="M212.29 209.09L189.69 300.1" stroke="white" stroke-miterlimit="10"/>
<path d="M226.97 209.15L206.41 300.1" stroke="white" stroke-miterlimit="10"/>
<path d="M241.63 209.21L223.1 300.1" stroke="white" stroke-miterlimit="10"/>
<path d="M194.99 221.58L253.21 221.79" stroke="white" stroke-miterlimit="10"/>
<path d="M191.08 236.09L250.56 236.26" stroke="white" stroke-miterlimit="10"/>
<path d="M186.99 251.24L247.8 251.37" stroke="white" stroke-miterlimit="10"/>
<path d="M182.73 267.07L244.92 267.17" stroke="white" stroke-miterlimit="10"/>
<path d="M178.26 283.64L241.9 283.69" stroke="white" stroke-miterlimit="10"/>
<path d="M313.98 300.26H249.72L265.05 209.19L321.49 209.42L313.98 300.26Z" fill="#D37815" stroke="white" stroke-miterlimit="10"/>
<path d="M278.96 209.37L265.6 300.1" stroke="white" stroke-miterlimit="10"/>
<path d="M293.55 209.43L282.21 300.1" stroke="white" stroke-miterlimit="10"/>
<path d="M308.12 209.49L298.79 300.1" stroke="white" stroke-miterlimit="10"/>
<path d="M263.01 221.82L320.88 222.03" stroke="white" stroke-miterlimit="10"/>
<path d="M260.58 236.29L319.69 236.46" stroke="white" stroke-miterlimit="10"/>
<path d="M258.04 251.4L318.45 251.53" stroke="white" stroke-miterlimit="10"/>
<path d="M255.39 267.18L317.16 267.28" stroke="white" stroke-miterlimit="10"/>
<path d="M252.61 283.7L315.81 283.75" stroke="white" stroke-miterlimit="10"/>
<path d="M494.77 300.26H559.47L534.84 208.91L478.06 209.15L494.77 300.26Z" fill="#D37815" stroke="white" stroke-miterlimit="10"/>
<path d="M520.86 209.09L543.46 300.1" stroke="white" stroke-miterlimit="10"/>
<path d="M506.18 209.15L526.74 300.1" stroke="white" stroke-miterlimit="10"/>
<path d="M491.53 209.21L510.05 300.1" stroke="white" stroke-miterlimit="10"/>
<path d="M538.17 221.58L479.94 221.79" stroke="white" stroke-miterlimit="10"/>
<path d="M542.08 236.09L482.59 236.26" stroke="white" stroke-miterlimit="10"/>
<path d="M546.16 251.24L485.35 251.37" stroke="white" stroke-miterlimit="10"/>
<path d="M550.43 267.07L488.24 267.17" stroke="white" stroke-miterlimit="10"/>
<path d="M554.89 283.64L491.26 283.69" stroke="white" stroke-miterlimit="10"/>
<path d="M419.17 300.26H483.43L468.1 209.19L411.66 209.42L419.17 300.26Z" fill="#D37815" stroke="white" stroke-miterlimit="10"/>
<path d="M454.2 209.37L467.55 300.1" stroke="white" stroke-miterlimit="10"/>
<path d="M439.61 209.43L450.95 300.1" stroke="white" stroke-miterlimit="10"/>
<path d="M425.04 209.49L434.37 300.1" stroke="white" stroke-miterlimit="10"/>
<path d="M470.14 221.82L412.28 222.03" stroke="white" stroke-miterlimit="10"/>
<path d="M472.57 236.29L413.46 236.46" stroke="white" stroke-miterlimit="10"/>
<path d="M475.11 251.4L414.7 251.53" stroke="white" stroke-miterlimit="10"/>
<path d="M477.77 267.18L415.99 267.28" stroke="white" stroke-miterlimit="10"/>
<path d="M480.54 283.7L417.34 283.75" stroke="white" stroke-miterlimit="10"/>
<path d="M344.81 338.66H336.77V352.59H344.81V338.66Z" fill="#CCCCCC"/>
<path d="M344.81 355.52H336.77V367.99H344.81V355.52Z" fill="#CCCCCC"/>
<path d="M344.81 370.91H336.77V383.38H344.81V370.91Z" fill="#CCCCCC"/>
<path d="M344.81 386.31H336.77V402.3H344.81V386.31Z" fill="#CCCCCC"/>
<path d="M334.72 386.31H325.03V402.3H334.72V386.31Z" fill="#CCCCCC"/>
<path d="M334.72 370.91H325.03V383.38H334.72V370.91Z" fill="#CCCCCC"/>
<path d="M334.72 355.52H325.03V367.99H334.72V355.52Z" fill="#CCCCCC"/>
<path d="M334.72 338.66H325.03V352.59H334.72V338.66Z" fill="#CCCCCC"/>
<path d="M411.59 338.66H403.54V352.59H411.59V338.66Z" fill="#CCCCCC"/>
<path d="M411.59 355.52H403.54V367.99H411.59V355.52Z" fill="#CCCCCC"/>
<path d="M411.59 370.91H403.54V383.38H411.59V370.91Z" fill="#CCCCCC"/>
<path d="M411.59 386.31H403.54V402.3H411.59V386.31Z" fill="#CCCCCC"/>
<path d="M401.49 386.31H391.8V402.3H401.49V386.31Z" fill="#CCCCCC"/>
<path d="M401.49 370.91H391.8V383.38H401.49V370.91Z" fill="#CCCCCC"/>
<path d="M401.49 355.52H391.8V367.99H401.49V355.52Z" fill="#CCCCCC"/>
<path d="M401.49 338.66H391.8V352.59H401.49V338.66Z" fill="#CCCCCC"/>
<path d="M389.36 337.98H347.61V417.96H389.36V337.98Z" fill="#D37815" stroke="#263238" stroke-linecap="round" stroke-linejoin="round"/>
<path d="M383.97 342.7H353.67V381.76H383.97V342.7Z" stroke="#263238" stroke-width="0.5" stroke-linecap="round" stroke-linejoin="round"/>
<path d="M383.97 396.57H353.67V412.73H383.97V396.57Z" stroke="#263238" stroke-width="0.5" stroke-linecap="round" stroke-linejoin="round"/>
<path d="M383.97 386.47H353.67V392.53H383.97V386.47Z" stroke="#263238" stroke-width="0.5" stroke-linecap="round" stroke-linejoin="round"/>
<path d="M352.46 376.93H348.67V389.73H352.46V376.93Z" fill="#263238"/>
<path d="M369.16 332.86C373.037 332.86 376.18 329.717 376.18 325.84C376.18 321.963 373.037 318.82 369.16 318.82C365.283 318.82 362.14 321.963 362.14 325.84C362.14 329.717 365.283 332.86 369.16 332.86Z" stroke="#263238" stroke-linecap="round" stroke-linejoin="round"/>
<path d="M371.9 338.67H366.4L365.33 331.89H372.97L371.9 338.67Z" fill="white" stroke="#263238" stroke-width="2" stroke-linecap="round" stroke-linejoin="round"/>
<path d="M371.36 326.51H366.94L364.63 331.88H373.66L371.36 326.51Z" fill="white" stroke="#263238" stroke-linecap="round" stroke-linejoin="round"/>
<path d="M370.25 323.84H368.05V326.45H370.25V323.84Z" fill="#263238" stroke="#263238" stroke-linecap="round" stroke-linejoin="round"/>
<path d="M330.93 327.81L341.68 324.42C357.89 319.327 375.247 319.163 391.55 323.95L404.66 327.81H426.05V302L366.55 231.55L308.17 302V327.77L330.93 327.81Z" fill="white" stroke="#263238" stroke-linecap="round" stroke-linejoin="round"/>
<path d="M426.05 417.26H308.17V426.69H426.05V417.26Z" fill="#263238" stroke="#263238" stroke-linecap="round" stroke-linejoin="round"/>
<path d="M332.05 418.22V425.6" stroke="#B0B0B0" stroke-linecap="round" stroke-linejoin="round"/>
<path d="M338.15 418.22V425.6" stroke="#B0B0B0" stroke-linecap="round" stroke-linejoin="round"/>
<path d="M344.24 418.22V425.6" stroke="#B0B0B0" stroke-linecap="round" stroke-linejoin="round"/>
<path d="M350.34 418.22V425.6" stroke="#B0B0B0" stroke-linecap="round" stroke-linejoin="round"/>
<path d="M356.44 418.22V425.6" stroke="#B0B0B0" stroke-linecap="round" stroke-linejoin="round"/>
<path d="M362.54 418.22V425.6" stroke="#B0B0B0" stroke-linecap="round" stroke-linejoin="round"/>
<path d="M368.63 418.22V425.6" stroke="#B0B0B0" stroke-linecap="round" stroke-linejoin="round"/>
<path d="M374.73 418.22V425.6" stroke="#B0B0B0" stroke-linecap="round" stroke-linejoin="round"/>
<path d="M380.83 418.22V425.6" stroke="#B0B0B0" stroke-linecap="round" stroke-linejoin="round"/>
<path d="M386.93 418.22V425.6" stroke="#B0B0B0" stroke-linecap="round" stroke-linejoin="round"/>
<path d="M393.03 418.22V425.6" stroke="#B0B0B0" stroke-linecap="round" stroke-linejoin="round"/>
<path d="M399.12 418.22V425.6" stroke="#B0B0B0" stroke-linecap="round" stroke-linejoin="round"/>
<path d="M405.22 418.22V425.6" stroke="#B0B0B0" stroke-linecap="round" stroke-linejoin="round"/>
<path d="M367.11 222.5L295.05 314.21H329.81V305.21H312.17L367.11 237.46L422.05 305.21H404.51V314.21H439.17L367.11 222.5Z" fill="white" stroke="#263238" stroke-linecap="round" stroke-linejoin="round"/>
<path d="M329.76 314.21H295.05V322.5H329.76V314.21Z" fill="white" stroke="#263238" stroke-linecap="round" stroke-linejoin="round"/>
<path d="M311.09 336.05H300.78V420.73H311.09V336.05Z" fill="white" stroke="#263238" stroke-linecap="round" stroke-linejoin="round"/>
<path d="M311.68 332.96H300.19V336.16H311.68V332.96Z" fill="white" stroke="#263238" stroke-linecap="round" stroke-linejoin="round"/>
<path d="M312.47 322.61H299.4V333.14H312.47V322.61Z" fill="white" stroke="#263238" stroke-linecap="round" stroke-linejoin="round"/>
<path d="M300.19 416.27H311.68V413.07H300.19V416.27Z" fill="white" stroke="#263238" stroke-linecap="round" stroke-linejoin="round"/>
<path d="M299.4 426.62H312.47V416.09H299.4V426.62Z" fill="white" stroke="#263238" stroke-linecap="round" stroke-linejoin="round"/>
<path d="M326.45 336.05H316.14V420.73H326.45V336.05Z" fill="white" stroke="#263238" stroke-linecap="round" stroke-linejoin="round"/>
<path d="M327.05 332.96H315.56V336.16H327.05V332.96Z" fill="white" stroke="#263238" stroke-linecap="round" stroke-linejoin="round"/>
<path d="M327.84 322.61H314.77V333.14H327.84V322.61Z" fill="white" stroke="#263238" stroke-linecap="round" stroke-linejoin="round"/>
<path d="M315.55 416.27H327.04V413.07H315.55V416.27Z" fill="white" stroke="#263238" stroke-linecap="round" stroke-linejoin="round"/>
<path d="M314.76 426.62H327.83V416.09H314.76V426.62Z" fill="white" stroke="#263238" stroke-linecap="round" stroke-linejoin="round"/>
<path d="M439.16 314.21H404.45V322.5H439.16V314.21Z" fill="white" stroke="#263238" stroke-linecap="round" stroke-linejoin="round"/>
<path d="M420.49 336.05H410.18V420.73H420.49V336.05Z" fill="white" stroke="#263238" stroke-linecap="round" stroke-linejoin="round"/>
<path d="M421.08 332.96H409.59V336.16H421.08V332.96Z" fill="white" stroke="#263238" stroke-linecap="round" stroke-linejoin="round"/>
<path d="M421.87 322.61H408.8V333.14H421.87V322.61Z" fill="white" stroke="#263238" stroke-linecap="round" stroke-linejoin="round"/>
<path d="M409.59 416.27H421.08V413.07H409.59V416.27Z" fill="white" stroke="#263238" stroke-linecap="round" stroke-linejoin="round"/>
<path d="M408.8 426.62H421.87V416.09H408.8V426.62Z" fill="white" stroke="#263238" stroke-linecap="round" stroke-linejoin="round"/>
<path d="M435.85 336.05H425.54V420.73H435.85V336.05Z" fill="white" stroke="#263238" stroke-linecap="round" stroke-linejoin="round"/>
<path d="M436.45 332.96H424.96V336.16H436.45V332.96Z" fill="white" stroke="#263238" stroke-linecap="round" stroke-linejoin="round"/>
<path d="M437.23 322.61H424.16V333.14H437.23V322.61Z" fill="white" stroke="#263238" stroke-linecap="round" stroke-linejoin="round"/>
<path d="M424.95 416.27H436.44V413.07H424.95V416.27Z" fill="white" stroke="#263238" stroke-linecap="round" stroke-linejoin="round"/>
<path d="M424.17 426.62H437.24V416.09H424.17V426.62Z" fill="white" stroke="#263238" stroke-linecap="round" stroke-linejoin="round"/>
<path d="M205.25 370.91H195.35V383.38H205.25V370.91Z" fill="#CCCCCC"/>
<path d="M193.3 338.66H185.25V352.59H193.3V338.66Z" fill="#CCCCCC"/>
<path d="M193.3 355.52H185.25V367.99H193.3V355.52Z" fill="#CCCCCC"/>
<path d="M205.25 355.52H195.35V367.99H205.25V355.52Z" fill="#CCCCCC"/>
<path d="M193.3 370.91H185.25V383.38H193.3V370.91Z" fill="#CCCCCC"/>
<path d="M205.25 338.66H195.35V352.59H205.25V338.66Z" fill="#CCCCCC"/>
<path d="M193.3 386.31H185.25V402.3H193.3V386.31Z" fill="#CCCCCC"/>
<path d="M205.25 386.31H195.35V402.3H205.25V386.31Z" fill="#CCCCCC"/>
<path d="M183.19 386.31H173.5V402.3H183.19V386.31Z" fill="#CCCCCC"/>
<path d="M183.19 370.91H173.5V383.38H183.19V370.91Z" fill="#CCCCCC"/>
<path d="M183.19 355.52H173.5V367.99H183.19V355.52Z" fill="#CCCCCC"/>
<path d="M183.19 338.66H173.5V352.59H183.19V338.66Z" fill="#CCCCCC"/>
<path d="M243.28 370.91H233.38V383.38H243.28V370.91Z" fill="#CCCCCC"/>
<path d="M231.33 338.66H223.28V352.59H231.33V338.66Z" fill="#CCCCCC"/>
<path d="M231.33 355.52H223.28V367.99H231.33V355.52Z" fill="#CCCCCC"/>
<path d="M243.28 355.52H233.38V367.99H243.28V355.52Z" fill="#CCCCCC"/>
<path d="M231.33 370.91H223.28V383.38H231.33V370.91Z" fill="#CCCCCC"/>
<path d="M243.28 338.66H233.38V352.59H243.28V338.66Z" fill="#CCCCCC"/>
<path d="M231.33 386.31H223.28V402.3H231.33V386.31Z" fill="#CCCCCC"/>
<path d="M243.28 386.31H233.38V402.3H243.28V386.31Z" fill="#CCCCCC"/>
<path d="M221.23 386.31H211.54V402.3H221.23V386.31Z" fill="#CCCCCC"/>
<path d="M221.23 370.91H211.54V383.38H221.23V370.91Z" fill="#CCCCCC"/>
<path d="M221.23 355.52H211.54V367.99H221.23V355.52Z" fill="#CCCCCC"/>
<path d="M221.23 338.66H211.54V352.59H221.23V338.66Z" fill="#CCCCCC"/>
<path d="M281.32 370.91H271.42V383.38H281.32V370.91Z" fill="#CCCCCC"/>
<path d="M269.36 338.66H261.31V352.59H269.36V338.66Z" fill="#CCCCCC"/>
<path d="M269.36 355.52H261.31V367.99H269.36V355.52Z" fill="#CCCCCC"/>
<path d="M281.32 355.52H271.42V367.99H281.32V355.52Z" fill="#CCCCCC"/>
<path d="M269.36 370.91H261.31V383.38H269.36V370.91Z" fill="#CCCCCC"/>
<path d="M281.32 338.66H271.42V352.59H281.32V338.66Z" fill="#CCCCCC"/>
<path d="M269.36 386.31H261.31V402.3H269.36V386.31Z" fill="#CCCCCC"/>
<path d="M281.32 386.31H271.42V402.3H281.32V386.31Z" fill="#CCCCCC"/>
<path d="M259.26 386.31H249.57V402.3H259.26V386.31Z" fill="#CCCCCC"/>
<path d="M259.26 370.91H249.57V383.38H259.26V370.91Z" fill="#CCCCCC"/>
<path d="M259.26 355.52H249.57V367.99H259.26V355.52Z" fill="#CCCCCC"/>
<path d="M259.26 338.66H249.57V352.59H259.26V338.66Z" fill="#CCCCCC"/>
<path d="M285.66 331.92H168.49V407.34H285.66V331.92Z" stroke="#263238" stroke-linecap="round" stroke-linejoin="round"/>
<path d="M488.41 370.91H478.51V383.38H488.41V370.91Z" fill="#CCCCCC"/>
<path d="M476.46 338.66H468.41V352.59H476.46V338.66Z" fill="#CCCCCC"/>
<path d="M476.46 355.52H468.41V367.99H476.46V355.52Z" fill="#CCCCCC"/>
<path d="M488.41 355.52H478.51V367.99H488.41V355.52Z" fill="#CCCCCC"/>
<path d="M476.46 370.91H468.41V383.38H476.46V370.91Z" fill="#CCCCCC"/>
<path d="M488.41 338.66H478.51V352.59H488.41V338.66Z" fill="#CCCCCC"/>
<path d="M476.46 386.31H468.41V402.3H476.46V386.31Z" fill="#CCCCCC"/>
<path d="M488.41 386.31H478.51V402.3H488.41V386.31Z" fill="#CCCCCC"/>
<path d="M466.36 386.31H456.67V402.3H466.36V386.31Z" fill="#CCCCCC"/>
<path d="M466.36 370.91H456.67V383.38H466.36V370.91Z" fill="#CCCCCC"/>
<path d="M466.36 355.52H456.67V367.99H466.36V355.52Z" fill="#CCCCCC"/>
<path d="M466.36 338.66H456.67V352.59H466.36V338.66Z" fill="#CCCCCC"/>
<path d="M526.44 370.91H516.54V383.38H526.44V370.91Z" fill="#CCCCCC"/>
<path d="M514.49 338.66H506.44V352.59H514.49V338.66Z" fill="#CCCCCC"/>
<path d="M514.49 355.52H506.44V367.99H514.49V355.52Z" fill="#CCCCCC"/>
<path d="M526.44 355.52H516.54V367.99H526.44V355.52Z" fill="#CCCCCC"/>
<path d="M514.49 370.91H506.44V383.38H514.49V370.91Z" fill="#CCCCCC"/>
<path d="M526.44 338.66H516.54V352.59H526.44V338.66Z" fill="#CCCCCC"/>
<path d="M514.49 386.31H506.44V402.3H514.49V386.31Z" fill="#CCCCCC"/>
<path d="M526.44 386.31H516.54V402.3H526.44V386.31Z" fill="#CCCCCC"/>
<path d="M504.39 386.31H494.7V402.3H504.39V386.31Z" fill="#CCCCCC"/>
<path d="M504.39 370.91H494.7V383.38H504.39V370.91Z" fill="#CCCCCC"/>
<path d="M504.39 355.52H494.7V367.99H504.39V355.52Z" fill="#CCCCCC"/>
<path d="M504.39 338.66H494.7V352.59H504.39V338.66Z" fill="#CCCCCC"/>
<path d="M564.48 370.91H554.58V383.38H564.48V370.91Z" fill="#CCCCCC"/>
<path d="M552.52 338.66H544.48V352.59H552.52V338.66Z" fill="#CCCCCC"/>
<path d="M552.52 355.52H544.48V367.99H552.52V355.52Z" fill="#CCCCCC"/>
<path d="M564.48 355.52H554.58V367.99H564.48V355.52Z" fill="#CCCCCC"/>
<path d="M552.52 370.91H544.48V383.38H552.52V370.91Z" fill="#CCCCCC"/>
<path d="M564.48 338.66H554.58V352.59H564.48V338.66Z" fill="#CCCCCC"/>
<path d="M552.52 386.31H544.48V402.3H552.52V386.31Z" fill="#CCCCCC"/>
<path d="M564.48 386.31H554.58V402.3H564.48V386.31Z" fill="#CCCCCC"/>
<path d="M542.43 386.31H532.74V402.3H542.43V386.31Z" fill="#CCCCCC"/>
<path d="M542.43 370.91H532.74V383.38H542.43V370.91Z" fill="#CCCCCC"/>
<path d="M542.43 355.52H532.74V367.99H542.43V355.52Z" fill="#CCCCCC"/>
<path d="M542.43 338.66H532.74V352.59H542.43V338.66Z" fill="#CCCCCC"/>
<path d="M568.82 331.92H451.65V407.34H568.82V331.92Z" stroke="#263238" stroke-linecap="round" stroke-linejoin="round"/>
<path d="M704.99 427.22H712.76" stroke="#263238" stroke-linecap="round" stroke-linejoin="round"/>
<path d="M41.04 427.22H694.29" stroke="#263238" stroke-linecap="round" stroke-linejoin="round"/>
<path d="M25.49 427.22H32.29" stroke="#263238" stroke-linecap="round" stroke-linejoin="round"/>
<path d="M629 346.32C629 346.32 627.33 384.92 627.54 406.84C627.75 428.76 630.46 465.34 630.46 465.34L628.59 468.89L628.79 474.11L640.9 477.66L641.73 473.28C641.73 473.28 643.82 471.61 643.82 470.56C643.82 469.51 643.61 463.88 643.61 462.21C643.61 460.54 650.5 382.91 650.5 382.91L653.42 382.7L666.78 468.06L664 469.73L667.76 477.03L674.02 474.94L680.7 475.36C681.456 473.601 682.084 471.789 682.58 469.94C682.58 469.1 680.28 468.06 680.28 466.6C680.28 465.14 678 377.41 678 377.41L674 346.32H629Z" fill="#263238" stroke="#263238" stroke-miterlimit="10"/>
<path d="M628.76 474.11L621.88 479.54C621.88 479.54 613.11 482.88 613.32 484.34C613.53 485.8 615.2 486.01 616.45 486.01H641.29L640.87 477.66L628.76 474.11Z" fill="white" stroke="#263238" stroke-miterlimit="10"/>
<path d="M667.79 477C667.79 477 670.5 485.77 671.34 486.81C672.18 487.85 679.9 491.19 681.98 490.57C684.06 489.95 686.37 487.02 685.53 484.1C684.69 481.18 680.73 475.33 680.73 475.33L674.05 474.91L667.79 477Z" fill="white" stroke="#263238" stroke-miterlimit="10"/>
<path d="M651.1 270.77L640.66 272.23C640.66 272.23 636.07 283.91 634.4 303.32C632.73 322.73 634.19 346.94 634.19 346.94H669.67C669.67 346.94 678.85 295.18 675.93 286.63C674.281 281.64 671.657 277.027 668.21 273.06L651.1 270.77Z" fill="white" stroke="#263238" stroke-miterlimit="10"/>
<path d="M642.33 278.7C642.33 278.7 637.53 294.56 637.53 308.33C637.53 322.1 639.62 372.19 639.62 372.19L620.42 368.19L625 335.46L622.91 300.4L606.84 317.31L594.84 310.49C594.84 310.49 621.45 274.31 622.29 274.11C623.13 273.91 646 269.5 646 269.5L642.33 278.7Z" fill="#D37815" stroke="#263238" stroke-miterlimit="10"/>
<path d="M621.76 288.46L622.92 300.4L618.75 287.46" stroke="#263238" stroke-miterlimit="10"/>
<path d="M621.25 283.29L621.5 285.86" stroke="#263238" stroke-miterlimit="10"/>
<path d="M666.53 270.06C666.53 270.06 690.15 276.06 690.99 276.22C691.83 276.38 717.46 323.36 717.46 323.36L705.98 328.36L684.71 302.14L680.31 340.04L685.95 369.04L661.11 370.92L659 341.31L663.38 277.24L666.53 270.06Z" fill="#D37815" stroke="#263238" stroke-miterlimit="10"/>
<path d="M681.48 292.47L684.71 302.15L679.6 295.96" stroke="#263238" stroke-miterlimit="10"/>
<path d="M644.73 232.69C644.73 232.69 640.85 229.92 641.22 228.62C641.59 227.32 650.09 222.34 651.38 221.79C652.67 221.24 668.19 224.56 670.78 226.22C673.37 227.88 676.13 237.68 676.5 242.29C676.87 246.9 665.42 256 665.42 256L658.03 256.18L658.95 250.64L651.38 249.16L652.67 242.88L645.84 235.3L647.68 231.05L644.73 232.69Z" fill="#263238" stroke="#263238" stroke-miterlimit="10"/>
<path d="M647.18 265.82L640.91 274C640.91 274 637.7 282.45 638.43 282C639.16 281.55 643.09 277.77 643.09 277.77L652.49 283.48L663.36 278.06L668.75 283.89C668.75 283.89 669.92 267.42 669.05 266.11C668.18 264.8 663.51 263.77 662.34 263.63C661.17 263.49 647.18 265.82 647.18 265.82Z" fill="white" stroke="#263238" stroke-miterlimit="10"/>
<path d="M646.94 228.62C646.94 228.62 638.82 237.31 639.74 239.15C640.258 240.138 640.632 241.196 640.85 242.29C640.85 242.29 634.38 248.02 635.31 249.13C636.366 250.138 637.545 251.008 638.82 251.72C638.82 251.72 637.71 259.48 638.82 261.32C639.93 263.16 646.02 262.06 646.02 262.06C646.02 262.06 650.27 284.97 652.49 283.49C654.71 282.01 665.23 268.34 665.05 266.68C664.87 265.02 665.42 256.52 665.42 255.97C665.42 255.42 661.72 255.78 661.72 255.78C661.72 255.78 666.53 248.78 664.72 246.73C662.91 244.68 659.18 245.25 657.88 246.17C657.112 246.727 656.437 247.402 655.88 248.17L653.88 247.61C654.514 246.226 655.069 244.807 655.54 243.36C655.73 242.44 651.29 238.01 651.48 237.27C651.653 236.932 651.875 236.622 652.14 236.35C653.61 234.64 657.02 231.35 657.02 231.35L646.94 228.62Z" fill="white" stroke="#263238" stroke-miterlimit="10"/>
<path d="M644.48 243.87C644.4 244.78 644.02 245.48 643.64 245.45C643.26 245.42 643.02 244.65 643.11 243.74C643.2 242.83 643.57 242.13 643.95 242.17C644.33 242.21 644.57 243 644.48 243.87Z" fill="#263238"/>
<path d="M642.36 239.46C642.36 239.46 644.7 237.76 646.29 239.99" stroke="#263238" stroke-miterlimit="10"/>
<path d="M640 253.37C640 253.37 644.46 253.68 646.69 251.03" stroke="#263238" stroke-miterlimit="10"/>
<path d="M646.02 262.06L652.77 261.12L647.14 267.59L646.02 262.06Z" fill="#263238" stroke="#263238" stroke-miterlimit="10"/>
<path d="M607.57 340.75L612.4 336.14L607.22 332.57L607.57 340.75Z" fill="white" stroke="#263238" stroke-miterlimit="10"/>
<path d="M609.87 323.59L613.68 327.99L610.79 338.1L605.89 334.11L609.87 323.59Z" fill="white" stroke="#263238" stroke-miterlimit="10"/>
<path d="M599.43 304C599.43 304 593.43 311.41 592.43 313.77C591.43 316.13 607.59 340.71 607.59 340.71L611.5 325.16L608.62 316.52L609.94 311.52L603.44 309.02" fill="#D37815"/>
<path d="M599.43 304C599.43 304 593.43 311.41 592.43 313.77C591.43 316.13 607.59 340.71 607.59 340.71L611.5 325.16L608.62 316.52L609.94 311.52L603.44 309.02" stroke="#263238" stroke-miterlimit="10"/>
<path d="M613.21 327.73L621.33 326.6C621.33 326.6 627.16 331.88 627.44 332.6C627.668 333.332 627.618 334.122 627.3 334.82C627.084 335.465 626.701 336.041 626.19 336.49C626.19 336.49 623.97 341.91 623.55 342.61C623.13 343.31 620.63 343.03 619.66 342.89C618.69 342.75 610.79 338.12 610.79 338.12L613.21 327.73Z" fill="white" stroke="#263238" stroke-miterlimit="10"/>
<path d="M692.88 328.55L690.79 331.19L694.14 339.86L698.58 337.31L692.88 328.55Z" fill="white" stroke="#263238" stroke-miterlimit="10"/>
<path d="M704.6 315.76L691.49 328.41L700.38 339.67C700.38 339.67 718.22 325.07 717.25 322.67C716.28 320.27 712.1 314.47 712.1 314.47" fill="#D37815"/>
<path d="M704.6 315.76L691.49 328.41L700.38 339.67C700.38 339.67 718.22 325.07 717.25 322.67C716.28 320.27 712.1 314.47 712.1 314.47" stroke="#263238" stroke-miterlimit="10"/>
<path d="M690.79 331.19L683.15 329.8C683.15 329.8 677.31 335.08 677.03 335.8C676.803 336.532 676.852 337.322 677.17 338.02C677.389 338.664 677.771 339.239 678.28 339.69C678.28 339.69 680.5 345.11 680.92 345.81C681.34 346.51 683.84 346.22 684.81 346.08C685.78 345.94 693.35 337.97 693.35 337.97L690.79 331.19Z" fill="white" stroke="#263238" stroke-miterlimit="10"/>
</svg>
