<svg width="692" height="500" viewBox="0 0 692 500" fill="none" xmlns="http://www.w3.org/2000/svg">
<path d="M610.196 427.12C641.115 374.56 649.05 308.24 640.211 247.42C638.535 235.834 636.068 224.399 632.829 213.21C611.11 138.69 555.39 79 489.447 47.59C426.53 17.59 346.996 2.77001 287.383 48.94C248.133 79.34 225.906 128.06 189.968 162.16C172.105 179.16 152.554 184.61 131.295 194.75C79.5061 219.46 36.15 267.11 32.5885 330C30.4579 363.995 37.9448 397.887 54.0498 427.15L610.196 427.12Z" fill="#D37815"/>
<path opacity="0.8" d="M610.196 427.12C641.115 374.56 649.05 308.24 640.211 247.42C638.535 235.834 636.068 224.399 632.829 213.21C611.11 138.69 555.39 79 489.447 47.59C426.53 17.59 346.996 2.77001 287.383 48.94C248.133 79.34 225.906 128.06 189.968 162.16C172.105 179.16 152.554 184.61 131.295 194.75C79.5061 219.46 36.15 267.11 32.5885 330C30.4579 363.995 37.9448 397.887 54.0498 427.15L610.196 427.12Z" fill="white"/>
<path d="M360.338 82.35C360.135 81.64 359.914 80.94 359.674 80.23C350.992 54.05 310.588 52.23 310.588 84.42C310.588 90.61 296.868 84.42 291.729 92.42C286.59 100.42 292.301 105.42 285.436 107.91C278.572 110.4 278.009 104.19 269.428 104.81C260.847 105.43 262.001 114.1 259.14 116.58C256.28 119.06 256.28 117.82 249.997 118.44C243.713 119.06 242.56 124.02 242.56 124.02H392.955C392.955 124.02 398.666 105.43 388.341 98.62C378.017 91.81 378.054 101.09 370.045 97.38C363.429 94.36 362.193 88.53 360.338 82.35Z" stroke="#D37815" stroke-linecap="round" stroke-linejoin="round"/>
<path d="M365.542 117.29C365.542 117.29 368.651 106.86 361.012 99.18C353.372 91.5 345.437 95.81 343.177 99.18C340.916 102.55 340.907 109 337.225 109.62C333.544 110.24 334.402 102.87 326.467 104.71C318.532 106.55 321.66 115.14 317.979 116.98C314.297 118.82 314.288 112.07 309.195 114.22C304.102 116.37 304.388 120.36 304.388 120.36" stroke="#D37815" stroke-linecap="round" stroke-linejoin="round"/>
<path d="M324.88 96.44C322.794 94.8325 320.349 93.8587 317.799 93.6196C315.249 93.3805 312.686 93.8847 310.376 95.08C302.183 99.18 305.965 107.72 302.183 109.77C298.4 111.82 296.508 109.42 291.775 111.77C287.042 114.12 287.365 117.57 287.365 117.57" stroke="#D37815" stroke-linecap="round" stroke-linejoin="round"/>
<path d="M251.943 140.48C251.851 140.18 251.75 139.87 251.648 139.56C247.874 128.17 230.298 127.39 230.298 141.38C230.298 144.08 224.328 141.38 222.086 144.88C219.844 148.38 222.335 150.55 219.318 151.62C216.301 152.69 216.079 150.01 212.352 150.28C208.624 150.55 209.113 154.28 207.877 155.4C206.641 156.52 206.631 155.94 203.891 156.21C201.151 156.48 200.662 158.63 200.662 158.63H266.069C266.069 158.63 268.561 150.55 264.077 147.63C259.592 144.71 259.602 148.71 256.123 147.09C253.281 145.7 252.746 143.17 251.943 140.48Z" stroke="#D37815" stroke-linecap="round" stroke-linejoin="round"/>
<path d="M254.204 155.68C254.567 154.298 254.574 152.834 254.226 151.448C253.878 150.061 253.188 148.803 252.23 147.81C248.908 144.47 245.457 146.34 244.47 147.81C243.483 149.28 243.483 152.08 241.887 152.35C240.29 152.62 240.65 149.41 237.199 150.21C233.749 151.01 235.105 154.75 233.509 155.55C231.912 156.35 231.903 153.41 229.689 154.35C227.474 155.29 227.594 157.02 227.594 157.02" stroke="#D37815" stroke-linecap="round" stroke-linejoin="round"/>
<path d="M236.507 146.61C235.602 145.91 234.539 145.486 233.431 145.382C232.322 145.278 231.209 145.498 230.206 146.02C226.635 147.8 228.277 151.52 226.635 152.41C224.992 153.3 224.171 152.26 222.114 153.3C220.056 154.34 220.195 155.83 220.195 155.83" stroke="#D37815" stroke-linecap="round" stroke-linejoin="round"/>
<path d="M597.999 140.48C597.906 140.18 597.814 139.87 597.713 139.56C593.93 128.17 576.353 127.39 576.353 141.38C576.353 144.08 570.383 141.38 568.15 144.88C565.918 148.38 568.4 150.55 565.382 151.62C562.365 152.69 562.153 150.01 558.426 150.28C554.698 150.55 555.187 154.28 553.941 155.4C552.696 156.52 552.705 155.94 549.965 156.21C547.224 156.48 546.735 158.63 546.735 158.63H612.143C612.143 158.63 614.625 150.55 610.15 147.63C605.675 144.71 605.675 148.71 602.197 147.09C599.346 145.7 598.811 143.17 597.999 140.48Z" stroke="#D37815" stroke-linecap="round" stroke-linejoin="round"/>
<path d="M600.259 155.68C600.622 154.298 600.631 152.836 600.284 151.449C599.938 150.063 599.25 148.805 598.294 147.81C594.963 144.47 591.522 146.34 590.534 147.81C589.547 149.28 589.547 152.08 587.942 152.35C586.336 152.62 586.715 149.41 583.264 150.21C579.813 151.01 581.169 154.75 579.573 155.55C577.977 156.35 577.968 153.41 575.753 154.35C573.539 155.29 573.659 157.02 573.659 157.02" stroke="#D37815" stroke-linecap="round" stroke-linejoin="round"/>
<path d="M582.572 146.61C581.665 145.909 580.601 145.484 579.491 145.38C578.381 145.277 577.265 145.498 576.261 146.02C572.699 147.8 574.342 151.52 572.699 152.41C571.057 153.3 570.226 152.26 568.169 153.3C566.111 154.34 566.25 155.83 566.25 155.83" stroke="#D37815" stroke-linecap="round" stroke-linejoin="round"/>
<path d="M101.659 392.7C102.989 393.08 104.363 393.245 105.738 393.19C105.738 393.19 105.119 391.14 105.064 391.02C104.427 389.58 102.425 387.2 100.792 387.44C100.521 387.487 100.263 387.595 100.033 387.758C99.8036 387.921 99.6084 388.134 99.4603 388.384C99.3122 388.635 99.2146 388.916 99.1738 389.21C99.133 389.504 99.1499 389.804 99.2235 390.09C99.4279 390.692 99.752 391.238 100.173 391.689C100.594 392.14 101.101 392.485 101.659 392.7V392.7Z" fill="#263238"/>
<path d="M130.096 425.9C130.218 425.633 130.286 425.342 130.297 425.044C130.308 424.747 130.261 424.45 130.159 424.174C130.058 423.898 129.903 423.648 129.706 423.44C129.509 423.233 129.274 423.073 129.017 422.97C127.457 422.41 125.068 424.33 124.2 425.61C124.2 425.67 123.868 426.21 123.601 426.71H129.552C129.775 426.476 129.959 426.202 130.096 425.9V425.9Z" fill="#263238"/>
<path d="M121.257 417.57C122.325 418.346 123.499 418.936 124.735 419.32C124.615 419.94 124.495 420.55 124.348 421.15C124.246 421.55 124.172 421.94 124.043 422.34C123.914 422.74 123.813 423.12 123.693 423.51C123.444 424.25 123.194 425.01 122.936 425.72C122.816 426.07 122.696 426.39 122.576 426.72H123.545C123.619 426.51 123.693 426.3 123.767 426.07C124.016 425.33 124.246 424.59 124.495 423.79L124.828 422.61C124.938 422.22 125.021 421.79 125.114 421.37C125.326 420.37 125.501 419.42 125.658 418.37C126.876 418.916 128.164 419.253 129.478 419.37C130.071 419.366 130.656 419.223 131.193 418.95C131.729 418.677 132.205 418.282 132.587 417.79C132.744 417.547 132.853 417.27 132.905 416.978C132.957 416.687 132.952 416.386 132.89 416.097C132.828 415.807 132.711 415.535 132.546 415.298C132.381 415.061 132.172 414.864 131.932 414.72C130.465 413.91 127.835 415.41 126.793 416.54C126.728 416.61 126.064 417.54 125.713 418.01C125.796 417.41 125.889 416.8 125.953 416.19C126.156 414.42 126.313 412.62 126.479 410.83C126.479 410.28 126.581 409.73 126.636 409.18C127.898 409.727 129.23 410.065 130.585 410.18C131.178 410.176 131.763 410.033 132.3 409.76C132.837 409.487 133.312 409.092 133.694 408.6C133.852 408.357 133.96 408.08 134.012 407.788C134.064 407.497 134.059 407.196 133.997 406.907C133.936 406.617 133.818 406.345 133.653 406.108C133.488 405.871 133.279 405.674 133.039 405.53C131.572 404.72 128.943 406.22 127.9 407.35C127.826 407.43 126.867 408.73 126.645 409.07C126.756 407.86 126.885 406.66 127.06 405.48C127.274 403.89 127.582 402.317 127.983 400.77C129.255 401.318 130.595 401.655 131.96 401.77C132.552 401.767 133.136 401.625 133.671 401.352C134.207 401.079 134.681 400.682 135.06 400.19C135.218 399.948 135.328 399.672 135.381 399.381C135.434 399.09 135.429 398.79 135.367 398.5C135.305 398.211 135.187 397.94 135.021 397.703C134.856 397.467 134.645 397.272 134.405 397.13C132.938 396.31 130.317 397.82 129.275 398.95C129.192 399.03 128.168 400.43 127.992 400.69C128.018 400.601 128.04 400.511 128.057 400.42C128.507 398.88 129.085 397.387 129.782 395.96C130.161 395.16 130.557 394.42 130.963 393.72C132.145 394.399 133.414 394.881 134.728 395.15C135.317 395.22 135.914 395.149 136.475 394.941C137.036 394.734 137.548 394.395 137.976 393.95C138.156 393.728 138.292 393.466 138.373 393.183C138.454 392.9 138.48 392.602 138.448 392.307C138.415 392.013 138.326 391.729 138.186 391.475C138.046 391.22 137.858 391.001 137.634 390.83C136.259 389.83 133.501 391.03 132.347 392.02C132.283 392.08 131.701 392.7 131.286 393.16L131.849 392.22C132.532 391.09 133.233 390.11 133.851 389.22C134.211 388.73 134.543 388.3 134.857 387.89C136.188 387.911 137.514 387.708 138.788 387.29C139.34 387.056 139.838 386.694 140.248 386.229C140.657 385.765 140.968 385.209 141.159 384.6C141.225 384.313 141.234 384.013 141.186 383.722C141.139 383.43 141.035 383.153 140.882 382.908C140.729 382.662 140.53 382.455 140.297 382.298C140.065 382.142 139.806 382.04 139.535 382C137.893 381.81 135.946 384.24 135.346 385.7C135.291 385.83 134.691 387.9 134.728 387.9C134.423 388.28 134.091 388.69 133.741 389.15C133.104 390 132.384 390.97 131.674 392.09C130.89 393.28 130.173 394.519 129.524 395.8C128.781 397.227 128.163 398.727 127.679 400.28C127.679 400.28 127.679 400.28 127.679 400.33C127.679 399.81 127.679 398.33 127.679 398.23C127.494 396.65 126.267 393.72 124.643 393.39C124.372 393.345 124.095 393.362 123.831 393.441C123.567 393.519 123.321 393.657 123.109 393.846C122.897 394.035 122.725 394.27 122.603 394.536C122.481 394.802 122.412 395.093 122.401 395.39C122.424 396.031 122.575 396.66 122.844 397.231C123.113 397.803 123.494 398.304 123.96 398.7C125.101 399.502 126.345 400.119 127.651 400.53C127.189 402.119 126.825 403.739 126.562 405.38C126.405 406.38 126.276 407.3 126.156 408.28C126.156 407.82 126.156 407.42 126.156 407.36C125.962 405.78 124.745 402.85 123.121 402.52C122.849 402.475 122.572 402.492 122.307 402.571C122.042 402.649 121.796 402.787 121.583 402.976C121.371 403.164 121.198 403.399 121.075 403.666C120.952 403.932 120.882 404.223 120.869 404.52C120.894 405.162 121.047 405.79 121.318 406.362C121.589 406.933 121.971 407.434 122.438 407.83C123.541 408.619 124.748 409.222 126.018 409.62C126.018 409.99 125.935 410.36 125.889 410.74C125.695 412.53 125.501 414.32 125.27 416.07C125.187 416.69 125.086 417.29 124.984 417.89C124.984 417.49 124.984 417.15 124.984 417.1C124.8 415.52 123.573 412.59 121.958 412.26C121.687 412.215 121.41 412.232 121.145 412.311C120.88 412.389 120.633 412.527 120.421 412.716C120.209 412.904 120.035 413.139 119.912 413.406C119.789 413.672 119.719 413.963 119.707 414.26C119.729 414.9 119.88 415.528 120.147 416.099C120.415 416.67 120.793 417.172 121.257 417.57V417.57Z" fill="#263238"/>
<path d="M102.665 401.79C104.027 401.78 105.38 401.547 106.679 401.1C107.102 402.702 107.623 404.272 108.238 405.8C108.598 406.69 108.976 407.57 109.373 408.46C109.142 408.08 108.93 407.75 108.893 407.71C107.97 406.5 105.415 404.78 103.892 405.48C103.645 405.605 103.424 405.785 103.245 406.007C103.065 406.23 102.931 406.491 102.85 406.774C102.769 407.057 102.744 407.354 102.775 407.648C102.807 407.942 102.895 408.225 103.034 408.48C103.381 409 103.828 409.432 104.344 409.746C104.86 410.06 105.433 410.249 106.024 410.3C107.347 410.298 108.663 410.079 109.926 409.65C110.074 409.99 110.231 410.33 110.388 410.65C111.135 412.26 111.883 413.87 112.575 415.47C112.824 416.04 113.045 416.6 113.267 417.16C113.064 416.83 112.879 416.56 112.851 416.52C111.929 415.31 109.373 413.59 107.85 414.29C107.602 414.414 107.38 414.593 107.2 414.815C107.02 415.038 106.885 415.299 106.804 415.582C106.723 415.865 106.698 416.164 106.73 416.458C106.763 416.752 106.852 417.036 106.992 417.29C107.338 417.813 107.784 418.247 108.3 418.563C108.817 418.88 109.391 419.07 109.982 419.12C111.268 419.125 112.547 418.916 113.774 418.5C113.986 419.09 114.208 419.67 114.383 420.25C114.503 420.65 114.641 421.02 114.734 421.43L115.038 422.62C115.213 423.38 115.389 424.17 115.536 424.91C115.647 425.43 115.739 425.91 115.832 426.43C115.592 425.87 115.103 424.77 115.057 424.69C114.272 423.34 112.03 421.23 110.443 421.69C110.179 421.771 109.934 421.911 109.723 422.102C109.512 422.292 109.341 422.528 109.22 422.795C109.099 423.062 109.031 423.354 109.021 423.651C109.011 423.948 109.058 424.244 109.161 424.52C109.405 425.049 109.749 425.517 110.17 425.894C110.591 426.271 111.08 426.549 111.606 426.71H116.837C116.837 426.59 116.782 426.47 116.763 426.34C117.535 426.007 118.287 425.623 119.015 425.19C119.596 425.787 120.247 426.299 120.952 426.71H122.484C122.567 426.09 122.659 425.33 122.659 425.25C122.646 423.844 122.297 422.466 121.644 421.25C121.663 421.094 121.663 420.936 121.644 420.78C121.611 420.485 121.522 420.201 121.38 419.947C121.239 419.692 121.05 419.473 120.826 419.303C120.601 419.133 120.346 419.016 120.077 418.961C119.807 418.905 119.53 418.912 119.264 418.98C117.668 419.44 116.662 422.47 116.579 424.07C116.579 424.16 116.634 425.19 116.68 425.83C116.597 425.46 116.524 425.09 116.441 424.71C116.274 423.94 116.081 423.19 115.887 422.37L115.555 421.19C115.453 420.79 115.296 420.39 115.176 419.98C114.854 419.05 114.494 418.12 114.115 417.19C115.409 416.904 116.655 416.401 117.806 415.7C118.299 415.344 118.714 414.876 119.023 414.329C119.333 413.781 119.528 413.168 119.596 412.53C119.602 412.233 119.55 411.938 119.445 411.664C119.339 411.389 119.182 411.142 118.983 410.938C118.784 410.733 118.548 410.576 118.289 410.477C118.031 410.377 117.756 410.338 117.483 410.36C115.85 410.56 114.429 413.36 114.134 414.95C114.134 415.05 114.014 416.19 113.968 416.82C113.737 416.27 113.506 415.71 113.257 415.16C112.519 413.56 111.735 411.97 110.951 410.37L110.249 408.91C111.583 408.608 112.867 408.093 114.06 407.38C114.552 407.023 114.966 406.554 115.275 406.007C115.584 405.46 115.78 404.847 115.85 404.21C115.856 403.913 115.805 403.619 115.699 403.345C115.593 403.071 115.436 402.825 115.237 402.621C115.037 402.417 114.801 402.261 114.543 402.163C114.284 402.065 114.01 402.026 113.737 402.05C112.104 402.24 110.683 405.05 110.379 406.63C110.379 406.75 110.222 408.4 110.203 408.82C109.687 407.74 109.188 406.66 108.727 405.58C108.1 404.12 107.564 402.617 107.122 401.08C108.46 400.774 109.75 400.259 110.951 399.55C111.443 399.191 111.858 398.721 112.167 398.172C112.476 397.623 112.671 397.009 112.741 396.37C112.747 396.073 112.695 395.779 112.59 395.505C112.484 395.231 112.326 394.985 112.127 394.781C111.928 394.577 111.692 394.421 111.433 394.323C111.175 394.225 110.901 394.186 110.628 394.21C108.995 394.4 107.574 397.21 107.278 398.79C107.278 398.91 107.103 400.69 107.094 401.01C107.094 400.93 107.039 400.84 107.011 400.75C106.583 399.198 106.281 397.609 106.107 396C106.014 395.12 105.968 394.26 105.95 393.43C107.28 393.294 108.583 392.94 109.816 392.38C110.342 392.084 110.802 391.668 111.165 391.16C111.529 390.653 111.786 390.066 111.919 389.44C111.956 389.148 111.935 388.852 111.86 388.569C111.786 388.286 111.657 388.023 111.484 387.797C111.311 387.57 111.096 387.385 110.853 387.253C110.61 387.121 110.345 387.045 110.074 387.03C108.423 387.03 106.725 389.67 106.273 391.19C106.273 391.27 106.079 392.14 105.968 392.78C105.968 392.4 105.968 392.01 105.968 391.65C105.968 390.3 106.051 389.07 106.125 387.97C106.18 387.35 106.236 386.79 106.291 386.26C107.411 385.481 108.413 384.52 109.262 383.41C109.602 382.884 109.832 382.284 109.937 381.652C110.042 381.021 110.02 380.371 109.871 379.75C109.779 379.471 109.634 379.215 109.445 379C109.256 378.786 109.028 378.616 108.775 378.503C108.522 378.39 108.25 378.336 107.976 378.344C107.702 378.352 107.433 378.422 107.186 378.55C105.719 379.37 105.341 382.55 105.581 384.14C105.581 384.28 106.153 386.36 106.18 386.34C106.116 386.85 106.051 387.39 105.996 387.98C105.894 389.08 105.793 390.31 105.756 391.67C105.714 393.131 105.748 394.593 105.858 396.05C105.974 397.681 106.224 399.297 106.605 400.88V400.94C106.347 400.5 105.581 399.29 105.516 399.2C104.593 398 102.038 396.28 100.515 396.98C100.267 397.104 100.045 397.283 99.865 397.505C99.6846 397.728 99.5496 397.989 99.4686 398.272C99.3877 398.555 99.3627 398.854 99.3951 399.148C99.4276 399.442 99.5169 399.726 99.6572 399.98C100.007 400.501 100.457 400.933 100.976 401.246C101.496 401.558 102.072 401.744 102.665 401.79V401.79Z" fill="#263238"/>
<path d="M130.926 393.39C130.926 393.39 131.452 391.31 131.471 391.17C131.674 389.59 131.203 386.41 129.718 385.63C129.468 385.509 129.198 385.446 128.924 385.446C128.65 385.446 128.38 385.508 128.13 385.629C127.88 385.75 127.657 385.926 127.474 386.147C127.291 386.368 127.153 386.628 127.07 386.91C126.936 387.536 126.929 388.185 127.05 388.814C127.171 389.442 127.417 390.035 127.771 390.55C128.688 391.659 129.752 392.616 130.926 393.39V393.39Z" fill="#263238"/>
<path d="M72.8907 405.8C73.7095 406.031 74.5548 406.132 75.4004 406.1C75.4004 406.1 75.0221 404.84 74.9851 404.76C74.5976 403.88 73.3613 402.41 72.3555 402.56C72.1922 402.593 72.0371 402.663 71.9002 402.765C71.7633 402.868 71.6476 403 71.5607 403.153C71.4738 403.307 71.4175 403.478 71.3955 403.657C71.3735 403.836 71.3862 404.017 71.4329 404.19C71.5565 404.555 71.7505 404.888 72.0018 405.165C72.2532 405.443 72.5562 405.659 72.8907 405.8V405.8Z" fill="#263238"/>
<path d="M90.3382 426.21C90.4135 426.047 90.4563 425.868 90.4637 425.686C90.4711 425.503 90.443 425.321 90.3812 425.152C90.3194 424.982 90.2253 424.828 90.105 424.7C89.9847 424.572 89.841 424.474 89.6831 424.41C88.7605 424.06 87.2473 425.25 86.7121 426.04C86.7121 426.04 86.5091 426.4 86.3523 426.71H90.043C90.1713 426.566 90.2717 426.396 90.3382 426.21V426.21Z" fill="#263238"/>
<path d="M84.8853 421.09C85.5438 421.566 86.2657 421.931 87.0259 422.17C86.9521 422.55 86.8783 422.93 86.786 423.29C86.6938 423.65 86.6753 423.78 86.6015 424.02C86.5277 424.26 86.4539 424.51 86.3893 424.74C86.2324 425.2 86.0756 425.67 85.9187 426.1L85.6973 426.71H86.297L86.4354 426.31C86.583 425.86 86.7214 425.4 86.8783 424.91C86.9429 424.67 87.0075 424.43 87.0813 424.18C87.1551 423.93 87.2012 423.68 87.2566 423.42C87.395 422.83 87.4965 422.22 87.5887 421.6C88.3401 421.927 89.1338 422.126 89.9416 422.19C90.3081 422.185 90.6691 422.093 90.9992 421.92C91.3292 421.748 91.6202 421.498 91.8515 421.19C91.9489 421.04 92.0159 420.87 92.0483 420.69C92.0806 420.51 92.0775 420.325 92.0392 420.146C92.0009 419.968 91.9282 419.8 91.8258 419.654C91.7235 419.509 91.5939 419.388 91.4455 419.3C90.5228 418.8 88.9358 419.73 88.29 420.42L87.6257 421.32C87.681 420.95 87.7364 420.58 87.7733 420.21C87.9025 419.12 87.9947 418.01 88.0962 416.91C88.0962 416.57 88.1608 416.23 88.1885 415.91C88.968 416.243 89.789 416.449 90.6243 416.52C90.9908 416.515 91.3519 416.423 91.682 416.25C92.012 416.078 92.303 415.828 92.5342 415.52C92.6315 415.371 92.6985 415.201 92.7307 415.022C92.763 414.843 92.7599 414.659 92.7215 414.481C92.6831 414.303 92.6104 414.136 92.5082 413.992C92.4059 413.847 92.2764 413.727 92.1283 413.64C91.2056 413.14 89.6186 414.06 88.9727 414.76C88.9727 414.81 88.3361 415.6 88.1977 415.81C88.2715 415.07 88.3453 414.33 88.4561 413.61C88.5891 412.63 88.7833 411.661 89.0373 410.71C89.8203 411.044 90.6439 411.253 91.4824 411.33C91.8489 411.325 92.21 411.233 92.54 411.06C92.8701 410.888 93.1611 410.638 93.3923 410.33C93.4896 410.181 93.5565 410.011 93.5888 409.832C93.6211 409.653 93.6179 409.469 93.5796 409.291C93.5412 409.113 93.4685 408.946 93.3662 408.802C93.264 408.657 93.1345 408.537 92.9864 408.45C92.0637 407.94 90.4767 408.87 89.8308 409.56C89.7847 409.62 89.1481 410.47 89.0466 410.64C89.0498 410.583 89.0498 410.527 89.0466 410.47C89.3278 409.522 89.6828 408.602 90.1076 407.72C90.3383 407.24 90.5874 406.78 90.8365 406.35C91.5631 406.768 92.3439 407.065 93.1524 407.23C93.5143 407.271 93.8801 407.226 94.2243 407.099C94.5685 406.971 94.8829 406.763 95.1454 406.49C95.2563 406.353 95.3393 406.192 95.389 406.018C95.4388 405.843 95.4541 405.66 95.4341 405.479C95.4141 405.298 95.3592 405.123 95.2729 404.967C95.1866 404.81 95.0708 404.675 94.9332 404.57C94.0936 403.96 92.3958 404.69 91.6854 405.31C91.6854 405.31 91.2886 405.72 91.0395 406.01C91.1502 405.81 91.261 405.61 91.3809 405.43C91.8053 404.73 92.2298 404.13 92.6081 403.6L93.2262 402.78C94.0447 402.79 94.8599 402.666 95.6436 402.41C95.9839 402.267 96.2913 402.045 96.5446 401.76C96.7979 401.475 96.9911 401.134 97.1107 400.76C97.1511 400.583 97.1565 400.398 97.1266 400.218C97.0968 400.039 97.0323 399.868 96.9374 399.717C96.8425 399.566 96.7194 399.438 96.5759 399.342C96.4325 399.246 96.272 399.184 96.105 399.16C95.0993 399.04 93.8998 400.53 93.5307 401.43C93.5307 401.51 93.1248 402.78 93.1524 402.78C92.9587 403.01 92.7557 403.27 92.5435 403.55C92.1467 404.08 91.7038 404.67 91.2702 405.36C90.7876 406.09 90.347 406.851 89.9508 407.64C89.4974 408.518 89.1176 409.438 88.8159 410.39C88.8159 410.39 88.8159 410.39 88.8159 410.39C88.8159 410.07 88.8159 409.17 88.8159 409.1C88.7052 408.1 87.9486 406.32 86.9706 406.1C86.8046 406.073 86.6352 406.084 86.4734 406.133C86.3116 406.181 86.1608 406.265 86.0306 406.38C85.9004 406.494 85.7937 406.637 85.7172 406.799C85.6408 406.961 85.5963 407.138 85.5866 407.32C85.6014 407.705 85.6913 408.082 85.8503 408.427C86.0093 408.772 86.2339 409.076 86.5092 409.32C87.2082 409.818 87.9738 410.195 88.779 410.44C88.4977 411.423 88.2758 412.425 88.1147 413.44C88.0132 414.02 87.9394 414.62 87.8656 415.22C87.8656 414.94 87.8656 414.69 87.8656 414.66C87.7456 413.66 86.9982 411.88 86.0202 411.66C85.8538 411.63 85.6834 411.639 85.5204 411.686C85.3573 411.733 85.2053 411.816 85.0744 411.932C84.9436 412.047 84.8368 412.191 84.7613 412.355C84.6857 412.518 84.6431 412.697 84.6362 412.88C84.651 413.265 84.7409 413.642 84.8999 413.987C85.059 414.332 85.2835 414.636 85.5589 414.88C86.239 415.367 86.9822 415.741 87.7641 415.99C87.7641 416.22 87.7087 416.45 87.6902 416.68C87.5611 417.78 87.4503 418.88 87.3027 419.95C87.2474 420.33 87.192 420.7 87.1274 421.08C87.1274 420.83 87.1274 420.62 87.1274 420.59C87.0075 419.59 86.2509 417.81 85.2821 417.59C85.1161 417.563 84.9468 417.574 84.7849 417.623C84.6231 417.671 84.4723 417.755 84.3421 417.87C84.2119 417.984 84.1052 418.127 84.0287 418.289C83.9523 418.451 83.9078 418.628 83.8981 418.81C83.8816 419.248 83.9628 419.684 84.1346 420.081C84.3065 420.478 84.564 420.824 84.8853 421.09V421.09Z" fill="#263238"/>
<path d="M73.4629 411.38C74.2989 411.375 75.1294 411.234 75.9264 410.96C76.1713 411.945 76.4796 412.911 76.849 413.85C77.0613 414.4 77.3011 414.94 77.541 415.49L77.2458 415.03C76.6553 414.28 75.1052 413.23 74.1733 413.66C74.0208 413.736 73.8846 413.845 73.7736 413.981C73.6625 414.118 73.5791 414.278 73.5287 414.451C73.4782 414.625 73.4619 414.808 73.4808 414.988C73.4996 415.169 73.5532 415.343 73.6382 415.5C73.8516 415.821 74.1274 416.088 74.4462 416.282C74.765 416.475 75.1191 416.591 75.4835 416.62C76.2969 416.624 77.106 416.493 77.8824 416.23L78.1592 416.85C78.6206 417.85 79.0819 418.85 79.5155 419.85C79.6632 420.2 79.8016 420.55 79.94 420.85L79.6816 420.45C79.0911 419.71 77.541 418.66 76.6091 419.09C76.4566 419.166 76.3204 419.275 76.2094 419.411C76.0984 419.548 76.0149 419.708 75.9645 419.881C75.9141 420.055 75.8977 420.238 75.9166 420.418C75.9355 420.599 75.9891 420.773 76.074 420.93C76.2874 421.251 76.5632 421.518 76.882 421.712C77.2008 421.905 77.5549 422.021 77.9193 422.05C78.7112 422.06 79.4994 421.932 80.2537 421.67C80.3921 422.03 80.5213 422.39 80.632 422.75C80.7427 423.11 80.7888 423.22 80.8442 423.47L81.0379 424.21C81.1394 424.67 81.2502 425.21 81.3424 425.62C81.4347 426.03 81.4624 426.24 81.5177 426.55C81.3793 426.21 81.0748 425.55 81.0472 425.48C80.5674 424.65 79.2018 423.35 78.1961 423.62C78.0347 423.671 77.885 423.758 77.7567 423.876C77.6284 423.993 77.5243 424.139 77.4512 424.303C77.3781 424.467 77.3377 424.646 77.3325 424.828C77.3273 425.01 77.3575 425.191 77.4211 425.36C77.5675 425.687 77.7765 425.977 78.0342 426.21C78.292 426.442 78.5925 426.613 78.9158 426.71H82.1359C82.1316 426.637 82.1316 426.563 82.1359 426.49C82.2559 426.43 82.9202 426.14 83.5199 425.78C83.8753 426.148 84.2758 426.461 84.7102 426.71H85.6328C85.6882 426.33 85.7435 425.86 85.7435 425.81C85.7327 424.948 85.5166 424.104 85.1161 423.36C85.1255 423.264 85.1255 423.166 85.1161 423.07C85.0948 422.889 85.0386 422.715 84.9512 422.559C84.8638 422.404 84.7471 422.269 84.6088 422.166C84.4704 422.062 84.3135 421.991 84.1481 421.957C83.9828 421.923 83.8128 421.928 83.6491 421.97C82.6618 422.25 82.0437 424.11 81.9975 425.09C81.9975 425.15 81.9975 425.78 82.0621 426.18C82.0067 425.95 81.9606 425.72 81.9145 425.48L81.5731 424.05C81.4993 423.81 81.4347 423.57 81.3701 423.32C81.3055 423.07 81.2133 422.83 81.1302 422.58C80.9365 422.01 80.715 421.43 80.4751 420.86C81.2692 420.692 82.0327 420.384 82.7357 419.95C83.0382 419.73 83.2936 419.442 83.4846 419.105C83.6756 418.769 83.7978 418.392 83.8429 418C83.8474 417.817 83.8162 417.635 83.7514 417.466C83.6866 417.297 83.5896 417.145 83.4669 417.02C83.3441 416.894 83.1982 416.798 83.0388 416.738C82.8794 416.678 82.7101 416.654 82.5419 416.67C81.5362 416.78 80.6966 418.52 80.4751 419.48C80.4751 419.54 80.4105 420.25 80.3829 420.64C80.2352 420.3 80.0968 419.95 79.94 419.64C79.4879 418.64 79.0173 417.64 78.5283 416.7C78.3807 416.4 78.233 416.1 78.0946 415.8C78.9146 415.615 79.7044 415.298 80.4382 414.86C80.7412 414.641 80.9964 414.353 81.186 414.017C81.3757 413.68 81.4952 413.302 81.5362 412.91C81.5442 412.728 81.5169 412.547 81.4561 412.377C81.3953 412.208 81.3023 412.054 81.1831 411.925C81.064 411.797 80.9213 411.698 80.7644 411.633C80.6075 411.568 80.4398 411.54 80.2721 411.55C79.2664 411.67 78.4268 413.41 78.2146 414.37C78.2146 414.44 78.1131 415.46 78.1039 415.71C77.7809 415.05 77.4765 414.39 77.1812 413.71C76.7914 412.83 76.4525 411.925 76.1663 411C76.9941 410.802 77.788 410.465 78.5191 410C78.8246 409.783 79.0823 409.496 79.2737 409.159C79.465 408.822 79.5854 408.443 79.6263 408.05C79.6308 407.867 79.5996 407.685 79.5348 407.516C79.47 407.347 79.3731 407.195 79.2503 407.07C79.1275 406.944 78.9816 406.848 78.8222 406.788C78.6628 406.728 78.4935 406.704 78.3253 406.72C77.3196 406.84 76.48 408.58 76.2585 409.54C76.2585 409.61 76.157 410.71 76.157 410.91L76.1017 410.74C75.8539 409.784 75.681 408.807 75.585 407.82C75.5296 407.27 75.5112 406.75 75.4927 406.24C76.311 406.149 77.1128 405.93 77.8732 405.59C78.1969 405.408 78.4801 405.152 78.7032 404.839C78.9263 404.527 79.0839 404.165 79.1649 403.78C79.1884 403.599 79.1763 403.415 79.1295 403.239C79.0827 403.063 79.0023 402.9 78.8934 402.761C78.7846 402.621 78.6498 402.508 78.4979 402.428C78.3459 402.349 78.1802 402.305 78.0116 402.3C76.9967 402.3 75.9541 403.92 75.668 404.86L75.4835 405.86C75.4835 405.63 75.4835 405.39 75.4835 405.17C75.4835 404.34 75.5389 403.58 75.585 402.91C75.585 402.53 75.6496 402.18 75.6865 401.86C76.3774 401.374 76.999 400.781 77.5318 400.1C77.7414 399.777 77.883 399.408 77.9468 399.019C78.0106 398.631 77.9949 398.231 77.9009 397.85C77.8452 397.677 77.7563 397.52 77.6401 397.387C77.5239 397.255 77.3831 397.151 77.2269 397.082C77.0707 397.013 76.9028 396.98 76.7343 396.987C76.5658 396.994 76.4004 397.039 76.2493 397.12C75.3266 397.62 75.1144 399.59 75.2621 400.55C75.2621 400.64 75.6219 401.92 75.6311 401.91C75.6311 402.22 75.5573 402.56 75.5204 402.91C75.4558 403.58 75.3912 404.35 75.3728 405.18C75.3449 406.077 75.3665 406.976 75.4374 407.87C75.5044 408.883 75.6588 409.888 75.8987 410.87L75.2251 409.8C74.6346 409.06 73.0846 408.01 72.1527 408.43C71.9998 408.507 71.8635 408.617 71.7524 408.754C71.6413 408.892 71.5579 409.052 71.5075 409.227C71.4571 409.401 71.4409 409.585 71.4598 409.766C71.4788 409.947 71.5325 410.122 71.6175 410.28C71.8328 410.598 72.1094 410.861 72.4281 411.051C72.7468 411.241 73.1 411.353 73.4629 411.38V411.38Z" fill="#263238"/>
<path d="M90.8365 406.22C90.8365 406.22 91.1595 404.94 91.1779 404.86C91.2979 403.86 91.0118 401.93 90.0984 401.45C89.9448 401.377 89.7787 401.339 89.6108 401.339C89.4429 401.339 89.2768 401.376 89.1232 401.45C88.9695 401.523 88.8317 401.63 88.7184 401.765C88.6051 401.899 88.5189 402.058 88.4653 402.23C88.3837 402.615 88.3802 403.015 88.455 403.402C88.5299 403.788 88.6814 404.153 88.8989 404.47C89.4629 405.152 90.1157 405.742 90.8365 406.22Z" fill="#263238"/>
<path d="M555.335 405.8C556.153 406.031 556.999 406.132 557.844 406.1C557.844 406.1 557.457 404.84 557.429 404.76C557.032 403.88 555.796 402.41 554.8 402.56C554.637 402.596 554.484 402.668 554.349 402.771C554.213 402.873 554.099 403.005 554.012 403.158C553.926 403.311 553.869 403.481 553.846 403.659C553.822 403.836 553.833 404.017 553.877 404.19C554.002 404.554 554.196 404.886 554.447 405.164C554.698 405.441 555.001 405.658 555.335 405.8Z" fill="#263238"/>
<path d="M572.828 426.21C572.902 426.046 572.943 425.867 572.949 425.684C572.955 425.502 572.926 425.32 572.864 425.151C572.801 424.981 572.707 424.828 572.586 424.7C572.466 424.573 572.322 424.474 572.164 424.41C571.241 424.06 569.737 425.25 569.202 426.04C569.202 426.04 568.999 426.4 568.833 426.71H572.524C572.653 426.565 572.756 426.396 572.828 426.21V426.21Z" fill="#263238"/>
<path d="M567.385 421.09C568.042 421.568 568.764 421.933 569.525 422.17C569.442 422.55 569.378 422.93 569.285 423.29C569.193 423.65 569.175 423.78 569.101 424.02C569.027 424.26 568.953 424.51 568.879 424.74C568.732 425.2 568.575 425.67 568.418 426.1L568.196 426.71H568.787L568.925 426.31C569.082 425.86 569.221 425.4 569.377 424.91C569.442 424.67 569.507 424.43 569.581 424.18C569.654 423.93 569.691 423.68 569.756 423.42C569.885 422.83 569.996 422.22 570.088 421.6C570.839 421.929 571.633 422.128 572.441 422.19C572.807 422.185 573.168 422.092 573.498 421.919C573.828 421.747 574.119 421.498 574.351 421.19C574.447 421.04 574.513 420.869 574.544 420.69C574.576 420.51 574.572 420.326 574.534 420.148C574.496 419.97 574.424 419.802 574.322 419.656C574.221 419.51 574.092 419.389 573.945 419.3C573.022 418.8 571.426 419.73 570.789 420.42C570.789 420.42 570.337 421.02 570.125 421.32C570.171 420.95 570.226 420.58 570.273 420.21C570.402 419.12 570.494 418.01 570.595 416.91C570.595 416.57 570.66 416.23 570.688 415.91C571.467 416.244 572.288 416.45 573.124 416.52C573.49 416.515 573.851 416.422 574.181 416.249C574.511 416.077 574.802 415.828 575.033 415.52C575.129 415.37 575.195 415.201 575.227 415.022C575.258 414.843 575.255 414.659 575.216 414.482C575.178 414.305 575.106 414.138 575.004 413.993C574.903 413.848 574.775 413.728 574.627 413.64C573.705 413.14 572.109 414.06 571.472 414.76C571.472 414.81 570.835 415.6 570.697 415.81C570.771 415.07 570.845 414.33 570.946 413.61C571.087 412.631 571.284 411.662 571.537 410.71C572.319 411.047 573.143 411.256 573.982 411.33C574.348 411.325 574.709 411.232 575.039 411.059C575.369 410.887 575.66 410.638 575.892 410.33C575.987 410.18 576.053 410.011 576.085 409.832C576.116 409.653 576.113 409.469 576.074 409.292C576.036 409.115 575.964 408.948 575.862 408.803C575.761 408.658 575.633 408.538 575.486 408.45C574.563 407.94 572.967 408.87 572.33 409.56C572.275 409.62 571.647 410.47 571.546 410.64C571.541 410.583 571.541 410.527 571.546 410.47C571.823 409.521 572.178 408.601 572.607 407.72C572.838 407.24 573.087 406.78 573.336 406.35C574.06 406.767 574.837 407.064 575.642 407.23C576.006 407.273 576.373 407.229 576.719 407.101C577.065 406.973 577.381 406.764 577.645 406.49C577.756 406.353 577.839 406.192 577.888 406.018C577.938 405.843 577.953 405.66 577.933 405.479C577.913 405.298 577.858 405.123 577.772 404.967C577.686 404.81 577.57 404.675 577.432 404.57C576.593 403.96 574.895 404.69 574.185 405.31C574.185 405.31 573.788 405.72 573.53 406.01L573.871 405.43C574.295 404.73 574.729 404.13 575.107 403.6L575.725 402.78C576.544 402.79 577.359 402.666 578.143 402.41C578.481 402.265 578.786 402.042 579.038 401.757C579.29 401.473 579.482 401.133 579.601 400.76C579.643 400.583 579.649 400.399 579.621 400.219C579.592 400.039 579.529 399.868 579.434 399.717C579.34 399.566 579.218 399.438 579.074 399.342C578.931 399.246 578.771 399.184 578.604 399.16C577.589 399.04 576.399 400.53 576.03 401.43C576.03 401.51 575.624 402.78 575.642 402.78C575.449 403.01 575.246 403.27 575.033 403.55C574.637 404.08 574.194 404.67 573.751 405.36C573.275 406.095 572.834 406.856 572.432 407.64C571.985 408.52 571.609 409.44 571.306 410.39C571.306 410.07 571.306 409.17 571.306 409.1C571.195 408.1 570.439 406.32 569.461 406.1C569.294 406.072 569.124 406.082 568.962 406.129C568.8 406.177 568.648 406.261 568.518 406.376C568.387 406.491 568.28 406.634 568.204 406.797C568.128 406.96 568.085 407.138 568.077 407.32C568.093 407.705 568.183 408.082 568.342 408.426C568.501 408.771 568.725 409.075 568.999 409.32C569.702 409.816 570.471 410.194 571.278 410.44C570.994 411.423 570.769 412.425 570.605 413.44C570.512 414.02 570.429 414.62 570.356 415.22C570.356 414.94 570.356 414.69 570.356 414.66C570.236 413.66 569.488 411.88 568.51 411.66C568.344 411.63 568.173 411.639 568.01 411.686C567.847 411.733 567.695 411.816 567.564 411.932C567.434 412.047 567.327 412.191 567.251 412.355C567.176 412.518 567.133 412.697 567.126 412.88C567.137 413.266 567.225 413.645 567.384 413.99C567.544 414.336 567.77 414.639 568.049 414.88C568.727 415.37 569.471 415.745 570.254 415.99L570.171 416.68C570.051 417.78 569.931 418.88 569.793 419.95C569.737 420.33 569.673 420.7 569.617 421.08C569.617 420.83 569.617 420.62 569.617 420.59C569.507 419.59 568.75 417.81 567.772 417.59C567.606 417.562 567.436 417.572 567.274 417.619C567.111 417.667 566.96 417.751 566.829 417.866C566.699 417.981 566.592 418.124 566.516 418.287C566.44 418.45 566.396 418.628 566.388 418.81C566.373 419.249 566.455 419.685 566.629 420.082C566.802 420.479 567.061 420.825 567.385 421.09V421.09Z" fill="#263238"/>
<path d="M555.944 411.38C556.783 411.375 557.616 411.234 558.416 410.96C558.665 411.944 558.973 412.91 559.339 413.85C559.561 414.4 559.791 414.94 560.04 415.49L559.745 415.03C559.145 414.28 557.605 413.23 556.673 413.66C556.52 413.736 556.384 413.845 556.273 413.981C556.162 414.118 556.078 414.278 556.028 414.451C555.978 414.625 555.961 414.808 555.98 414.988C555.999 415.169 556.053 415.343 556.137 415.5C556.35 415.822 556.626 416.09 556.945 416.284C557.264 416.477 557.618 416.592 557.983 416.62C558.796 416.625 559.605 416.494 560.382 416.23C560.483 416.43 560.575 416.64 560.668 416.85C561.129 417.85 561.59 418.85 562.015 419.85C562.172 420.2 562.301 420.55 562.439 420.85L562.181 420.45C561.59 419.71 560.05 418.66 559.108 419.09C558.957 419.167 558.821 419.277 558.711 419.414C558.601 419.55 558.519 419.71 558.469 419.884C558.42 420.057 558.404 420.24 558.424 420.42C558.443 420.6 558.497 420.774 558.583 420.93C558.795 421.252 559.071 421.52 559.39 421.714C559.709 421.907 560.063 422.022 560.428 422.05C561.22 422.06 562.008 421.932 562.762 421.67C562.891 422.03 563.03 422.39 563.141 422.75C563.251 423.11 563.297 423.22 563.353 423.47L563.547 424.21C563.648 424.67 563.759 425.21 563.851 425.62C563.943 426.03 563.971 426.24 564.026 426.55C563.879 426.21 563.583 425.55 563.547 425.48C563.067 424.65 561.701 423.35 560.705 423.62C560.542 423.67 560.392 423.756 560.262 423.873C560.133 423.991 560.028 424.136 559.954 424.3C559.88 424.464 559.839 424.644 559.833 424.826C559.827 425.009 559.857 425.191 559.92 425.36C560.07 425.687 560.281 425.976 560.54 426.208C560.799 426.441 561.1 426.612 561.424 426.71H564.672C564.661 426.636 564.646 426.562 564.626 426.49C564.746 426.43 565.42 426.14 566.019 425.78C566.375 426.148 566.775 426.461 567.209 426.71H568.132C568.132 426.33 568.243 425.86 568.243 425.81C568.228 424.949 568.012 424.106 567.615 423.36C567.625 423.264 567.625 423.166 567.615 423.07C567.596 422.888 567.54 422.714 567.453 422.557C567.366 422.4 567.249 422.266 567.111 422.162C566.972 422.058 566.814 421.987 566.649 421.954C566.483 421.921 566.312 421.926 566.148 421.97C565.17 422.25 564.552 424.11 564.506 425.09C564.506 425.15 564.506 425.78 564.561 426.18C564.515 425.95 564.469 425.72 564.414 425.48C564.312 425.02 564.202 424.55 564.072 424.05C564.008 423.81 563.943 423.57 563.869 423.32C563.796 423.07 563.713 422.83 563.639 422.58C563.445 422.01 563.224 421.43 562.984 420.86C563.777 420.69 564.541 420.383 565.244 419.95C565.547 419.731 565.802 419.443 565.991 419.106C566.181 418.769 566.301 418.392 566.342 418C566.348 417.818 566.318 417.636 566.254 417.467C566.191 417.298 566.094 417.146 565.972 417.02C565.85 416.894 565.705 416.798 565.546 416.738C565.387 416.677 565.218 416.654 565.05 416.67C564.045 416.78 563.205 418.52 562.984 419.48C562.984 419.54 562.91 420.25 562.891 420.64C562.744 420.3 562.605 419.95 562.449 419.64C561.996 418.64 561.526 417.64 561.028 416.7C560.889 416.4 560.742 416.1 560.594 415.8C561.415 415.618 562.205 415.301 562.938 414.86C563.242 414.643 563.498 414.355 563.688 414.018C563.878 413.681 563.996 413.303 564.036 412.91C564.041 412.728 564.011 412.546 563.948 412.377C563.884 412.208 563.788 412.056 563.666 411.93C563.544 411.804 563.398 411.708 563.239 411.648C563.08 411.587 562.912 411.564 562.744 411.58C561.738 411.7 560.898 413.44 560.677 414.4C560.677 414.47 560.585 415.49 560.576 415.74C560.253 415.08 559.939 414.42 559.653 413.74C559.266 412.842 558.937 411.916 558.666 410.97C559.479 410.778 560.26 410.451 560.981 410C561.286 409.783 561.542 409.495 561.732 409.158C561.922 408.821 562.04 408.443 562.079 408.05C562.085 407.868 562.055 407.686 561.992 407.517C561.928 407.348 561.832 407.196 561.71 407.07C561.588 406.944 561.442 406.848 561.283 406.788C561.124 406.727 560.955 406.704 560.788 406.72C559.782 406.84 558.942 408.58 558.721 409.54C558.721 409.61 558.619 410.71 558.61 410.91C558.61 410.85 558.61 410.8 558.564 410.74C558.312 409.785 558.139 408.808 558.047 407.82C557.992 407.27 557.964 406.75 557.955 406.24C558.773 406.148 559.575 405.929 560.336 405.59C560.658 405.406 560.941 405.15 561.163 404.838C561.386 404.525 561.545 404.165 561.627 403.78C561.649 403.599 561.636 403.415 561.589 403.24C561.541 403.065 561.461 402.903 561.352 402.764C561.244 402.625 561.11 402.511 560.958 402.431C560.807 402.352 560.642 402.307 560.474 402.3C559.459 402.3 558.407 403.92 558.13 404.86L557.946 405.86C557.946 405.63 557.946 405.39 557.946 405.17C557.946 404.34 557.946 403.58 558.047 402.91C558.047 402.53 558.112 402.18 558.14 401.86C558.834 401.379 559.457 400.786 559.985 400.1C560.196 399.778 560.339 399.409 560.405 399.021C560.47 398.632 560.456 398.232 560.363 397.85C560.306 397.678 560.217 397.522 560.1 397.39C559.984 397.259 559.843 397.155 559.688 397.086C559.532 397.017 559.364 396.985 559.196 396.991C559.028 396.996 558.863 397.041 558.712 397.12C557.789 397.62 557.577 399.59 557.724 400.55C557.724 400.64 558.075 401.92 558.094 401.91C558.094 402.22 558.01 402.56 557.974 402.91C557.918 403.58 557.854 404.35 557.835 405.18C557.809 406.077 557.827 406.975 557.891 407.87C557.967 408.882 558.121 409.886 558.352 410.87C558.195 410.6 557.724 409.87 557.688 409.8C557.088 409.06 555.547 408.01 554.615 408.43C554.462 408.507 554.326 408.617 554.215 408.754C554.104 408.892 554.02 409.052 553.97 409.227C553.92 409.401 553.903 409.585 553.922 409.766C553.941 409.947 553.995 410.122 554.08 410.28C554.296 410.601 554.576 410.867 554.898 411.057C555.22 411.247 555.577 411.357 555.944 411.38Z" fill="#263238"/>
<path d="M573.327 406.22C573.327 406.22 573.65 404.94 573.659 404.86C573.788 403.86 573.502 401.93 572.589 401.45C572.435 401.377 572.269 401.339 572.101 401.339C571.933 401.339 571.767 401.376 571.613 401.45C571.46 401.523 571.322 401.63 571.209 401.765C571.095 401.899 571.009 402.058 570.955 402.23C570.874 402.615 570.87 403.015 570.945 403.402C571.02 403.788 571.172 404.153 571.389 404.47C571.953 405.152 572.606 405.742 573.327 406.22V406.22Z" fill="#263238"/>
<path d="M64.0145 161.26C64.0145 161.26 105.285 165.68 126.193 193.41C126.193 193.41 148.291 161.29 188.012 161.95C197.711 149.269 203.888 133.863 205.822 117.526C207.756 101.188 205.368 84.5914 198.936 69.6678C192.504 54.7442 182.293 42.1079 169.491 33.2303C156.69 24.3527 141.825 19.5992 126.627 19.5232C111.43 19.4472 96.525 24.0519 83.6486 32.801C70.7721 41.5502 60.4537 54.0838 53.895 68.9425C47.3363 83.8012 44.8071 100.373 46.6019 116.73C48.3967 133.086 54.4417 148.553 64.0329 161.33L64.0145 161.26Z" fill="#D37815"/>
<path opacity="0.4" d="M64.0145 161.26C64.0145 161.26 105.285 165.68 126.193 193.41C126.193 193.41 148.291 161.29 188.012 161.95C197.711 149.269 203.888 133.863 205.822 117.526C207.756 101.188 205.368 84.5914 198.936 69.6678C192.504 54.7442 182.293 42.1079 169.491 33.2303C156.69 24.3527 141.825 19.5992 126.627 19.5232C111.43 19.4472 96.525 24.0519 83.6486 32.801C70.7721 41.5502 60.4537 54.0838 53.895 68.9425C47.3363 83.8012 44.8071 100.373 46.6019 116.73C48.3967 133.086 54.4417 148.553 64.0329 161.33L64.0145 161.26Z" fill="white"/>
<path d="M165.932 111C165.932 111 141.26 117.34 127.642 138.84L126.867 107.57L126.922 107.98C126.922 107.98 140.854 80.81 165.932 72.5C165.932 72.5 140.098 79.14 126.728 101.86L124.828 59.7599L124.246 120.1C111.126 98.4899 87.2197 92.0999 87.2197 92.0999C108.34 99.3499 121.257 120.97 124.209 126.35L124.016 157.45C110.849 136.14 87.2197 129.85 87.2197 129.85C107.832 136.92 120.639 157.69 123.979 163.68L123.434 427.22H130.401L128.712 181.83C133.205 174.46 146.067 156.05 165.932 149.47C165.932 149.47 142.34 155.54 128.564 175.91L127.799 144.91C131.185 139 144.471 118.08 165.932 111Z" fill="#263238"/>
<path d="M165.932 111C165.932 111 141.26 117.34 127.642 138.84L126.867 107.57L126.922 107.98C126.922 107.98 140.854 80.81 165.932 72.5C165.932 72.5 140.098 79.14 126.728 101.86L124.828 59.7599L124.246 120.1C111.126 98.4899 87.2197 92.0999 87.2197 92.0999C108.34 99.3499 121.257 120.97 124.209 126.35L124.016 157.45C110.849 136.14 87.2197 129.85 87.2197 129.85C107.832 136.92 120.639 157.69 123.979 163.68L123.434 427.22H130.401L128.712 181.83C133.205 174.46 146.067 156.05 165.932 149.47C165.932 149.47 142.34 155.54 128.564 175.91L127.799 144.91C131.185 139 144.471 118.08 165.932 111Z" fill="#263238"/>
<path d="M32.4132 304.65C32.4132 304.65 66.0537 308.26 83.1599 330.87C83.1599 330.87 101.18 304.68 133.538 305.22C141.443 294.881 146.476 282.322 148.05 269.003C149.625 255.685 147.677 242.156 142.433 229.99C137.189 217.825 128.865 207.525 118.429 200.288C107.993 193.052 95.8756 189.176 83.4867 189.114C71.0979 189.051 58.9475 192.804 48.4501 199.935C37.9527 207.066 29.5402 217.282 24.1918 229.394C18.8434 241.506 16.7793 255.015 18.2397 268.348C19.7001 281.682 24.6249 294.292 32.4409 304.71L32.4132 304.65Z" fill="#D37815"/>
<path opacity="0.4" d="M32.4132 304.65C32.4132 304.65 66.0537 308.26 83.1599 330.87C83.1599 330.87 101.18 304.68 133.538 305.22C141.443 294.881 146.476 282.322 148.05 269.003C149.625 255.685 147.677 242.156 142.433 229.99C137.189 217.825 128.865 207.525 118.429 200.288C107.993 193.052 95.8756 189.176 83.4867 189.114C71.0979 189.051 58.9475 192.804 48.4501 199.935C37.9527 207.066 29.5402 217.282 24.1918 229.394C18.8434 241.506 16.7793 255.015 18.2397 268.348C19.7001 281.682 24.6249 294.292 32.4409 304.71L32.4132 304.65Z" fill="white"/>
<path d="M51.3279 279C68.1389 284.77 78.5742 301.7 81.2961 306.59L81.0562 427.08H85.891L85.1621 321.43C88.8527 315.43 99.3158 300.43 115.509 295.05C115.509 295.05 96.271 299.99 85.0606 316.6L84.4332 291.3C87.2012 286.49 98.0333 269.45 115.527 263.65C115.527 263.65 95.4129 268.82 84.3132 286.35L83.6766 260.85V261.19C83.6766 261.19 95.0346 239 115.509 232.26C115.509 232.26 94.4533 237.68 83.5382 256.2L81.9973 221.88L81.5175 271.07C70.8238 253.45 51.3279 248.26 51.3279 248.26C68.5448 254.17 79.0817 271.8 81.4899 276.19L81.333 301.55C70.5932 284.18 51.3279 279 51.3279 279Z" fill="#263238"/>
<path d="M51.3279 279C68.1389 284.77 78.5742 301.7 81.2961 306.59L81.0562 427.08H85.891L85.1621 321.43C88.8527 315.43 99.3158 300.43 115.509 295.05C115.509 295.05 96.271 299.99 85.0606 316.6L84.4332 291.3C87.2012 286.49 98.0333 269.45 115.527 263.65C115.527 263.65 95.4129 268.82 84.3132 286.35L83.6766 260.85V261.19C83.6766 261.19 95.0346 239 115.509 232.26C115.509 232.26 94.4533 237.68 83.5382 256.2L81.9973 221.88L81.5175 271.07C70.8238 253.45 51.3279 248.26 51.3279 248.26C68.5448 254.17 79.0817 271.8 81.4899 276.19L81.333 301.55C70.5932 284.18 51.3279 279 51.3279 279Z" fill="#263238"/>
<path d="M517.025 304.65C517.025 304.65 550.675 308.26 567.726 330.87C567.726 330.87 585.746 304.68 618.104 305.22C626.014 294.881 631.051 282.319 632.629 268.998C634.207 255.676 632.26 242.143 627.016 229.973C621.772 217.804 613.447 207.5 603.009 200.261C592.571 193.021 580.45 189.145 568.058 189.082C555.665 189.02 543.512 192.774 533.012 199.907C522.512 207.041 514.098 217.261 508.75 229.377C503.402 241.493 501.34 255.006 502.803 268.343C504.266 281.68 509.195 294.292 517.016 304.71L517.025 304.65Z" fill="#D37815"/>
<path opacity="0.4" d="M517.025 304.65C517.025 304.65 550.675 308.26 567.726 330.87C567.726 330.87 585.746 304.68 618.104 305.22C626.014 294.881 631.051 282.319 632.629 268.998C634.207 255.676 632.26 242.143 627.016 229.973C621.772 217.804 613.447 207.5 603.009 200.261C592.571 193.021 580.45 189.145 568.058 189.082C555.665 189.02 543.512 192.774 533.012 199.907C522.512 207.041 514.098 217.261 508.75 229.377C503.402 241.493 501.34 255.006 502.803 268.343C504.266 281.68 509.195 294.292 517.016 304.71L517.025 304.65Z" fill="white"/>
<path d="M535.949 279C552.751 284.77 563.196 301.7 565.918 306.59L565.669 427.08H570.503L569.784 321.39C573.474 315.39 583.928 300.39 600.121 295.01C600.121 295.01 580.892 299.95 569.673 316.56L569.036 291.26C571.804 286.45 582.636 269.41 600.13 263.61C600.13 263.61 580.016 268.78 568.916 286.31L568.28 260.81L568.326 261.15C568.326 261.15 579.684 238.99 600.13 232.22C600.13 232.22 579.084 237.64 568.169 256.16L566.628 221.84L566.148 271.03C555.445 253.41 535.959 248.22 535.959 248.22C553.176 254.13 563.712 271.76 566.111 276.15L565.955 301.51C555.215 284.18 535.949 279 535.949 279Z" fill="#263238"/>
<path d="M535.949 279C552.751 284.77 563.196 301.7 565.918 306.59L565.669 427.08H570.503L569.784 321.39C573.474 315.39 583.928 300.39 600.121 295.01C600.121 295.01 580.892 299.95 569.673 316.56L569.036 291.26C571.804 286.45 582.636 269.41 600.13 263.61C600.13 263.61 580.016 268.78 568.916 286.31L568.28 260.81L568.326 261.15C568.326 261.15 579.684 238.99 600.13 232.22C600.13 232.22 579.084 237.64 568.169 256.16L566.628 221.84L566.148 271.03C555.445 253.41 535.959 248.22 535.959 248.22C553.176 254.13 563.712 271.76 566.111 276.15L565.955 301.51C555.215 284.18 535.949 279 535.949 279Z" fill="#263238"/>
<path d="M467.552 143.23L434.299 179.27" stroke="#263238" stroke-linecap="round" stroke-linejoin="round"/>
<path d="M429.695 184.26L433.533 174.35L434.65 178.89L438.839 180.1L429.695 184.26Z" fill="#263238"/>
<path d="M484.972 150.4L469.019 180.11" stroke="#263238" stroke-linecap="round" stroke-linejoin="round"/>
<path d="M465.744 186.21L467.118 175.57L469.268 179.66H473.605L465.744 186.21Z" fill="#263238"/>
<path d="M474.758 110.02L371.53 179.87" stroke="#263238" stroke-linecap="round" stroke-linejoin="round"/>
<path d="M366.003 183.61L371.807 174.89L371.945 179.59L375.775 181.79L366.003 183.61Z" fill="#263238"/>
<path d="M517.531 123.63C533.776 119.968 544.205 102.727 540.826 85.1214C537.447 67.5159 521.54 56.2123 505.296 59.8743C489.052 63.5363 478.622 80.777 482.001 98.3826C485.38 115.988 501.287 127.292 517.531 123.63Z" fill="#D37815" stroke="#263238" stroke-miterlimit="10"/>
<path d="M511.416 35.13V50.76" stroke="#D37815" stroke-miterlimit="10"/>
<path d="M511.416 132.81V148.44" stroke="#D37815" stroke-miterlimit="10"/>
<path d="M563.685 91.79H549.263" stroke="#D37815" stroke-miterlimit="10"/>
<path d="M473.559 91.79H459.137" stroke="#D37815" stroke-miterlimit="10"/>
<path d="M548.378 51.72L538.182 62.78" stroke="#D37815" stroke-miterlimit="10"/>
<path d="M484.649 120.8L474.445 131.85" stroke="#D37815" stroke-miterlimit="10"/>
<path d="M474.445 51.72L484.649 62.78" stroke="#D37815" stroke-miterlimit="10"/>
<path d="M538.182 120.8L548.378 131.85" stroke="#D37815" stroke-miterlimit="10"/>
<path d="M532.286 319.61H148.309V426.68H532.286V319.61Z" fill="white"/>
<path opacity="0.31" d="M532.286 319.61H148.309V338.67H532.286V319.61Z" fill="black"/>
<path d="M532.286 319.61H148.309V426.68H532.286V319.61Z" stroke="#263238" stroke-linecap="round" stroke-linejoin="round"/>
<path d="M536.226 319.61H144.379V324.51H536.226V319.61Z" fill="white" stroke="#263238" stroke-linecap="round" stroke-linejoin="round"/>
<path d="M537.259 319.69H140.181L173.267 196.73H504.163L537.259 319.69Z" fill="#263238" stroke="#263238" stroke-linecap="round" stroke-linejoin="round"/>
<path d="M219.954 300.26H160.249L182.974 208.91L235.372 209.15L219.954 300.26Z" fill="#D37815" stroke="white" stroke-miterlimit="10"/>
<path d="M195.873 209.09L175.021 300.1" stroke="white" stroke-miterlimit="10"/>
<path d="M209.418 209.15L190.448 300.1" stroke="white" stroke-miterlimit="10"/>
<path d="M222.944 209.21L205.847 300.1" stroke="white" stroke-miterlimit="10"/>
<path d="M179.911 221.58L233.628 221.79" stroke="white" stroke-miterlimit="10"/>
<path d="M176.303 236.09L231.183 236.26" stroke="white" stroke-miterlimit="10"/>
<path d="M172.529 251.24L228.637 251.37" stroke="white" stroke-miterlimit="10"/>
<path d="M168.599 267.07L225.98 267.17" stroke="white" stroke-miterlimit="10"/>
<path d="M164.474 283.64L223.193 283.69" stroke="white" stroke-miterlimit="10"/>
<path d="M289.699 300.26H230.408L244.553 209.19L296.628 209.42L289.699 300.26Z" fill="#D37815" stroke="white" stroke-miterlimit="10"/>
<path d="M257.387 209.37L245.06 300.1" stroke="white" stroke-miterlimit="10"/>
<path d="M270.849 209.43L260.386 300.1" stroke="white" stroke-miterlimit="10"/>
<path d="M284.292 209.49L275.684 300.1" stroke="white" stroke-miterlimit="10"/>
<path d="M242.67 221.82L296.065 222.03" stroke="white" stroke-miterlimit="10"/>
<path d="M240.428 236.29L294.967 236.46" stroke="white" stroke-miterlimit="10"/>
<path d="M238.085 251.4L293.823 251.53" stroke="white" stroke-miterlimit="10"/>
<path d="M235.64 267.18L292.633 267.28" stroke="white" stroke-miterlimit="10"/>
<path d="M233.075 283.7L291.387 283.75" stroke="white" stroke-miterlimit="10"/>
<path d="M456.508 300.26H516.204L493.479 208.91L441.09 209.15L456.508 300.26Z" fill="#D37815" stroke="white" stroke-miterlimit="10"/>
<path d="M480.58 209.09L501.432 300.1" stroke="white" stroke-miterlimit="10"/>
<path d="M467.035 209.15L486.005 300.1" stroke="white" stroke-miterlimit="10"/>
<path d="M453.518 209.21L470.606 300.1" stroke="white" stroke-miterlimit="10"/>
<path d="M496.551 221.58L442.824 221.79" stroke="white" stroke-miterlimit="10"/>
<path d="M500.159 236.09L445.27 236.26" stroke="white" stroke-miterlimit="10"/>
<path d="M503.924 251.24L447.816 251.37" stroke="white" stroke-miterlimit="10"/>
<path d="M507.863 267.07L450.483 267.17" stroke="white" stroke-miterlimit="10"/>
<path d="M511.978 283.64L453.269 283.69" stroke="white" stroke-miterlimit="10"/>
<path d="M386.754 300.26H446.045L431.9 209.19L379.825 209.42L386.754 300.26Z" fill="#D37815" stroke="white" stroke-miterlimit="10"/>
<path d="M419.075 209.37L431.393 300.1" stroke="white" stroke-miterlimit="10"/>
<path d="M405.614 209.43L416.077 300.1" stroke="white" stroke-miterlimit="10"/>
<path d="M392.17 209.49L400.779 300.1" stroke="white" stroke-miterlimit="10"/>
<path d="M433.782 221.82L380.397 222.03" stroke="white" stroke-miterlimit="10"/>
<path d="M436.024 236.29L381.486 236.46" stroke="white" stroke-miterlimit="10"/>
<path d="M438.368 251.4L382.63 251.53" stroke="white" stroke-miterlimit="10"/>
<path d="M440.822 267.18L383.82 267.28" stroke="white" stroke-miterlimit="10"/>
<path d="M443.378 283.7L385.066 283.75" stroke="white" stroke-miterlimit="10"/>
<path d="M318.145 338.66H310.726V352.59H318.145V338.66Z" fill="#CCCCCC"/>
<path d="M318.145 355.52H310.726V367.99H318.145V355.52Z" fill="#CCCCCC"/>
<path d="M318.145 370.91H310.726V383.38H318.145V370.91Z" fill="#CCCCCC"/>
<path d="M318.145 386.31H310.726V402.3H318.145V386.31Z" fill="#CCCCCC"/>
<path d="M308.835 386.31H299.894V402.3H308.835V386.31Z" fill="#CCCCCC"/>
<path d="M308.835 370.91H299.894V383.38H308.835V370.91Z" fill="#CCCCCC"/>
<path d="M308.835 355.52H299.894V367.99H308.835V355.52Z" fill="#CCCCCC"/>
<path d="M308.835 338.66H299.894V352.59H308.835V338.66Z" fill="#CCCCCC"/>
<path d="M379.76 338.66H372.333V352.59H379.76V338.66Z" fill="#CCCCCC"/>
<path d="M379.76 355.52H372.333V367.99H379.76V355.52Z" fill="#CCCCCC"/>
<path d="M379.76 370.91H372.333V383.38H379.76V370.91Z" fill="#CCCCCC"/>
<path d="M379.76 386.31H372.333V402.3H379.76V386.31Z" fill="#CCCCCC"/>
<path d="M370.441 386.31H361.501V402.3H370.441V386.31Z" fill="#CCCCCC"/>
<path d="M370.441 370.91H361.501V383.38H370.441V370.91Z" fill="#CCCCCC"/>
<path d="M370.441 355.52H361.501V367.99H370.441V355.52Z" fill="#CCCCCC"/>
<path d="M370.441 338.66H361.501V352.59H370.441V338.66Z" fill="#CCCCCC"/>
<path d="M359.249 337.98H320.728V417.96H359.249V337.98Z" fill="#D37815" stroke="#263238" stroke-linecap="round" stroke-linejoin="round"/>
<path d="M354.276 342.7H326.319V381.76H354.276V342.7Z" stroke="#263238" stroke-width="0.5" stroke-linecap="round" stroke-linejoin="round"/>
<path d="M354.276 396.57H326.319V412.73H354.276V396.57Z" stroke="#263238" stroke-width="0.5" stroke-linecap="round" stroke-linejoin="round"/>
<path d="M354.276 386.47H326.319V392.53H354.276V386.47Z" stroke="#263238" stroke-width="0.5" stroke-linecap="round" stroke-linejoin="round"/>
<path d="M325.203 376.93H321.706V389.73H325.203V376.93Z" fill="#263238"/>
<path d="M340.612 332.86C344.189 332.86 347.089 329.717 347.089 325.84C347.089 321.963 344.189 318.82 340.612 318.82C337.034 318.82 334.135 321.963 334.135 325.84C334.135 329.717 337.034 332.86 340.612 332.86Z" stroke="#263238" stroke-linecap="round" stroke-linejoin="round"/>
<path d="M343.14 338.67H338.065L337.078 331.89H344.127L343.14 338.67Z" fill="white" stroke="#263238" stroke-width="2" stroke-linecap="round" stroke-linejoin="round"/>
<path d="M342.641 326.51H338.563L336.432 331.88H344.764L342.641 326.51Z" fill="white" stroke="#263238" stroke-linecap="round" stroke-linejoin="round"/>
<path d="M341.617 323.84H339.587V326.45H341.617V323.84Z" fill="#263238" stroke="#263238" stroke-linecap="round" stroke-linejoin="round"/>
<path d="M305.338 327.81L315.257 324.42C330.213 319.327 346.228 319.163 361.27 323.95L373.366 327.81H393.102V302L338.203 231.55L284.338 302V327.77L305.338 327.81Z" fill="white" stroke="#263238" stroke-linecap="round" stroke-linejoin="round"/>
<path d="M393.102 417.26H284.338V426.69H393.102V417.26Z" fill="#263238" stroke="#263238" stroke-linecap="round" stroke-linejoin="round"/>
<path d="M306.371 418.22V425.6" stroke="#B0B0B0" stroke-linecap="round" stroke-linejoin="round"/>
<path d="M312 418.22V425.6" stroke="#B0B0B0" stroke-linecap="round" stroke-linejoin="round"/>
<path d="M317.619 418.22V425.6" stroke="#B0B0B0" stroke-linecap="round" stroke-linejoin="round"/>
<path d="M323.247 418.22V425.6" stroke="#B0B0B0" stroke-linecap="round" stroke-linejoin="round"/>
<path d="M328.875 418.22V425.6" stroke="#B0B0B0" stroke-linecap="round" stroke-linejoin="round"/>
<path d="M334.503 418.22V425.6" stroke="#B0B0B0" stroke-linecap="round" stroke-linejoin="round"/>
<path d="M340.123 418.22V425.6" stroke="#B0B0B0" stroke-linecap="round" stroke-linejoin="round"/>
<path d="M345.751 418.22V425.6" stroke="#B0B0B0" stroke-linecap="round" stroke-linejoin="round"/>
<path d="M351.379 418.22V425.6" stroke="#B0B0B0" stroke-linecap="round" stroke-linejoin="round"/>
<path d="M357.007 418.22V425.6" stroke="#B0B0B0" stroke-linecap="round" stroke-linejoin="round"/>
<path d="M362.635 418.22V425.6" stroke="#B0B0B0" stroke-linecap="round" stroke-linejoin="round"/>
<path d="M368.255 418.22V425.6" stroke="#B0B0B0" stroke-linecap="round" stroke-linejoin="round"/>
<path d="M373.883 418.22V425.6" stroke="#B0B0B0" stroke-linecap="round" stroke-linejoin="round"/>
<path d="M338.72 222.5L272.233 314.21H304.305V305.21H288.029L338.72 237.46L389.411 305.21H373.228V314.21H405.207L338.72 222.5Z" fill="white" stroke="#263238" stroke-linecap="round" stroke-linejoin="round"/>
<path d="M304.258 314.21H272.233V322.5H304.258V314.21Z" fill="white" stroke="#263238" stroke-linecap="round" stroke-linejoin="round"/>
<path d="M287.032 336.05H277.52V420.73H287.032V336.05Z" fill="white" stroke="#263238" stroke-linecap="round" stroke-linejoin="round"/>
<path d="M287.577 332.96H276.975V336.16H287.577V332.96Z" fill="white" stroke="#263238" stroke-linecap="round" stroke-linejoin="round"/>
<path d="M288.306 322.61H276.246V333.14H288.306V322.61Z" fill="white" stroke="#263238" stroke-linecap="round" stroke-linejoin="round"/>
<path d="M276.975 416.27H287.577V413.07H276.975V416.27Z" fill="white" stroke="#263238" stroke-linecap="round" stroke-linejoin="round"/>
<path d="M276.246 426.62H288.306V416.09H276.246V426.62Z" fill="white" stroke="#263238" stroke-linecap="round" stroke-linejoin="round"/>
<path d="M301.205 336.05H291.692V420.73H301.205V336.05Z" fill="white" stroke="#263238" stroke-linecap="round" stroke-linejoin="round"/>
<path d="M301.758 332.96H291.156V336.16H301.758V332.96Z" fill="white" stroke="#263238" stroke-linecap="round" stroke-linejoin="round"/>
<path d="M302.487 322.61H290.428V333.14H302.487V322.61Z" fill="white" stroke="#263238" stroke-linecap="round" stroke-linejoin="round"/>
<path d="M291.147 416.27H301.749V413.07H291.147V416.27Z" fill="white" stroke="#263238" stroke-linecap="round" stroke-linejoin="round"/>
<path d="M290.419 426.62H302.478V416.09H290.419V426.62Z" fill="white" stroke="#263238" stroke-linecap="round" stroke-linejoin="round"/>
<path d="M405.198 314.21H373.172V322.5H405.198V314.21Z" fill="white" stroke="#263238" stroke-linecap="round" stroke-linejoin="round"/>
<path d="M387.972 336.05H378.459V420.73H387.972V336.05Z" fill="white" stroke="#263238" stroke-linecap="round" stroke-linejoin="round"/>
<path d="M388.516 332.96H377.915V336.16H388.516V332.96Z" fill="white" stroke="#263238" stroke-linecap="round" stroke-linejoin="round"/>
<path d="M389.245 322.61H377.186V333.14H389.245V322.61Z" fill="white" stroke="#263238" stroke-linecap="round" stroke-linejoin="round"/>
<path d="M377.915 416.27H388.516V413.07H377.915V416.27Z" fill="white" stroke="#263238" stroke-linecap="round" stroke-linejoin="round"/>
<path d="M377.186 426.62H389.245V416.09H377.186V426.62Z" fill="white" stroke="#263238" stroke-linecap="round" stroke-linejoin="round"/>
<path d="M402.144 336.05H392.632V420.73H402.144V336.05Z" fill="white" stroke="#263238" stroke-linecap="round" stroke-linejoin="round"/>
<path d="M402.698 332.96H392.096V336.16H402.698V332.96Z" fill="white" stroke="#263238" stroke-linecap="round" stroke-linejoin="round"/>
<path d="M403.417 322.61H391.358V333.14H403.417V322.61Z" fill="white" stroke="#263238" stroke-linecap="round" stroke-linejoin="round"/>
<path d="M392.087 416.27H402.688V413.07H392.087V416.27Z" fill="white" stroke="#263238" stroke-linecap="round" stroke-linejoin="round"/>
<path d="M391.367 426.62H403.427V416.09H391.367V426.62Z" fill="white" stroke="#263238" stroke-linecap="round" stroke-linejoin="round"/>
<path d="M189.377 370.91H180.243V383.38H189.377V370.91Z" fill="#CCCCCC"/>
<path d="M178.351 338.66H170.924V352.59H178.351V338.66Z" fill="#CCCCCC"/>
<path d="M178.351 355.52H170.924V367.99H178.351V355.52Z" fill="#CCCCCC"/>
<path d="M189.377 355.52H180.243V367.99H189.377V355.52Z" fill="#CCCCCC"/>
<path d="M178.351 370.91H170.924V383.38H178.351V370.91Z" fill="#CCCCCC"/>
<path d="M189.377 338.66H180.243V352.59H189.377V338.66Z" fill="#CCCCCC"/>
<path d="M178.351 386.31H170.924V402.3H178.351V386.31Z" fill="#CCCCCC"/>
<path d="M189.377 386.31H180.243V402.3H189.377V386.31Z" fill="#CCCCCC"/>
<path d="M169.023 386.31H160.083V402.3H169.023V386.31Z" fill="#CCCCCC"/>
<path d="M169.023 370.91H160.083V383.38H169.023V370.91Z" fill="#CCCCCC"/>
<path d="M169.023 355.52H160.083V367.99H169.023V355.52Z" fill="#CCCCCC"/>
<path d="M169.023 338.66H160.083V352.59H169.023V338.66Z" fill="#CCCCCC"/>
<path d="M224.466 370.91H215.332V383.38H224.466V370.91Z" fill="#CCCCCC"/>
<path d="M213.44 338.66H206.013V352.59H213.44V338.66Z" fill="#CCCCCC"/>
<path d="M213.44 355.52H206.013V367.99H213.44V355.52Z" fill="#CCCCCC"/>
<path d="M224.466 355.52H215.332V367.99H224.466V355.52Z" fill="#CCCCCC"/>
<path d="M213.44 370.91H206.013V383.38H213.44V370.91Z" fill="#CCCCCC"/>
<path d="M224.466 338.66H215.332V352.59H224.466V338.66Z" fill="#CCCCCC"/>
<path d="M213.44 386.31H206.013V402.3H213.44V386.31Z" fill="#CCCCCC"/>
<path d="M224.466 386.31H215.332V402.3H224.466V386.31Z" fill="#CCCCCC"/>
<path d="M204.122 386.31H195.181V402.3H204.122V386.31Z" fill="#CCCCCC"/>
<path d="M204.122 370.91H195.181V383.38H204.122V370.91Z" fill="#CCCCCC"/>
<path d="M204.122 355.52H195.181V367.99H204.122V355.52Z" fill="#CCCCCC"/>
<path d="M204.122 338.66H195.181V352.59H204.122V338.66Z" fill="#CCCCCC"/>
<path d="M259.565 370.91H250.43V383.38H259.565V370.91Z" fill="#CCCCCC"/>
<path d="M248.529 338.66H241.102V352.59H248.529V338.66Z" fill="#CCCCCC"/>
<path d="M248.529 355.52H241.102V367.99H248.529V355.52Z" fill="#CCCCCC"/>
<path d="M259.565 355.52H250.43V367.99H259.565V355.52Z" fill="#CCCCCC"/>
<path d="M248.529 370.91H241.102V383.38H248.529V370.91Z" fill="#CCCCCC"/>
<path d="M259.565 338.66H250.43V352.59H259.565V338.66Z" fill="#CCCCCC"/>
<path d="M248.529 386.31H241.102V402.3H248.529V386.31Z" fill="#CCCCCC"/>
<path d="M259.565 386.31H250.43V402.3H259.565V386.31Z" fill="#CCCCCC"/>
<path d="M239.21 386.31H230.27V402.3H239.21V386.31Z" fill="#CCCCCC"/>
<path d="M239.21 370.91H230.27V383.38H239.21V370.91Z" fill="#CCCCCC"/>
<path d="M239.21 355.52H230.27V367.99H239.21V355.52Z" fill="#CCCCCC"/>
<path d="M239.21 338.66H230.27V352.59H239.21V338.66Z" fill="#CCCCCC"/>
<path d="M263.569 331.92H155.46V407.34H263.569V331.92Z" stroke="#263238" stroke-linecap="round" stroke-linejoin="round"/>
<path d="M450.639 370.91H441.505V383.38H450.639V370.91Z" fill="#CCCCCC"/>
<path d="M439.614 338.66H432.186V352.59H439.614V338.66Z" fill="#CCCCCC"/>
<path d="M439.614 355.52H432.186V367.99H439.614V355.52Z" fill="#CCCCCC"/>
<path d="M450.639 355.52H441.505V367.99H450.639V355.52Z" fill="#CCCCCC"/>
<path d="M439.614 370.91H432.186V383.38H439.614V370.91Z" fill="#CCCCCC"/>
<path d="M450.639 338.66H441.505V352.59H450.639V338.66Z" fill="#CCCCCC"/>
<path d="M439.614 386.31H432.186V402.3H439.614V386.31Z" fill="#CCCCCC"/>
<path d="M450.639 386.31H441.505V402.3H450.639V386.31Z" fill="#CCCCCC"/>
<path d="M430.295 386.31H421.354V402.3H430.295V386.31Z" fill="#CCCCCC"/>
<path d="M430.295 370.91H421.354V383.38H430.295V370.91Z" fill="#CCCCCC"/>
<path d="M430.295 355.52H421.354V367.99H430.295V355.52Z" fill="#CCCCCC"/>
<path d="M430.295 338.66H421.354V352.59H430.295V338.66Z" fill="#CCCCCC"/>
<path d="M485.729 370.91H476.594V383.38H485.729V370.91Z" fill="#CCCCCC"/>
<path d="M474.703 338.66H467.275V352.59H474.703V338.66Z" fill="#CCCCCC"/>
<path d="M474.703 355.52H467.275V367.99H474.703V355.52Z" fill="#CCCCCC"/>
<path d="M485.729 355.52H476.594V367.99H485.729V355.52Z" fill="#CCCCCC"/>
<path d="M474.703 370.91H467.275V383.38H474.703V370.91Z" fill="#CCCCCC"/>
<path d="M485.729 338.66H476.594V352.59H485.729V338.66Z" fill="#CCCCCC"/>
<path d="M474.703 386.31H467.275V402.3H474.703V386.31Z" fill="#CCCCCC"/>
<path d="M485.729 386.31H476.594V402.3H485.729V386.31Z" fill="#CCCCCC"/>
<path d="M465.384 386.31H456.443V402.3H465.384V386.31Z" fill="#CCCCCC"/>
<path d="M465.384 370.91H456.443V383.38H465.384V370.91Z" fill="#CCCCCC"/>
<path d="M465.384 355.52H456.443V367.99H465.384V355.52Z" fill="#CCCCCC"/>
<path d="M465.384 338.66H456.443V352.59H465.384V338.66Z" fill="#CCCCCC"/>
<path d="M520.827 370.91H511.692V383.38H520.827V370.91Z" fill="#CCCCCC"/>
<path d="M509.792 338.66H502.374V352.59H509.792V338.66Z" fill="#CCCCCC"/>
<path d="M509.792 355.52H502.374V367.99H509.792V355.52Z" fill="#CCCCCC"/>
<path d="M520.827 355.52H511.692V367.99H520.827V355.52Z" fill="#CCCCCC"/>
<path d="M509.792 370.91H502.374V383.38H509.792V370.91Z" fill="#CCCCCC"/>
<path d="M520.827 338.66H511.692V352.59H520.827V338.66Z" fill="#CCCCCC"/>
<path d="M509.792 386.31H502.374V402.3H509.792V386.31Z" fill="#CCCCCC"/>
<path d="M520.827 386.31H511.692V402.3H520.827V386.31Z" fill="#CCCCCC"/>
<path d="M500.482 386.31H491.541V402.3H500.482V386.31Z" fill="#CCCCCC"/>
<path d="M500.482 370.91H491.541V383.38H500.482V370.91Z" fill="#CCCCCC"/>
<path d="M500.482 355.52H491.541V367.99H500.482V355.52Z" fill="#CCCCCC"/>
<path d="M500.482 338.66H491.541V352.59H500.482V338.66Z" fill="#CCCCCC"/>
<path d="M524.831 331.92H416.722V407.34H524.831V331.92Z" stroke="#263238" stroke-linecap="round" stroke-linejoin="round"/>
<path d="M650.471 427.22H657.64" stroke="#263238" stroke-linecap="round" stroke-linejoin="round"/>
<path d="M37.8662 427.22H640.598" stroke="#263238" stroke-linecap="round" stroke-linejoin="round"/>
<path d="M23.5188 427.22H29.7929" stroke="#263238" stroke-linecap="round" stroke-linejoin="round"/>
<path d="M580.357 346.32C580.357 346.32 578.816 384.92 579.01 406.84C579.204 428.76 581.704 465.34 581.704 465.34L579.979 468.89L580.163 474.11L591.337 477.66L592.103 473.28C592.103 473.28 594.031 471.61 594.031 470.56C594.031 469.51 593.837 463.88 593.837 462.21C593.837 460.54 600.195 382.91 600.195 382.91L602.889 382.7L615.216 468.06L612.651 469.73L616.12 477.03L621.896 474.94L628.059 475.36C628.756 473.601 629.336 471.789 629.794 469.94C629.794 469.1 627.672 468.06 627.672 466.6C627.672 465.14 625.568 377.41 625.568 377.41L621.877 346.32H580.357Z" fill="#263238" stroke="#263238" stroke-miterlimit="10"/>
<path d="M580.136 474.11L573.788 479.54C573.788 479.54 565.696 482.88 565.89 484.34C566.084 485.8 567.625 486.01 568.778 486.01H591.697L591.309 477.66L580.136 474.11Z" fill="white" stroke="#263238" stroke-miterlimit="10"/>
<path d="M616.147 477C616.147 477 618.648 485.77 619.423 486.81C620.198 487.85 627.321 491.19 629.24 490.57C631.159 489.95 633.291 487.02 632.516 484.1C631.74 481.18 628.087 475.33 628.087 475.33L621.923 474.91L616.147 477Z" fill="white" stroke="#263238" stroke-miterlimit="10"/>
<path d="M600.748 270.77L591.115 272.23C591.115 272.23 586.88 283.91 585.34 303.32C583.799 322.73 585.146 346.94 585.146 346.94H617.882C617.882 346.94 626.352 295.18 623.658 286.63C622.136 281.64 619.715 277.027 616.535 273.06L600.748 270.77Z" fill="white" stroke="#263238" stroke-miterlimit="10"/>
<path d="M592.656 278.7C592.656 278.7 588.227 294.56 588.227 308.33C588.227 322.1 590.156 372.19 590.156 372.19L572.441 368.19L576.666 335.46L574.738 300.4L559.911 317.31L548.839 310.49C548.839 310.49 573.391 274.31 574.166 274.11C574.941 273.91 596.042 269.5 596.042 269.5L592.656 278.7Z" fill="#D37815" stroke="#263238" stroke-miterlimit="10"/>
<path d="M573.677 288.46L574.747 300.4L570.9 287.46" stroke="#263238" stroke-miterlimit="10"/>
<path d="M573.207 283.29L573.437 285.86" stroke="#263238" stroke-miterlimit="10"/>
<path d="M614.985 270.06C614.985 270.06 636.778 276.06 637.553 276.22C638.328 276.38 661.976 323.36 661.976 323.36L651.384 328.36L631.759 302.14L627.699 340.04L632.903 369.04L609.984 370.92L608.037 341.31L612.079 277.24L614.985 270.06Z" fill="#D37815" stroke="#263238" stroke-miterlimit="10"/>
<path d="M628.779 292.47L631.759 302.15L627.044 295.96" stroke="#263238" stroke-miterlimit="10"/>
<path d="M594.871 232.69C594.871 232.69 591.291 229.92 591.632 228.62C591.974 227.32 599.816 222.34 601.007 221.79C602.197 221.24 616.517 224.56 618.906 226.22C621.296 227.88 623.843 237.68 624.184 242.29C624.525 246.9 613.961 256 613.961 256L607.142 256.18L607.991 250.64L601.007 249.16L602.197 242.88L595.895 235.3L597.593 231.05L594.871 232.69Z" fill="#263238" stroke="#263238" stroke-miterlimit="10"/>
<path d="M597.131 265.82L591.346 274C591.346 274 588.385 282.45 589.058 282C589.732 281.55 593.358 277.77 593.358 277.77L602.031 283.48L612.06 278.06L617.033 283.89C617.033 283.89 618.113 267.42 617.31 266.11C616.507 264.8 612.199 263.77 611.119 263.63C610.04 263.49 597.131 265.82 597.131 265.82Z" fill="white" stroke="#263238" stroke-miterlimit="10"/>
<path d="M596.91 228.62C596.91 228.62 589.418 237.31 590.267 239.15C590.745 240.138 591.09 241.196 591.291 242.29C591.291 242.29 585.321 248.02 586.179 249.13C587.154 250.138 588.242 251.008 589.418 251.72C589.418 251.72 588.394 259.48 589.418 261.32C590.442 263.16 596.061 262.06 596.061 262.06C596.061 262.06 599.982 284.97 602.031 283.49C604.079 282.01 613.785 268.34 613.619 266.68C613.453 265.02 613.961 256.52 613.961 255.97C613.961 255.42 610.547 255.78 610.547 255.78C610.547 255.78 614.985 248.78 613.315 246.73C611.645 244.68 608.203 245.25 607.004 246.17C606.295 246.727 605.673 247.402 605.159 248.17L603.313 247.61C603.898 246.226 604.41 244.807 604.845 243.36C605.02 242.44 600.924 238.01 601.099 237.27C601.258 236.932 601.463 236.622 601.708 236.35C603.064 234.64 606.21 231.35 606.21 231.35L596.91 228.62Z" fill="white" stroke="#263238" stroke-miterlimit="10"/>
<path d="M594.64 243.87C594.566 244.78 594.216 245.48 593.865 245.45C593.515 245.42 593.293 244.65 593.376 243.74C593.459 242.83 593.801 242.13 594.151 242.17C594.502 242.21 594.723 243 594.64 243.87Z" fill="#263238"/>
<path d="M592.684 239.46C592.684 239.46 594.843 237.76 596.31 239.99" stroke="#263238" stroke-miterlimit="10"/>
<path d="M590.507 253.37C590.507 253.37 594.622 253.68 596.679 251.03" stroke="#263238" stroke-miterlimit="10"/>
<path d="M596.061 262.06L602.289 261.12L597.094 267.59L596.061 262.06Z" fill="#263238" stroke="#263238" stroke-miterlimit="10"/>
<path d="M560.585 340.75L565.041 336.14L560.262 332.57L560.585 340.75Z" fill="white" stroke="#263238" stroke-miterlimit="10"/>
<path d="M562.707 323.59L566.222 327.99L563.555 338.1L559.034 334.11L562.707 323.59Z" fill="white" stroke="#263238" stroke-miterlimit="10"/>
<path d="M553.074 304C553.074 304 547.538 311.41 546.615 313.77C545.693 316.13 560.603 340.71 560.603 340.71L564.211 325.16L561.553 316.52L562.771 311.52L556.774 309.02" fill="#D37815"/>
<path d="M553.074 304C553.074 304 547.538 311.41 546.615 313.77C545.693 316.13 560.603 340.71 560.603 340.71L564.211 325.16L561.553 316.52L562.771 311.52L556.774 309.02" stroke="#263238" stroke-miterlimit="10"/>
<path d="M565.788 327.73L573.28 326.6C573.28 326.6 578.66 331.88 578.918 332.6C579.128 333.332 579.082 334.122 578.789 334.82C578.59 335.465 578.236 336.041 577.765 336.49C577.765 336.49 575.716 341.91 575.329 342.61C574.941 343.31 572.635 343.03 571.74 342.89C570.845 342.75 563.555 338.12 563.555 338.12L565.788 327.73Z" fill="white" stroke="#263238" stroke-miterlimit="10"/>
<path d="M639.297 328.55L637.369 331.19L640.46 339.86L644.556 337.31L639.297 328.55Z" fill="white" stroke="#263238" stroke-miterlimit="10"/>
<path d="M650.111 315.76L638.015 328.41L646.217 339.67C646.217 339.67 662.678 325.07 661.783 322.67C660.888 320.27 657.031 314.47 657.031 314.47" fill="#D37815"/>
<path d="M650.111 315.76L638.015 328.41L646.217 339.67C646.217 339.67 662.678 325.07 661.783 322.67C660.888 320.27 657.031 314.47 657.031 314.47" stroke="#263238" stroke-miterlimit="10"/>
<path d="M637.369 331.19L630.32 329.8C630.32 329.8 624.931 335.08 624.673 335.8C624.463 336.532 624.509 337.322 624.802 338.02C625.004 338.664 625.357 339.239 625.826 339.69C625.826 339.69 627.874 345.11 628.262 345.81C628.65 346.51 630.956 346.22 631.851 346.08C632.746 345.94 639.731 337.97 639.731 337.97L637.369 331.19Z" fill="white" stroke="#263238" stroke-miterlimit="10"/>
</svg>
